  0
SECTION
  2
HEADER
  9
$ACADVER
  1
AC1032
  9
$ACADMAINTVER
 90
      105
  9
$DWGCODEPAGE
  3
ANSI_1252
  9
$LASTSAVEDBY
  1
hiskandarani
  9
$REQUIREDVERSIONS
160
                 0
  9
$INSBASE
 10
0.0
 20
0.0
 30
0.0
  9
$EXTMIN
 10
-1.0
 20
-1.0
 30
0.0
  9
$EXTMAX
 10
855.6997982528033
 20
582.3214761922647
 30
0.0
  9
$LIMMIN
 10
0.0
 20
0.0
  9
$LIMMAX
 10
12.0
 20
9.0
  9
$ORTHOMODE
 70
     0
  9
$REGENMODE
 70
     1
  9
$FILLMODE
 70
     0
  9
$QTEXTMODE
 70
     0
  9
$MIRRTEXT
 70
     0
  9
$LTSCALE
 40
1.0
  9
$ATTMODE
 70
     1
  9
$TEXTSIZE
 40
0.2
  9
$TRACEWID
 40
0.05
  9
$TEXTSTYLE
  7
Standard
  9
$CLAYER
  8
0
  9
$CELTYPE
  6
Continuous
  9
$CECOLOR
 62
   256
  9
$CELTSCALE
 40
1.0
  9
$DISPSILH
 70
     0
  9
$DIMSCALE
 40
1.0
  9
$DIMASZ
 40
0.18
  9
$DIMEXO
 40
0.0625
  9
$DIMDLI
 40
0.38
  9
$DIMRND
 40
0.0
  9
$DIMDLE
 40
0.0
  9
$DIMEXE
 40
0.18
  9
$DIMTP
 40
0.0
  9
$DIMTM
 40
0.0
  9
$DIMTXT
 40
0.18
  9
$DIMCEN
 40
0.09
  9
$DIMTSZ
 40
0.0
  9
$DIMTOL
 70
     0
  9
$DIMLIM
 70
     0
  9
$DIMTIH
 70
     1
  9
$DIMTOH
 70
     1
  9
$DIMSE1
 70
     0
  9
$DIMSE2
 70
     0
  9
$DIMTAD
 70
     0
  9
$DIMZIN
 70
     0
  9
$DIMBLK
  1

  9
$DIMASO
 70
     1
  9
$DIMSHO
 70
     1
  9
$DIMPOST
  1

  9
$DIMAPOST
  1

  9
$DIMALT
 70
     0
  9
$DIMALTD
 70
     2
  9
$DIMALTF
 40
25.4
  9
$DIMLFAC
 40
1.0
  9
$DIMTOFL
 70
     0
  9
$DIMTVP
 40
0.0
  9
$DIMTIX
 70
     0
  9
$DIMSOXD
 70
     0
  9
$DIMSAH
 70
     0
  9
$DIMBLK1
  1

  9
$DIMBLK2
  1

  9
$DIMSTYLE
  2
Standard
  9
$DIMCLRD
 70
     0
  9
$DIMCLRE
 70
     0
  9
$DIMCLRT
 70
     0
  9
$DIMTFAC
 40
1.0
  9
$DIMGAP
 40
0.09
  9
$DIMJUST
 70
     0
  9
$DIMSD1
 70
     0
  9
$DIMSD2
 70
     0
  9
$DIMTOLJ
 70
     1
  9
$DIMTZIN
 70
     0
  9
$DIMALTZ
 70
     0
  9
$DIMALTTZ
 70
     0
  9
$DIMUPT
 70
     0
  9
$DIMDEC
 70
     4
  9
$DIMTDEC
 70
     4
  9
$DIMALTU
 70
     2
  9
$DIMALTTD
 70
     2
  9
$DIMTXSTY
  7
Standard
  9
$DIMAUNIT
 70
     0
  9
$DIMADEC
 70
     0
  9
$DIMALTRND
 40
0.0
  9
$DIMAZIN
 70
     0
  9
$DIMDSEP
 70
    46
  9
$DIMATFIT
 70
     3
  9
$DIMFRAC
 70
     0
  9
$DIMLDRBLK
  1

  9
$DIMLUNIT
 70
     2
  9
$DIMLWD
 70
    -2
  9
$DIMLWE
 70
    -2
  9
$DIMTMOVE
 70
     0
  9
$DIMFXL
 40
1.0
  9
$DIMFXLON
 70
     0
  9
$DIMJOGANG
 40
0.7853981633974483
  9
$DIMTFILL
 70
     0
  9
$DIMTFILLCLR
 70
     0
  9
$DIMARCSYM
 70
     0
  9
$DIMLTYPE
  6

  9
$DIMLTEX1
  6

  9
$DIMLTEX2
  6

  9
$DIMTXTDIRECTION
 70
     0
  9
$LUNITS
 70
     2
  9
$LUPREC
 70
     4
  9
$SKETCHINC
 40
0.1
  9
$FILLETRAD
 40
0.0
  9
$AUNITS
 70
     0
  9
$AUPREC
 70
     0
  9
$MENU
  1
.
  9
$ELEVATION
 40
0.0
  9
$PELEVATION
 40
0.0
  9
$THICKNESS
 40
0.0
  9
$LIMCHECK
 70
     0
  9
$CHAMFERA
 40
0.0
  9
$CHAMFERB
 40
0.0
  9
$CHAMFERC
 40
0.0
  9
$CHAMFERD
 40
0.0
  9
$SKPOLY
 70
     0
  9
$TDCREATE
 40
2458973.969618055
  9
$TDUCREATE
 40
2458974.261284722
  9
$TDUPDATE
 40
2458974.007372685
  9
$TDUUPDATE
 40
2458974.299039352
  9
$TDINDWG
 40
0.0377546296
  9
$TDUSRTIMER
 40
0.0377546296
  9
$USRTIMER
 70
     1
  9
$ANGBASE
 50
0.0
  9
$ANGDIR
 70
     0
  9
$PDMODE
 70
     0
  9
$PDSIZE
 40
0.0
  9
$PLINEWID
 40
0.0
  9
$SPLFRAME
 70
     1
  9
$SPLINETYPE
 70
     6
  9
$SPLINESEGS
 70
     8
  9
$HANDSEED
  5
D5F
  9
$SURFTAB1
 70
     6
  9
$SURFTAB2
 70
     6
  9
$SURFTYPE
 70
     6
  9
$SURFU
 70
     6
  9
$SURFV
 70
     6
  9
$UCSBASE
  2

  9
$UCSNAME
  2

  9
$UCSORG
 10
0.0
 20
0.0
 30
0.0
  9
$UCSXDIR
 10
1.0
 20
0.0
 30
0.0
  9
$UCSYDIR
 10
0.0
 20
1.0
 30
0.0
  9
$UCSORTHOREF
  2

  9
$UCSORTHOVIEW
 70
     0
  9
$UCSORGTOP
 10
0.0
 20
0.0
 30
0.0
  9
$UCSORGBOTTOM
 10
0.0
 20
0.0
 30
0.0
  9
$UCSORGLEFT
 10
0.0
 20
0.0
 30
0.0
  9
$UCSORGRIGHT
 10
0.0
 20
0.0
 30
0.0
  9
$UCSORGFRONT
 10
0.0
 20
0.0
 30
0.0
  9
$UCSORGBACK
 10
0.0
 20
0.0
 30
0.0
  9
$PUCSBASE
  2

  9
$PUCSNAME
  2

  9
$PUCSORG
 10
0.0
 20
0.0
 30
0.0
  9
$PUCSXDIR
 10
1.0
 20
0.0
 30
0.0
  9
$PUCSYDIR
 10
0.0
 20
1.0
 30
0.0
  9
$PUCSORTHOREF
  2

  9
$PUCSORTHOVIEW
 70
     0
  9
$PUCSORGTOP
 10
0.0
 20
0.0
 30
0.0
  9
$PUCSORGBOTTOM
 10
0.0
 20
0.0
 30
0.0
  9
$PUCSORGLEFT
 10
0.0
 20
0.0
 30
0.0
  9
$PUCSORGRIGHT
 10
0.0
 20
0.0
 30
0.0
  9
$PUCSORGFRONT
 10
0.0
 20
0.0
 30
0.0
  9
$PUCSORGBACK
 10
0.0
 20
0.0
 30
0.0
  9
$USERI1
 70
     0
  9
$USERI2
 70
     0
  9
$USERI3
 70
     0
  9
$USERI4
 70
     0
  9
$USERI5
 70
     0
  9
$USERR1
 40
0.0
  9
$USERR2
 40
0.0
  9
$USERR3
 40
0.0
  9
$USERR4
 40
0.0
  9
$USERR5
 40
0.0
  9
$WORLDVIEW
 70
     1
  9
$SHADEDGE
 70
     3
  9
$SHADEDIF
 70
    70
  9
$TILEMODE
 70
     1
  9
$MAXACTVP
 70
    64
  9
$PINSBASE
 10
0.0
 20
0.0
 30
0.0
  9
$PLIMCHECK
 70
     0
  9
$PEXTMIN
 10
1.000000000000000E+20
 20
1.000000000000000E+20
 30
1.000000000000000E+20
  9
$PEXTMAX
 10
-1.000000000000000E+20
 20
-1.000000000000000E+20
 30
-1.000000000000000E+20
  9
$PLIMMIN
 10
0.0
 20
0.0
  9
$PLIMMAX
 10
12.0
 20
9.0
  9
$UNITMODE
 70
     0
  9
$VISRETAIN
 70
     1
  9
$PLINEGEN
 70
     0
  9
$PSLTSCALE
 70
     1
  9
$TREEDEPTH
 70
  3020
  9
$CMLSTYLE
  2
Standard
  9
$CMLJUST
 70
     0
  9
$CMLSCALE
 40
1.0
  9
$PROXYGRAPHICS
 70
     1
  9
$MEASUREMENT
 70
     0
  9
$CELWEIGHT
370
    -1
  9
$ENDCAPS
280
     0
  9
$JOINSTYLE
280
     0
  9
$LWDISPLAY
290
     0
  9
$INSUNITS
 70
     0
  9
$HYPERLINKBASE
  1

  9
$STYLESHEET
  1

  9
$XEDIT
290
     1
  9
$CEPSNTYPE
380
     0
  9
$PSTYLEMODE
290
     1
  9
$FINGERPRINTGUID
  2
{F4A9DF76-639D-C14E-AED2-E0039F900E4B}
  9
$VERSIONGUID
  2
{3364C355-EFB7-2644-85A5-C0B5C07F9D77}
  9
$EXTNAMES
290
     1
  9
$PSVPSCALE
 40
0.0
  9
$OLESTARTUP
290
     0
  9
$SORTENTS
280
   127
  9
$INDEXCTL
280
     0
  9
$HIDETEXT
280
     0
  9
$XCLIPFRAME
280
     2
  9
$HALOGAP
280
     0
  9
$OBSCOLOR
 70
   257
  9
$OBSLTYPE
280
     0
  9
$INTERSECTIONDISPLAY
280
     0
  9
$INTERSECTIONCOLOR
 70
   257
  9
$DIMASSOC
280
     1
  9
$PROJECTNAME
  1

  9
$CAMERADISPLAY
290
     0
  9
$LENSLENGTH
 40
50.0
  9
$CAMERAHEIGHT
 40
0.0
  9
$STEPSPERSEC
 40
2.0
  9
$STEPSIZE
 40
6.0
  9
$3DDWFPREC
 40
2.0
  9
$PSOLWIDTH
 40
0.25
  9
$PSOLHEIGHT
 40
4.0
  9
$LOFTANG1
 40
1.570796326794896
  9
$LOFTANG2
 40
1.570796326794896
  9
$LOFTMAG1
 40
0.0
  9
$LOFTMAG2
 40
0.0
  9
$LOFTPARAM
 70
     7
  9
$LOFTNORMALS
280
     1
  9
$LATITUDE
 40
37.795
  9
$LONGITUDE
 40
-122.394
  9
$NORTHDIRECTION
 40
0.0
  9
$TIMEZONE
 70
 -8000
  9
$LIGHTGLYPHDISPLAY
280
     1
  9
$TILEMODELIGHTSYNCH
280
     1
  9
$CMATERIAL
347
11
  9
$SOLIDHIST
280
     0
  9
$SHOWHIST
280
     1
  9
$DWFFRAME
280
     2
  9
$DGNFRAME
280
     0
  9
$REALWORLDSCALE
290
     1
  9
$INTERFERECOLOR
 62
     1
  9
$INTERFEREOBJVS
345
33
  9
$INTERFEREVPVS
346
30
  9
$CSHADOW
280
     0
  9
$SHADOWPLANELOCATION
 40
0.0
  0
ENDSEC
  0
SECTION
  2
CLASSES
  0
CLASS
  1
ACDBDICTIONARYWDFLT
  2
AcDbDictionaryWithDefault
  3
ObjectDBX Classes
 90
        0
 91
        1
280
     0
281
     0
  0
CLASS
  1
MATERIAL
  2
AcDbMaterial
  3
ObjectDBX Classes
 90
     1153
 91
        3
280
     0
281
     0
  0
CLASS
  1
VISUALSTYLE
  2
AcDbVisualStyle
  3
ObjectDBX Classes
 90
     4095
 91
       24
280
     0
281
     0
  0
CLASS
  1
SCALE
  2
AcDbScale
  3
ObjectDBX Classes
 90
     1153
 91
       17
280
     0
281
     0
  0
CLASS
  1
TABLESTYLE
  2
AcDbTableStyle
  3
ObjectDBX Classes
 90
     4095
 91
        1
280
     0
281
     0
  0
CLASS
  1
MLEADERSTYLE
  2
AcDbMLeaderStyle
  3
ACDB_MLEADERSTYLE_CLASS
 90
     4095
 91
        1
280
     0
281
     0
  0
CLASS
  1
ACDBSECTIONVIEWSTYLE
  2
AcDbSectionViewStyle
  3
ObjectDBX Classes
 90
     1025
 91
        1
280
     0
281
     0
  0
CLASS
  1
ACDBDETAILVIEWSTYLE
  2
AcDbDetailViewStyle
  3
ObjectDBX Classes
 90
     1025
 91
        1
280
     0
281
     0
  0
CLASS
  1
SORTENTSTABLE
  2
AcDbSortentsTable
  3
ObjectDBX Classes
 90
        0
 91
        1
280
     0
281
     0
  0
CLASS
  1
DICTIONARYVAR
  2
AcDbDictionaryVar
  3
ObjectDBX Classes
 90
        0
 91
        9
280
     0
281
     0
  0
CLASS
  1
CELLSTYLEMAP
  2
AcDbCellStyleMap
  3
ObjectDBX Classes
 90
     1152
 91
        5
280
     0
281
     0
  0
ENDSEC
  0
SECTION
  2
TABLES
  0
TABLE
  2
VPORT
  5
8
330
0
100
AcDbSymbolTable
 70
     1
  0
VPORT
  5
74
330
8
100
AcDbSymbolTableRecord
100
AcDbViewportTableRecord
  2
*Active
 70
     0
 10
0.0
 20
0.0
 11
1.0
 21
1.0
 12
135.4012359037631
 22
62.84595911712823
 13
0.0
 23
0.0
 14
1.0
 24
1.0
 15
0.0
 25
0.0
 16
0.0
 26
0.0
 36
1.0
 17
0.0
 27
0.0
 37
0.0
 40
219.865133185948
 41
1.69756838905775
 42
50.0
 43
0.0
 44
0.0
 50
0.0
 51
0.0
 71
     0
 72
   100
 73
     1
 74
     0
 75
     1
 76
     1
 77
     0
 78
     0
281
     0
 65
     1
110
0.0
120
0.0
130
0.0
111
1.0
121
0.0
131
0.0
112
0.0
122
1.0
132
0.0
 79
     0
146
0.0
348
2F
 60
     3
 61
     5
292
     1
282
     1
141
0.0
142
0.0
 63
   250
421
  3355443
1001
ACAD_NAV_VCDISPLAY
1070
     3
  0
ENDTAB
  0
TABLE
  2
LTYPE
  5
5
330
0
100
AcDbSymbolTable
 70
     3
  0
LTYPE
  5
5A
330
5
100
AcDbSymbolTableRecord
100
AcDbLinetypeTableRecord
  2
ByBlock
 70
     0
  3

 72
    65
 73
     0
 40
0.0
  0
LTYPE
  5
5B
330
5
100
AcDbSymbolTableRecord
100
AcDbLinetypeTableRecord
  2
ByLayer
 70
     0
  3

 72
    65
 73
     0
 40
0.0
  0
LTYPE
  5
5C
330
5
100
AcDbSymbolTableRecord
100
AcDbLinetypeTableRecord
  2
Continuous
 70
     0
  3
Solid line
 72
    65
 73
     0
 40
0.0
  0
ENDTAB
  0
TABLE
  2
LAYER
  5
2
102
{ACAD_XDICTIONARY
360
1D8
102
}
330
0
100
AcDbSymbolTable
 70
     1
  0
LAYER
  5
54
102
{ACAD_XDICTIONARY
360
782
102
}
330
2
100
AcDbSymbolTableRecord
100
AcDbLayerTableRecord
  2
0
 70
     0
 62
     7
  6
Continuous
370
    -3
390
F
347
21
348
0
  0
ENDTAB
  0
TABLE
  2
STYLE
  5
3
330
0
100
AcDbSymbolTable
 70
     2
  0
STYLE
  5
55
330
3
100
AcDbSymbolTableRecord
100
AcDbTextStyleTableRecord
  2
Standard
 70
     0
 40
0.0
 41
1.0
 50
0.0
 71
     0
 42
0.2
  3
txt
  4

  0
STYLE
  5
59
330
3
100
AcDbSymbolTableRecord
100
AcDbTextStyleTableRecord
  2
Annotative
 70
     0
 40
0.0
 41
1.0
 50
0.0
 71
     0
 42
0.2
  3
txt
  4

1001
AcadAnnotative
1000
AnnotativeData
1002
{
1070
     1
1070
     1
1002
}
  0
ENDTAB
  0
TABLE
  2
VIEW
  5
6
330
0
100
AcDbSymbolTable
 70
     5
  0
ENDTAB
  0
TABLE
  2
UCS
  5
7
330
0
100
AcDbSymbolTable
 70
     0
  0
ENDTAB
  0
TABLE
  2
APPID
  5
9
330
0
100
AcDbSymbolTable
 70
     4
  0
APPID
  5
56
330
9
100
AcDbSymbolTableRecord
100
AcDbRegAppTableRecord
  2
ACAD
 70
     0
  0
APPID
  5
5D
330
9
100
AcDbSymbolTableRecord
100
AcDbRegAppTableRecord
  2
AcadAnnotative
 70
     0
  0
APPID
  5
1D7
330
9
100
AcDbSymbolTableRecord
100
AcDbRegAppTableRecord
  2
ACAD_NAV_VCDISPLAY
 70
     0
  0
APPID
  5
77A
330
9
100
AcDbSymbolTableRecord
100
AcDbRegAppTableRecord
  2
ACAD_EXEMPT_FROM_CAD_STANDARDS
 70
     0
  0
ENDTAB
  0
TABLE
  2
DIMSTYLE
  5
A
330
0
100
AcDbSymbolTable
 70
     3
100
AcDbDimStyleTable
 71
     1
340
57
  0
DIMSTYLE
105
57
330
A
100
AcDbSymbolTableRecord
100
AcDbDimStyleTableRecord
  2
Standard
 70
     0
340
55
  0
DIMSTYLE
105
58
330
A
100
AcDbSymbolTableRecord
100
AcDbDimStyleTableRecord
  2
Annotative
 70
     0
340
55
1001
AcadAnnotative
1000
AnnotativeData
1002
{
1070
     1
1070
     1
1002
}
  0
ENDTAB
  0
TABLE
  2
BLOCK_RECORD
  5
1
330
0
100
AcDbSymbolTable
 70
     4
  0
BLOCK_RECORD
  5
6F
330
1
100
AcDbSymbolTableRecord
100
AcDbBlockTableRecord
  2
*Model_Space
340
72
 70
     0
280
     1
281
     0
  0
BLOCK_RECORD
  5
6B
330
1
100
AcDbSymbolTableRecord
100
AcDbBlockTableRecord
  2
*Paper_Space
340
6E
 70
     0
280
     1
281
     0
  0
ENDTAB
  0
ENDSEC
  0
SECTION
  2
BLOCKS
  0
BLOCK
  5
70
330
6F
100
AcDbEntity
  8
0
100
AcDbBlockBegin
  2
*Model_Space
 70
     0
 10
0.0
 20
0.0
 30
0.0
  3
*Model_Space
  1

  0
ENDBLK
  5
71
330
6F
100
AcDbEntity
  8
0
100
AcDbBlockEnd
  0
BLOCK
  5
6C
330
6B
100
AcDbEntity
 67
     1
  8
0
100
AcDbBlockBegin
  2
*Paper_Space
 70
     0
 10
0.0
 20
0.0
 30
0.0
  3
*Paper_Space
  1

  0
ENDBLK
  5
6D
330
6B
100
AcDbEntity
 67
     1
  8
0
100
AcDbBlockEnd
  0
ENDSEC
  0
SECTION
  2
ENTITIES
  0
LINE
  5
4AD
330
6F
100
AcDbEntity
  8
0
 62
     0
100
AcDbLine
 10
133.492575
 20
26.04965000000004
 30
0.0
 11
133.492575
 21
16.74928
 31
0.0
  0
LINE
  5
4AE
330
6F
100
AcDbEntity
  8
0
 62
     0
100
AcDbLine
 10
98.62547500000005
 20
16.74928
 30
0.0
 11
98.62547500000005
 21
24.57934999999998
 31
0.0
  0
LINE
  5
4AF
330
6F
100
AcDbEntity
  8
0
 62
     0
100
AcDbLine
 10
98.62547500000005
 20
24.57934999999998
 30
0.0
 11
87.11757499999999
 21
24.57934999999998
 31
0.0
  0
LINE
  5
4B0
330
6F
100
AcDbEntity
  8
0
 62
     0
100
AcDbLine
 10
87.11757499999999
 20
24.57934999999998
 30
0.0
 11
87.11757499999999
 21
21.34915000000001
 31
0.0
  0
LINE
  5
4B1
330
6F
100
AcDbEntity
  8
0
 62
     0
100
AcDbLine
 10
87.11757499999999
 20
21.34915000000001
 30
0.0
 11
87.11757499999999
 21
12.28031999999996
 31
0.0
  0
LINE
  5
4B2
330
6F
100
AcDbEntity
  8
0
 62
     0
100
AcDbLine
 10
87.11757499999999
 20
12.28031999999996
 30
0.0
 11
88.84257500000002
 21
12.28031999999996
 31
0.0
  0
LINE
  5
4B3
330
6F
100
AcDbEntity
  8
0
 62
     0
100
AcDbLine
 10
88.84257500000002
 20
12.28031999999996
 30
0.0
 11
88.84257500000002
 21
11.08005000000003
 31
0.0
  0
LINE
  5
4B4
330
6F
100
AcDbEntity
  8
0
 62
     0
100
AcDbLine
 10
88.84257500000002
 20
11.08005000000003
 30
0.0
 11
92.14317500000005
 21
11.08005000000003
 31
0.0
  0
LINE
  5
4B5
330
6F
100
AcDbEntity
  8
0
 62
     0
100
AcDbLine
 10
92.14317500000005
 20
11.08005000000003
 30
0.0
 11
92.14317500000005
 21
12.28031999999996
 31
0.0
  0
LINE
  5
4B6
330
6F
100
AcDbEntity
  8
0
 62
     0
100
AcDbLine
 10
92.14317500000005
 20
12.28031999999996
 30
0.0
 11
93.59977500000002
 21
12.28031999999996
 31
0.0
  0
LINE
  5
4B7
330
6F
100
AcDbEntity
  8
0
 62
     0
100
AcDbLine
 10
93.59977500000002
 20
12.28031999999996
 30
0.0
 11
93.59977500000002
 21
11.08005000000003
 31
0.0
  0
LINE
  5
4B8
330
6F
100
AcDbEntity
  8
0
 62
     0
100
AcDbLine
 10
93.59977500000002
 20
11.08005000000003
 30
0.0
 11
96.90007500000001
 21
11.08005000000003
 31
0.0
  0
LINE
  5
4B9
330
6F
100
AcDbEntity
  8
0
 62
     0
100
AcDbLine
 10
96.90007500000001
 20
11.08005000000003
 30
0.0
 11
96.90007500000001
 21
12.28031999999996
 31
0.0
  0
LINE
  5
4BA
330
6F
100
AcDbEntity
  8
0
 62
     0
100
AcDbLine
 10
96.90007500000001
 20
12.28031999999996
 30
0.0
 11
98.62547500000005
 21
12.28031999999996
 31
0.0
  0
LINE
  5
4BB
330
6F
100
AcDbEntity
  8
0
 62
     0
100
AcDbLine
 10
98.62547500000005
 20
12.28031999999996
 30
0.0
 11
98.62547500000005
 21
16.74928
 31
0.0
  0
LINE
  5
4BC
330
6F
100
AcDbEntity
  8
0
 62
     0
100
AcDbLine
 10
133.492575
 20
16.74928
 30
0.0
 11
133.492575
 21
12.05019000000004
 31
0.0
  0
LINE
  5
4BD
330
6F
100
AcDbEntity
  8
0
 62
     0
100
AcDbLine
 10
133.492575
 20
12.05019000000004
 30
0.0
 11
159.399575
 21
12.05019000000004
 31
0.0
  0
LINE
  5
4BE
330
6F
100
AcDbEntity
  8
0
 62
     0
100
AcDbLine
 10
159.399575
 20
12.05019000000004
 30
0.0
 11
159.399575
 21
16.74928
 31
0.0
  0
LINE
  5
4BF
330
6F
100
AcDbEntity
  8
0
 62
     0
100
AcDbLine
 10
187.117575
 20
16.74928
 30
0.0
 11
187.117575
 21
12.28031999999996
 31
0.0
  0
LINE
  5
4C0
330
6F
100
AcDbEntity
  8
0
 62
     0
100
AcDbLine
 10
187.117575
 20
12.28031999999996
 30
0.0
 11
188.842575
 21
12.28031999999996
 31
0.0
  0
LINE
  5
4C1
330
6F
100
AcDbEntity
  8
0
 62
     0
100
AcDbLine
 10
188.842575
 20
12.28031999999996
 30
0.0
 11
188.842575
 21
11.08005000000003
 31
0.0
  0
LINE
  5
4C2
330
6F
100
AcDbEntity
  8
0
 62
     0
100
AcDbLine
 10
188.842575
 20
11.08005000000003
 30
0.0
 11
192.143575
 21
11.08005000000003
 31
0.0
  0
LINE
  5
4C3
330
6F
100
AcDbEntity
  8
0
 62
     0
100
AcDbLine
 10
192.143575
 20
11.08005000000003
 30
0.0
 11
192.143575
 21
12.28031999999996
 31
0.0
  0
LINE
  5
4C4
330
6F
100
AcDbEntity
  8
0
 62
     0
100
AcDbLine
 10
192.143575
 20
12.28031999999996
 30
0.0
 11
193.8685749999999
 21
12.28031999999996
 31
0.0
  0
LINE
  5
4C5
330
6F
100
AcDbEntity
  8
0
 62
     0
100
AcDbLine
 10
193.8685749999999
 20
12.28031999999996
 30
0.0
 11
193.8685749999999
 21
16.74928
 31
0.0
  0
LINE
  5
4C6
330
6F
100
AcDbEntity
  8
0
 62
     0
100
AcDbLine
 10
204.9315750000001
 20
16.74928
 30
0.0
 11
204.9315750000001
 21
12.05019000000004
 31
0.0
  0
LINE
  5
4C7
330
6F
100
AcDbEntity
  8
0
 62
     0
100
AcDbLine
 10
204.9315750000001
 20
12.05019000000004
 30
0.0
 11
207.899575
 21
12.05019000000004
 31
0.0
  0
LINE
  5
4C8
330
6F
100
AcDbEntity
  8
0
 62
     0
100
AcDbLine
 10
207.899575
 20
12.05019000000004
 30
0.0
 11
207.899575
 21
11.08005000000003
 31
0.0
  0
LINE
  5
4C9
330
6F
100
AcDbEntity
  8
0
 62
     0
100
AcDbLine
 10
207.899575
 20
11.08005000000003
 30
0.0
 11
211.199575
 21
11.08005000000003
 31
0.0
  0
LINE
  5
4CA
330
6F
100
AcDbEntity
  8
0
 62
     0
100
AcDbLine
 10
211.199575
 20
11.08005000000003
 30
0.0
 11
211.199575
 21
12.05019000000004
 31
0.0
  0
LINE
  5
4CB
330
6F
100
AcDbEntity
  8
0
 62
     0
100
AcDbLine
 10
211.199575
 20
12.05019000000004
 30
0.0
 11
218.930575
 21
12.05019000000004
 31
0.0
  0
LINE
  5
4CC
330
6F
100
AcDbEntity
  8
0
 62
     0
100
AcDbLine
 10
218.930575
 20
12.05019000000004
 30
0.0
 11
218.930575
 21
26.04965000000004
 31
0.0
  0
LINE
  5
4CD
330
6F
100
AcDbEntity
  8
0
 62
     0
100
AcDbLine
 10
218.930575
 20
26.04965000000004
 30
0.0
 11
204.9315750000001
 21
26.04965000000004
 31
0.0
  0
LINE
  5
4CE
330
6F
100
AcDbEntity
  8
0
 62
     0
100
AcDbLine
 10
204.9315750000001
 20
26.04965000000004
 30
0.0
 11
204.9315750000001
 21
16.74928
 31
0.0
  0
LINE
  5
4CF
330
6F
100
AcDbEntity
  8
0
 62
     0
100
AcDbLine
 10
193.8685749999999
 20
16.74928
 30
0.0
 11
193.8685749999999
 21
24.57934999999998
 31
0.0
  0
LINE
  5
4D0
330
6F
100
AcDbEntity
  8
0
 62
     0
100
AcDbLine
 10
193.8685749999999
 20
24.57934999999998
 30
0.0
 11
187.117575
 21
24.57934999999998
 31
0.0
  0
LINE
  5
4D1
330
6F
100
AcDbEntity
  8
0
 62
     0
100
AcDbLine
 10
187.117575
 20
24.57934999999998
 30
0.0
 11
187.117575
 21
16.74928
 31
0.0
  0
LINE
  5
4D2
330
6F
100
AcDbEntity
  8
0
 62
     0
100
AcDbLine
 10
159.399575
 20
16.74928
 30
0.0
 11
159.399575
 21
26.04965000000004
 31
0.0
  0
LINE
  5
4D3
330
6F
100
AcDbEntity
  8
0
 62
     0
100
AcDbLine
 10
159.399575
 20
26.04965000000004
 30
0.0
 11
133.492575
 21
26.04965000000004
 31
0.0
  0
LINE
  5
4D4
330
6F
100
AcDbEntity
  8
0
 62
     0
100
AcDbLine
 10
273.987575
 20
26.04965000000004
 30
0.0
 11
290.368575
 21
26.04965000000004
 31
0.0
  0
LINE
  5
4D5
330
6F
100
AcDbEntity
  8
0
 62
     0
100
AcDbLine
 10
290.368575
 20
26.04965000000004
 30
0.0
 11
290.368575
 21
12.05019000000004
 31
0.0
  0
LINE
  5
4D6
330
6F
100
AcDbEntity
  8
0
 62
     0
100
AcDbLine
 10
290.368575
 20
12.05019000000004
 30
0.0
 11
273.987575
 21
12.05019000000004
 31
0.0
  0
LINE
  5
4D7
330
6F
100
AcDbEntity
  8
0
 62
     0
100
AcDbLine
 10
273.987575
 20
12.05019000000004
 30
0.0
 11
273.987575
 21
26.04965000000004
 31
0.0
  0
LINE
  5
4D8
330
6F
100
AcDbEntity
  8
0
 62
     0
100
AcDbLine
 10
250.175575
 20
26.04965000000004
 30
0.0
 11
266.555575
 21
26.04965000000004
 31
0.0
  0
LINE
  5
4D9
330
6F
100
AcDbEntity
  8
0
 62
     0
100
AcDbLine
 10
266.555575
 20
26.04965000000004
 30
0.0
 11
266.555575
 21
12.05019000000004
 31
0.0
  0
LINE
  5
4DA
330
6F
100
AcDbEntity
  8
0
 62
     0
100
AcDbLine
 10
266.555575
 20
12.05019000000004
 30
0.0
 11
250.175575
 21
12.05019000000004
 31
0.0
  0
LINE
  5
4DB
330
6F
100
AcDbEntity
  8
0
 62
     0
100
AcDbLine
 10
250.175575
 20
12.05019000000004
 30
0.0
 11
250.175575
 21
26.04965000000004
 31
0.0
  0
LINE
  5
4DC
330
6F
100
AcDbEntity
  8
0
 62
     0
100
AcDbLine
 10
226.362575
 20
26.04965000000004
 30
0.0
 11
242.743575
 21
26.04965000000004
 31
0.0
  0
LINE
  5
4DD
330
6F
100
AcDbEntity
  8
0
 62
     0
100
AcDbLine
 10
242.743575
 20
26.04965000000004
 30
0.0
 11
242.743575
 21
12.05019000000004
 31
0.0
  0
LINE
  5
4DE
330
6F
100
AcDbEntity
  8
0
 62
     0
100
AcDbLine
 10
242.743575
 20
12.05019000000004
 30
0.0
 11
226.362575
 21
12.05019000000004
 31
0.0
  0
LINE
  5
4DF
330
6F
100
AcDbEntity
  8
0
 62
     0
100
AcDbLine
 10
226.362575
 20
12.05019000000004
 30
0.0
 11
226.362575
 21
26.04965000000004
 31
0.0
  0
LINE
  5
4E0
330
6F
100
AcDbEntity
  8
0
 62
     0
100
AcDbLine
 10
62.05657499999995
 20
26.04965000000004
 30
0.0
 11
78.43707500000005
 21
26.04965000000004
 31
0.0
  0
LINE
  5
4E1
330
6F
100
AcDbEntity
  8
0
 62
     0
100
AcDbLine
 10
78.43707500000005
 20
26.04965000000004
 30
0.0
 11
78.43707500000005
 21
12.05019000000004
 31
0.0
  0
LINE
  5
4E2
330
6F
100
AcDbEntity
  8
0
 62
     0
100
AcDbLine
 10
78.43707500000005
 20
12.05019000000004
 30
0.0
 11
62.05657499999995
 21
12.05019000000004
 31
0.0
  0
LINE
  5
4E3
330
6F
100
AcDbEntity
  8
0
 62
     0
100
AcDbLine
 10
62.05657499999995
 20
12.05019000000004
 30
0.0
 11
62.05657499999995
 21
26.04965000000004
 31
0.0
  0
LINE
  5
4E4
330
6F
100
AcDbEntity
  8
0
 62
     0
100
AcDbLine
 10
38.24257499999999
 20
26.04965000000004
 30
0.0
 11
54.62457499999999
 21
26.04965000000004
 31
0.0
  0
LINE
  5
4E5
330
6F
100
AcDbEntity
  8
0
 62
     0
100
AcDbLine
 10
54.62457499999999
 20
26.04965000000004
 30
0.0
 11
54.62457499999999
 21
12.05019000000004
 31
0.0
  0
LINE
  5
4E6
330
6F
100
AcDbEntity
  8
0
 62
     0
100
AcDbLine
 10
54.62457499999999
 20
12.05019000000004
 30
0.0
 11
38.24257499999999
 21
12.05019000000004
 31
0.0
  0
LINE
  5
4E7
330
6F
100
AcDbEntity
  8
0
 62
     0
100
AcDbLine
 10
38.24257499999999
 20
12.05019000000004
 30
0.0
 11
38.24257499999999
 21
26.04965000000004
 31
0.0
  0
LINE
  5
4E8
330
6F
100
AcDbEntity
  8
0
 62
     0
100
AcDbLine
 10
14.43148500000001
 20
26.04965000000004
 30
0.0
 11
30.812275
 21
26.04965000000004
 31
0.0
  0
LINE
  5
4E9
330
6F
100
AcDbEntity
  8
0
 62
     0
100
AcDbLine
 10
30.812275
 20
26.04965000000004
 30
0.0
 11
30.812275
 21
12.05019000000004
 31
0.0
  0
LINE
  5
4EA
330
6F
100
AcDbEntity
  8
0
 62
     0
100
AcDbLine
 10
30.812275
 20
12.05019000000004
 30
0.0
 11
14.43148500000001
 21
12.05019000000004
 31
0.0
  0
LINE
  5
4EB
330
6F
100
AcDbEntity
  8
0
 62
     0
100
AcDbLine
 10
14.43148500000001
 20
12.05019000000004
 30
0.0
 11
14.43148500000001
 21
26.04965000000004
 31
0.0
  0
LINE
  5
4EC
330
6F
100
AcDbEntity
  8
0
 62
     0
100
AcDbLine
 10
252.5565750000001
 20
45.09955000000002
 30
0.0
 11
252.5565750000001
 21
31.10014999999999
 31
0.0
  0
LINE
  5
4ED
330
6F
100
AcDbEntity
  8
0
 62
     0
100
AcDbLine
 10
252.5565750000001
 20
31.10014999999999
 30
0.0
 11
255.531575
 21
31.10014999999999
 31
0.0
  0
LINE
  5
4EE
330
6F
100
AcDbEntity
  8
0
 62
     0
100
AcDbLine
 10
255.531575
 20
31.10014999999999
 30
0.0
 11
255.531575
 21
30.13004999999998
 31
0.0
  0
LINE
  5
4EF
330
6F
100
AcDbEntity
  8
0
 62
     0
100
AcDbLine
 10
255.531575
 20
30.13004999999998
 30
0.0
 11
258.8305749999999
 21
30.13004999999998
 31
0.0
  0
LINE
  5
4F0
330
6F
100
AcDbEntity
  8
0
 62
     0
100
AcDbLine
 10
258.8305749999999
 20
30.13004999999998
 30
0.0
 11
258.8305749999999
 21
31.10014999999999
 31
0.0
  0
LINE
  5
4F1
330
6F
100
AcDbEntity
  8
0
 62
     0
100
AcDbLine
 10
258.8305749999999
 20
31.10014999999999
 30
0.0
 11
276.0805749999999
 21
31.10014999999999
 31
0.0
  0
LINE
  5
4F2
330
6F
100
AcDbEntity
  8
0
 62
     0
100
AcDbLine
 10
276.0805749999999
 20
31.10014999999999
 30
0.0
 11
276.0805749999999
 21
40.39914999999996
 31
0.0
  0
LINE
  5
4F3
330
6F
100
AcDbEntity
  8
0
 62
     0
100
AcDbLine
 10
277.606575
 20
40.39914999999996
 30
0.0
 11
277.606575
 21
31.33034999999996
 31
0.0
  0
LINE
  5
4F4
330
6F
100
AcDbEntity
  8
0
 62
     0
100
AcDbLine
 10
277.606575
 20
31.33034999999996
 30
0.0
 11
278.750575
 21
31.33034999999996
 31
0.0
  0
LINE
  5
4F5
330
6F
100
AcDbEntity
  8
0
 62
     0
100
AcDbLine
 10
278.750575
 20
31.33034999999996
 30
0.0
 11
278.750575
 21
31.10014999999999
 31
0.0
  0
LINE
  5
4F6
330
6F
100
AcDbEntity
  8
0
 62
     0
100
AcDbLine
 10
278.750575
 20
31.10014999999999
 30
0.0
 11
279.330575
 21
31.10014999999999
 31
0.0
  0
LINE
  5
4F7
330
6F
100
AcDbEntity
  8
0
 62
     0
100
AcDbLine
 10
279.330575
 20
31.10014999999999
 30
0.0
 11
279.330575
 21
30.13004999999998
 31
0.0
  0
LINE
  5
4F8
330
6F
100
AcDbEntity
  8
0
 62
     0
100
AcDbLine
 10
279.330575
 20
30.13004999999998
 30
0.0
 11
282.630575
 21
30.13004999999998
 31
0.0
  0
LINE
  5
4F9
330
6F
100
AcDbEntity
  8
0
 62
     0
100
AcDbLine
 10
282.630575
 20
30.13004999999998
 30
0.0
 11
282.630575
 21
31.10014999999999
 31
0.0
  0
LINE
  5
4FA
330
6F
100
AcDbEntity
  8
0
 62
     0
100
AcDbLine
 10
282.630575
 20
31.10014999999999
 30
0.0
 11
292.7495750000001
 21
31.10014999999999
 31
0.0
  0
LINE
  5
4FB
330
6F
100
AcDbEntity
  8
0
 62
     0
100
AcDbLine
 10
292.7495750000001
 20
31.10014999999999
 30
0.0
 11
292.7495750000001
 21
45.09955000000002
 31
0.0
  0
LINE
  5
4FC
330
6F
100
AcDbEntity
  8
0
 62
     0
100
AcDbLine
 10
292.7495750000001
 20
45.09955000000002
 30
0.0
 11
278.750575
 21
45.09955000000002
 31
0.0
  0
LINE
  5
4FD
330
6F
100
AcDbEntity
  8
0
 62
     0
100
AcDbLine
 10
278.750575
 20
45.09955000000002
 30
0.0
 11
278.750575
 21
43.62934999999999
 31
0.0
  0
LINE
  5
4FE
330
6F
100
AcDbEntity
  8
0
 62
     0
100
AcDbLine
 10
278.750575
 20
43.62934999999999
 30
0.0
 11
277.606575
 21
43.62934999999999
 31
0.0
  0
LINE
  5
4FF
330
6F
100
AcDbEntity
  8
0
 62
     0
100
AcDbLine
 10
277.606575
 20
43.62934999999999
 30
0.0
 11
277.606575
 21
40.39914999999996
 31
0.0
  0
LINE
  5
500
330
6F
100
AcDbEntity
  8
0
 62
     0
100
AcDbLine
 10
276.0805749999999
 20
40.39914999999996
 30
0.0
 11
276.0805749999999
 21
45.09955000000002
 31
0.0
  0
LINE
  5
501
330
6F
100
AcDbEntity
  8
0
 62
     0
100
AcDbLine
 10
276.0805749999999
 20
45.09955000000002
 30
0.0
 11
252.5565750000001
 21
45.09955000000002
 31
0.0
  0
LINE
  5
502
330
6F
100
AcDbEntity
  8
0
 62
     0
100
AcDbLine
 10
14.43148500000001
 20
45.09955000000002
 30
0.0
 11
14.43148500000001
 21
31.10014999999999
 31
0.0
  0
LINE
  5
503
330
6F
100
AcDbEntity
  8
0
 62
     0
100
AcDbLine
 10
14.43148500000001
 20
31.10014999999999
 30
0.0
 11
17.40666500000003
 21
31.10014999999999
 31
0.0
  0
LINE
  5
504
330
6F
100
AcDbEntity
  8
0
 62
     0
100
AcDbLine
 10
17.40666500000003
 20
31.10014999999999
 30
0.0
 11
17.40666500000003
 21
30.13004999999998
 31
0.0
  0
LINE
  5
505
330
6F
100
AcDbEntity
  8
0
 62
     0
100
AcDbLine
 10
17.40666500000003
 20
30.13004999999998
 30
0.0
 11
20.70567500000004
 21
30.13004999999998
 31
0.0
  0
LINE
  5
506
330
6F
100
AcDbEntity
  8
0
 62
     0
100
AcDbLine
 10
20.70567500000004
 20
30.13004999999998
 30
0.0
 11
20.70567500000004
 21
31.10014999999999
 31
0.0
  0
LINE
  5
507
330
6F
100
AcDbEntity
  8
0
 62
     0
100
AcDbLine
 10
20.70567500000004
 20
31.10014999999999
 30
0.0
 11
41.205375
 21
31.10014999999999
 31
0.0
  0
LINE
  5
508
330
6F
100
AcDbEntity
  8
0
 62
     0
100
AcDbLine
 10
41.205375
 20
31.10014999999999
 30
0.0
 11
41.205375
 21
30.13004999999998
 31
0.0
  0
LINE
  5
509
330
6F
100
AcDbEntity
  8
0
 62
     0
100
AcDbLine
 10
41.205375
 20
30.13004999999998
 30
0.0
 11
44.50577500000003
 21
30.13004999999998
 31
0.0
  0
LINE
  5
50A
330
6F
100
AcDbEntity
  8
0
 62
     0
100
AcDbLine
 10
44.50577500000003
 20
30.13004999999998
 30
0.0
 11
44.50577500000003
 21
31.10014999999999
 31
0.0
  0
LINE
  5
50B
330
6F
100
AcDbEntity
  8
0
 62
     0
100
AcDbLine
 10
44.50577500000003
 20
31.10014999999999
 30
0.0
 11
49.862075
 21
31.10014999999999
 31
0.0
  0
LINE
  5
50C
330
6F
100
AcDbEntity
  8
0
 62
     0
100
AcDbLine
 10
49.862075
 20
31.10014999999999
 30
0.0
 11
49.862075
 21
45.09955000000002
 31
0.0
  0
LINE
  5
50D
330
6F
100
AcDbEntity
  8
0
 62
     0
100
AcDbLine
 10
49.862075
 20
45.09955000000002
 30
0.0
 11
14.43148500000001
 21
45.09955000000002
 31
0.0
  0
LINE
  5
50E
330
6F
100
AcDbEntity
  8
0
 62
     0
100
AcDbLine
 10
226.362575
 20
45.09955000000002
 30
0.0
 11
240.362575
 21
45.09955000000002
 31
0.0
  0
LINE
  5
50F
330
6F
100
AcDbEntity
  8
0
 62
     0
100
AcDbLine
 10
240.362575
 20
45.09955000000002
 30
0.0
 11
240.362575
 21
31.10014999999999
 31
0.0
  0
LINE
  5
510
330
6F
100
AcDbEntity
  8
0
 62
     0
100
AcDbLine
 10
240.362575
 20
31.10014999999999
 30
0.0
 11
226.362575
 21
31.10014999999999
 31
0.0
  0
LINE
  5
511
330
6F
100
AcDbEntity
  8
0
 62
     0
100
AcDbLine
 10
226.362575
 20
31.10014999999999
 30
0.0
 11
226.362575
 21
45.09955000000002
 31
0.0
  0
LINE
  5
512
330
6F
100
AcDbEntity
  8
0
 62
     0
100
AcDbLine
 10
207.312575
 20
45.09955000000002
 30
0.0
 11
221.3125750000001
 21
45.09955000000002
 31
0.0
  0
LINE
  5
513
330
6F
100
AcDbEntity
  8
0
 62
     0
100
AcDbLine
 10
221.3125750000001
 20
45.09955000000002
 30
0.0
 11
221.3125750000001
 21
31.10014999999999
 31
0.0
  0
LINE
  5
514
330
6F
100
AcDbEntity
  8
0
 62
     0
100
AcDbLine
 10
221.3125750000001
 20
31.10014999999999
 30
0.0
 11
207.312575
 21
31.10014999999999
 31
0.0
  0
LINE
  5
515
330
6F
100
AcDbEntity
  8
0
 62
     0
100
AcDbLine
 10
207.312575
 20
31.10014999999999
 30
0.0
 11
207.312575
 21
45.09955000000002
 31
0.0
  0
LINE
  5
516
330
6F
100
AcDbEntity
  8
0
 62
     0
100
AcDbLine
 10
188.2625749999999
 20
45.09955000000002
 30
0.0
 11
202.262575
 21
45.09955000000002
 31
0.0
  0
LINE
  5
517
330
6F
100
AcDbEntity
  8
0
 62
     0
100
AcDbLine
 10
202.262575
 20
45.09955000000002
 30
0.0
 11
202.262575
 21
31.10014999999999
 31
0.0
  0
LINE
  5
518
330
6F
100
AcDbEntity
  8
0
 62
     0
100
AcDbLine
 10
202.262575
 20
31.10014999999999
 30
0.0
 11
188.2625749999999
 21
31.10014999999999
 31
0.0
  0
LINE
  5
519
330
6F
100
AcDbEntity
  8
0
 62
     0
100
AcDbLine
 10
188.2625749999999
 20
31.10014999999999
 30
0.0
 11
188.2625749999999
 21
45.09955000000002
 31
0.0
  0
LINE
  5
51A
330
6F
100
AcDbEntity
  8
0
 62
     0
100
AcDbLine
 10
169.212575
 20
45.09955000000002
 30
0.0
 11
183.212575
 21
45.09955000000002
 31
0.0
  0
LINE
  5
51B
330
6F
100
AcDbEntity
  8
0
 62
     0
100
AcDbLine
 10
183.212575
 20
45.09955000000002
 30
0.0
 11
183.212575
 21
31.10014999999999
 31
0.0
  0
LINE
  5
51C
330
6F
100
AcDbEntity
  8
0
 62
     0
100
AcDbLine
 10
183.212575
 20
31.10014999999999
 30
0.0
 11
169.212575
 21
31.10014999999999
 31
0.0
  0
LINE
  5
51D
330
6F
100
AcDbEntity
  8
0
 62
     0
100
AcDbLine
 10
169.212575
 20
31.10014999999999
 30
0.0
 11
169.212575
 21
45.09955000000002
 31
0.0
  0
LINE
  5
51E
330
6F
100
AcDbEntity
  8
0
 62
     0
100
AcDbLine
 10
150.162575
 20
45.09955000000002
 30
0.0
 11
164.162575
 21
45.09955000000002
 31
0.0
  0
LINE
  5
51F
330
6F
100
AcDbEntity
  8
0
 62
     0
100
AcDbLine
 10
164.162575
 20
45.09955000000002
 30
0.0
 11
164.162575
 21
31.10014999999999
 31
0.0
  0
LINE
  5
520
330
6F
100
AcDbEntity
  8
0
 62
     0
100
AcDbLine
 10
164.162575
 20
31.10014999999999
 30
0.0
 11
150.162575
 21
31.10014999999999
 31
0.0
  0
LINE
  5
521
330
6F
100
AcDbEntity
  8
0
 62
     0
100
AcDbLine
 10
150.162575
 20
31.10014999999999
 30
0.0
 11
150.162575
 21
45.09955000000002
 31
0.0
  0
LINE
  5
522
330
6F
100
AcDbEntity
  8
0
 62
     0
100
AcDbLine
 10
131.112575
 20
45.09955000000002
 30
0.0
 11
145.112575
 21
45.09955000000002
 31
0.0
  0
LINE
  5
523
330
6F
100
AcDbEntity
  8
0
 62
     0
100
AcDbLine
 10
145.112575
 20
45.09955000000002
 30
0.0
 11
145.112575
 21
31.10014999999999
 31
0.0
  0
LINE
  5
524
330
6F
100
AcDbEntity
  8
0
 62
     0
100
AcDbLine
 10
145.112575
 20
31.10014999999999
 30
0.0
 11
131.112575
 21
31.10014999999999
 31
0.0
  0
LINE
  5
525
330
6F
100
AcDbEntity
  8
0
 62
     0
100
AcDbLine
 10
131.112575
 20
31.10014999999999
 30
0.0
 11
131.112575
 21
45.09955000000002
 31
0.0
  0
LINE
  5
526
330
6F
100
AcDbEntity
  8
0
 62
     0
100
AcDbLine
 10
112.062575
 20
45.09955000000002
 30
0.0
 11
126.062575
 21
45.09955000000002
 31
0.0
  0
LINE
  5
527
330
6F
100
AcDbEntity
  8
0
 62
     0
100
AcDbLine
 10
126.062575
 20
45.09955000000002
 30
0.0
 11
126.062575
 21
31.10014999999999
 31
0.0
  0
LINE
  5
528
330
6F
100
AcDbEntity
  8
0
 62
     0
100
AcDbLine
 10
126.062575
 20
31.10014999999999
 30
0.0
 11
112.062575
 21
31.10014999999999
 31
0.0
  0
LINE
  5
529
330
6F
100
AcDbEntity
  8
0
 62
     0
100
AcDbLine
 10
112.062575
 20
31.10014999999999
 30
0.0
 11
112.062575
 21
45.09955000000002
 31
0.0
  0
LINE
  5
52A
330
6F
100
AcDbEntity
  8
0
 62
     0
100
AcDbLine
 10
93.01277500000002
 20
45.09955000000002
 30
0.0
 11
107.012075
 21
45.09955000000002
 31
0.0
  0
LINE
  5
52B
330
6F
100
AcDbEntity
  8
0
 62
     0
100
AcDbLine
 10
107.012075
 20
45.09955000000002
 30
0.0
 11
107.012075
 21
31.10014999999999
 31
0.0
  0
LINE
  5
52C
330
6F
100
AcDbEntity
  8
0
 62
     0
100
AcDbLine
 10
107.012075
 20
31.10014999999999
 30
0.0
 11
93.01277500000002
 21
31.10014999999999
 31
0.0
  0
LINE
  5
52D
330
6F
100
AcDbEntity
  8
0
 62
     0
100
AcDbLine
 10
93.01277500000002
 20
31.10014999999999
 30
0.0
 11
93.01277500000002
 21
45.09955000000002
 31
0.0
  0
LINE
  5
52E
330
6F
100
AcDbEntity
  8
0
 62
     0
100
AcDbLine
 10
73.96277499999996
 20
45.09955000000002
 30
0.0
 11
87.96207500000003
 21
45.09955000000002
 31
0.0
  0
LINE
  5
52F
330
6F
100
AcDbEntity
  8
0
 62
     0
100
AcDbLine
 10
87.96207500000003
 20
45.09955000000002
 30
0.0
 11
87.96207500000003
 21
31.10014999999999
 31
0.0
  0
LINE
  5
530
330
6F
100
AcDbEntity
  8
0
 62
     0
100
AcDbLine
 10
87.96207500000003
 20
31.10014999999999
 30
0.0
 11
73.96277499999996
 21
31.10014999999999
 31
0.0
  0
LINE
  5
531
330
6F
100
AcDbEntity
  8
0
 62
     0
100
AcDbLine
 10
73.96277499999996
 20
31.10014999999999
 30
0.0
 11
73.96277499999996
 21
45.09955000000002
 31
0.0
  0
LINE
  5
532
330
6F
100
AcDbEntity
  8
0
 62
     0
100
AcDbLine
 10
54.91277500000001
 20
45.09955000000002
 30
0.0
 11
68.91207499999996
 21
45.09955000000002
 31
0.0
  0
LINE
  5
533
330
6F
100
AcDbEntity
  8
0
 62
     0
100
AcDbLine
 10
68.91207499999996
 20
45.09955000000002
 30
0.0
 11
68.91207499999996
 21
31.10014999999999
 31
0.0
  0
LINE
  5
534
330
6F
100
AcDbEntity
  8
0
 62
     0
100
AcDbLine
 10
68.91207499999996
 20
31.10014999999999
 30
0.0
 11
54.91277500000001
 21
31.10014999999999
 31
0.0
  0
LINE
  5
535
330
6F
100
AcDbEntity
  8
0
 62
     0
100
AcDbLine
 10
54.91277500000001
 20
31.10014999999999
 30
0.0
 11
54.91277500000001
 21
45.09955000000002
 31
0.0
  0
LINE
  5
536
330
6F
100
AcDbEntity
  8
0
 62
     0
100
AcDbLine
 10
273.987575
 20
83.19964999999996
 30
0.0
 11
273.987575
 21
69.20034999999995
 31
0.0
  0
LINE
  5
537
330
6F
100
AcDbEntity
  8
0
 62
     0
100
AcDbLine
 10
273.987575
 20
69.20034999999995
 30
0.0
 11
276.367575
 21
69.20034999999995
 31
0.0
  0
LINE
  5
538
330
6F
100
AcDbEntity
  8
0
 62
     0
100
AcDbLine
 10
276.367575
 20
69.20034999999995
 30
0.0
 11
276.367575
 21
64.14965000000001
 31
0.0
  0
LINE
  5
539
330
6F
100
AcDbEntity
  8
0
 62
     0
100
AcDbLine
 10
276.367575
 20
64.14965000000001
 30
0.0
 11
254.937575
 21
64.14965000000001
 31
0.0
  0
LINE
  5
53A
330
6F
100
AcDbEntity
  8
0
 62
     0
100
AcDbLine
 10
254.937575
 20
64.14965000000001
 30
0.0
 11
254.937575
 21
50.15035000000001
 31
0.0
  0
LINE
  5
53B
330
6F
100
AcDbEntity
  8
0
 62
     0
100
AcDbLine
 10
254.937575
 20
50.15035000000001
 30
0.0
 11
260.2925749999999
 21
50.15035000000001
 31
0.0
  0
LINE
  5
53C
330
6F
100
AcDbEntity
  8
0
 62
     0
100
AcDbLine
 10
260.2925749999999
 20
50.15035000000001
 30
0.0
 11
260.2925749999999
 21
49.18015000000003
 31
0.0
  0
LINE
  5
53D
330
6F
100
AcDbEntity
  8
0
 62
     0
100
AcDbLine
 10
260.2925749999999
 20
49.18015000000003
 30
0.0
 11
263.5915749999999
 21
49.18015000000003
 31
0.0
  0
LINE
  5
53E
330
6F
100
AcDbEntity
  8
0
 62
     0
100
AcDbLine
 10
263.5915749999999
 20
49.18015000000003
 30
0.0
 11
263.5915749999999
 21
50.15035000000001
 31
0.0
  0
LINE
  5
53F
330
6F
100
AcDbEntity
  8
0
 62
     0
100
AcDbLine
 10
263.5915749999999
 20
50.15035000000001
 30
0.0
 11
280.8435750000001
 21
50.15035000000001
 31
0.0
  0
LINE
  5
540
330
6F
100
AcDbEntity
  8
0
 62
     0
100
AcDbLine
 10
280.8435750000001
 20
50.15035000000001
 30
0.0
 11
280.8435750000001
 21
51.40024999999997
 31
0.0
  0
LINE
  5
541
330
6F
100
AcDbEntity
  8
0
 62
     0
100
AcDbLine
 10
280.8435750000001
 20
51.40024999999997
 30
0.0
 11
282.3675750000001
 21
51.40024999999997
 31
0.0
  0
LINE
  5
542
330
6F
100
AcDbEntity
  8
0
 62
     0
100
AcDbLine
 10
282.3675750000001
 20
51.40024999999997
 30
0.0
 11
282.3675750000001
 21
50.38035000000002
 31
0.0
  0
LINE
  5
543
330
6F
100
AcDbEntity
  8
0
 62
     0
100
AcDbLine
 10
282.3675750000001
 20
50.38035000000002
 30
0.0
 11
284.0925750000001
 21
50.38035000000002
 31
0.0
  0
LINE
  5
544
330
6F
100
AcDbEntity
  8
0
 62
     0
100
AcDbLine
 10
284.0925750000001
 20
50.38035000000002
 30
0.0
 11
284.0925750000001
 21
49.18015000000003
 31
0.0
  0
LINE
  5
545
330
6F
100
AcDbEntity
  8
0
 62
     0
100
AcDbLine
 10
284.0925750000001
 20
49.18015000000003
 30
0.0
 11
287.3935750000001
 21
49.18015000000003
 31
0.0
  0
LINE
  5
546
330
6F
100
AcDbEntity
  8
0
 62
     0
100
AcDbLine
 10
287.3935750000001
 20
49.18015000000003
 30
0.0
 11
287.3935750000001
 21
50.38035000000002
 31
0.0
  0
LINE
  5
547
330
6F
100
AcDbEntity
  8
0
 62
     0
100
AcDbLine
 10
287.3935750000001
 20
50.38035000000002
 30
0.0
 11
289.1185749999999
 21
50.38035000000002
 31
0.0
  0
LINE
  5
548
330
6F
100
AcDbEntity
  8
0
 62
     0
100
AcDbLine
 10
289.1185749999999
 20
50.38035000000002
 30
0.0
 11
289.1185749999999
 21
56.65024999999997
 31
0.0
  0
LINE
  5
549
330
6F
100
AcDbEntity
  8
0
 62
     0
100
AcDbLine
 10
289.1185749999999
 20
56.65024999999997
 30
0.0
 11
289.942575
 21
56.65024999999997
 31
0.0
  0
LINE
  5
54A
330
6F
100
AcDbEntity
  8
0
 62
     0
100
AcDbLine
 10
289.942575
 20
56.65024999999997
 30
0.0
 11
289.942575
 21
59.44914999999998
 31
0.0
  0
LINE
  5
54B
330
6F
100
AcDbEntity
  8
0
 62
     0
100
AcDbLine
 10
289.942575
 20
59.44914999999998
 30
0.0
 11
289.1185749999999
 21
59.44914999999998
 31
0.0
  0
LINE
  5
54C
330
6F
100
AcDbEntity
  8
0
 62
     0
100
AcDbLine
 10
289.1185749999999
 20
59.44914999999998
 30
0.0
 11
289.1185749999999
 21
59.67534999999998
 31
0.0
  0
LINE
  5
54D
330
6F
100
AcDbEntity
  8
0
 62
     0
100
AcDbLine
 10
289.1185749999999
 20
59.67534999999998
 30
0.0
 11
290.368575
 21
59.67534999999998
 31
0.0
  0
LINE
  5
54E
330
6F
100
AcDbEntity
  8
0
 62
     0
100
AcDbLine
 10
290.368575
 20
59.67534999999998
 30
0.0
 11
290.368575
 21
73.67464999999999
 31
0.0
  0
LINE
  5
54F
330
6F
100
AcDbEntity
  8
0
 62
     0
100
AcDbLine
 10
290.368575
 20
73.67464999999999
 30
0.0
 11
287.987575
 21
73.67464999999999
 31
0.0
  0
LINE
  5
550
330
6F
100
AcDbEntity
  8
0
 62
     0
100
AcDbLine
 10
287.987575
 20
73.67464999999999
 30
0.0
 11
287.987575
 21
75.20004999999997
 31
0.0
  0
LINE
  5
551
330
6F
100
AcDbEntity
  8
0
 62
     0
100
AcDbLine
 10
287.987575
 20
75.20004999999997
 30
0.0
 11
288.897575
 21
75.20004999999997
 31
0.0
  0
LINE
  5
552
330
6F
100
AcDbEntity
  8
0
 62
     0
100
AcDbLine
 10
288.897575
 20
75.20004999999997
 30
0.0
 11
288.897575
 21
81.94974999999999
 31
0.0
  0
LINE
  5
553
330
6F
100
AcDbEntity
  8
0
 62
     0
100
AcDbLine
 10
288.897575
 20
81.94974999999999
 30
0.0
 11
287.987575
 21
81.94974999999999
 31
0.0
  0
LINE
  5
554
330
6F
100
AcDbEntity
  8
0
 62
     0
100
AcDbLine
 10
287.987575
 20
81.94974999999999
 30
0.0
 11
287.987575
 21
83.19964999999996
 31
0.0
  0
LINE
  5
555
330
6F
100
AcDbEntity
  8
0
 62
     0
100
AcDbLine
 10
287.987575
 20
83.19964999999996
 30
0.0
 11
273.987575
 21
83.19964999999996
 31
0.0
  0
LINE
  5
556
330
6F
100
AcDbEntity
  8
0
 62
     0
100
AcDbLine
 10
235.887575
 20
64.14965000000001
 30
0.0
 11
249.887575
 21
64.14965000000001
 31
0.0
  0
LINE
  5
557
330
6F
100
AcDbEntity
  8
0
 62
     0
100
AcDbLine
 10
249.887575
 20
64.14965000000001
 30
0.0
 11
249.887575
 21
50.15035000000001
 31
0.0
  0
LINE
  5
558
330
6F
100
AcDbEntity
  8
0
 62
     0
100
AcDbLine
 10
249.887575
 20
50.15035000000001
 30
0.0
 11
235.887575
 21
50.15035000000001
 31
0.0
  0
LINE
  5
559
330
6F
100
AcDbEntity
  8
0
 62
     0
100
AcDbLine
 10
235.887575
 20
50.15035000000001
 30
0.0
 11
235.887575
 21
64.14965000000001
 31
0.0
  0
LINE
  5
55A
330
6F
100
AcDbEntity
  8
0
 62
     0
100
AcDbLine
 10
216.837575
 20
64.14965000000001
 30
0.0
 11
230.837575
 21
64.14965000000001
 31
0.0
  0
LINE
  5
55B
330
6F
100
AcDbEntity
  8
0
 62
     0
100
AcDbLine
 10
230.837575
 20
64.14965000000001
 30
0.0
 11
230.837575
 21
50.15035000000001
 31
0.0
  0
LINE
  5
55C
330
6F
100
AcDbEntity
  8
0
 62
     0
100
AcDbLine
 10
230.837575
 20
50.15035000000001
 30
0.0
 11
216.837575
 21
50.15035000000001
 31
0.0
  0
LINE
  5
55D
330
6F
100
AcDbEntity
  8
0
 62
     0
100
AcDbLine
 10
216.837575
 20
50.15035000000001
 30
0.0
 11
216.837575
 21
64.14965000000001
 31
0.0
  0
LINE
  5
55E
330
6F
100
AcDbEntity
  8
0
 62
     0
100
AcDbLine
 10
197.787575
 20
64.14965000000001
 30
0.0
 11
211.787575
 21
64.14965000000001
 31
0.0
  0
LINE
  5
55F
330
6F
100
AcDbEntity
  8
0
 62
     0
100
AcDbLine
 10
211.787575
 20
64.14965000000001
 30
0.0
 11
211.787575
 21
50.15035000000001
 31
0.0
  0
LINE
  5
560
330
6F
100
AcDbEntity
  8
0
 62
     0
100
AcDbLine
 10
211.787575
 20
50.15035000000001
 30
0.0
 11
197.787575
 21
50.15035000000001
 31
0.0
  0
LINE
  5
561
330
6F
100
AcDbEntity
  8
0
 62
     0
100
AcDbLine
 10
197.787575
 20
50.15035000000001
 30
0.0
 11
197.787575
 21
64.14965000000001
 31
0.0
  0
LINE
  5
562
330
6F
100
AcDbEntity
  8
0
 62
     0
100
AcDbLine
 10
178.737575
 20
64.14965000000001
 30
0.0
 11
192.737575
 21
64.14965000000001
 31
0.0
  0
LINE
  5
563
330
6F
100
AcDbEntity
  8
0
 62
     0
100
AcDbLine
 10
192.737575
 20
64.14965000000001
 30
0.0
 11
192.737575
 21
50.15035000000001
 31
0.0
  0
LINE
  5
564
330
6F
100
AcDbEntity
  8
0
 62
     0
100
AcDbLine
 10
192.737575
 20
50.15035000000001
 30
0.0
 11
178.737575
 21
50.15035000000001
 31
0.0
  0
LINE
  5
565
330
6F
100
AcDbEntity
  8
0
 62
     0
100
AcDbLine
 10
178.737575
 20
50.15035000000001
 30
0.0
 11
178.737575
 21
64.14965000000001
 31
0.0
  0
LINE
  5
566
330
6F
100
AcDbEntity
  8
0
 62
     0
100
AcDbLine
 10
159.687575
 20
64.14965000000001
 30
0.0
 11
173.687575
 21
64.14965000000001
 31
0.0
  0
LINE
  5
567
330
6F
100
AcDbEntity
  8
0
 62
     0
100
AcDbLine
 10
173.687575
 20
64.14965000000001
 30
0.0
 11
173.687575
 21
50.15035000000001
 31
0.0
  0
LINE
  5
568
330
6F
100
AcDbEntity
  8
0
 62
     0
100
AcDbLine
 10
173.687575
 20
50.15035000000001
 30
0.0
 11
159.687575
 21
50.15035000000001
 31
0.0
  0
LINE
  5
569
330
6F
100
AcDbEntity
  8
0
 62
     0
100
AcDbLine
 10
159.687575
 20
50.15035000000001
 30
0.0
 11
159.687575
 21
64.14965000000001
 31
0.0
  0
LINE
  5
56A
330
6F
100
AcDbEntity
  8
0
 62
     0
100
AcDbLine
 10
140.637575
 20
64.14965000000001
 30
0.0
 11
154.6375749999999
 21
64.14965000000001
 31
0.0
  0
LINE
  5
56B
330
6F
100
AcDbEntity
  8
0
 62
     0
100
AcDbLine
 10
154.6375749999999
 20
64.14965000000001
 30
0.0
 11
154.6375749999999
 21
50.15035000000001
 31
0.0
  0
LINE
  5
56C
330
6F
100
AcDbEntity
  8
0
 62
     0
100
AcDbLine
 10
154.6375749999999
 20
50.15035000000001
 30
0.0
 11
140.637575
 21
50.15035000000001
 31
0.0
  0
LINE
  5
56D
330
6F
100
AcDbEntity
  8
0
 62
     0
100
AcDbLine
 10
140.637575
 20
50.15035000000001
 30
0.0
 11
140.637575
 21
64.14965000000001
 31
0.0
  0
LINE
  5
56E
330
6F
100
AcDbEntity
  8
0
 62
     0
100
AcDbLine
 10
121.587575
 20
64.14965000000001
 30
0.0
 11
135.587575
 21
64.14965000000001
 31
0.0
  0
LINE
  5
56F
330
6F
100
AcDbEntity
  8
0
 62
     0
100
AcDbLine
 10
135.587575
 20
64.14965000000001
 30
0.0
 11
135.587575
 21
50.15035000000001
 31
0.0
  0
LINE
  5
570
330
6F
100
AcDbEntity
  8
0
 62
     0
100
AcDbLine
 10
135.587575
 20
50.15035000000001
 30
0.0
 11
121.587575
 21
50.15035000000001
 31
0.0
  0
LINE
  5
571
330
6F
100
AcDbEntity
  8
0
 62
     0
100
AcDbLine
 10
121.587575
 20
50.15035000000001
 30
0.0
 11
121.587575
 21
64.14965000000001
 31
0.0
  0
LINE
  5
572
330
6F
100
AcDbEntity
  8
0
 62
     0
100
AcDbLine
 10
102.537775
 20
64.14965000000001
 30
0.0
 11
116.537575
 21
64.14965000000001
 31
0.0
  0
LINE
  5
573
330
6F
100
AcDbEntity
  8
0
 62
     0
100
AcDbLine
 10
116.537575
 20
64.14965000000001
 30
0.0
 11
116.537575
 21
50.15035000000001
 31
0.0
  0
LINE
  5
574
330
6F
100
AcDbEntity
  8
0
 62
     0
100
AcDbLine
 10
116.537575
 20
50.15035000000001
 30
0.0
 11
102.537775
 21
50.15035000000001
 31
0.0
  0
LINE
  5
575
330
6F
100
AcDbEntity
  8
0
 62
     0
100
AcDbLine
 10
102.537775
 20
50.15035000000001
 30
0.0
 11
102.537775
 21
64.14965000000001
 31
0.0
  0
LINE
  5
576
330
6F
100
AcDbEntity
  8
0
 62
     0
100
AcDbLine
 10
83.48777500000005
 20
64.14965000000001
 30
0.0
 11
97.48707500000001
 21
64.14965000000001
 31
0.0
  0
LINE
  5
577
330
6F
100
AcDbEntity
  8
0
 62
     0
100
AcDbLine
 10
97.48707500000001
 20
64.14965000000001
 30
0.0
 11
97.48707500000001
 21
50.15035000000001
 31
0.0
  0
LINE
  5
578
330
6F
100
AcDbEntity
  8
0
 62
     0
100
AcDbLine
 10
97.48707500000001
 20
50.15035000000001
 30
0.0
 11
83.48777500000005
 21
50.15035000000001
 31
0.0
  0
LINE
  5
579
330
6F
100
AcDbEntity
  8
0
 62
     0
100
AcDbLine
 10
83.48777500000005
 20
50.15035000000001
 30
0.0
 11
83.48777500000005
 21
64.14965000000001
 31
0.0
  0
LINE
  5
57A
330
6F
100
AcDbEntity
  8
0
 62
     0
100
AcDbLine
 10
64.43777499999999
 20
64.14965000000001
 30
0.0
 11
78.43707500000005
 21
64.14965000000001
 31
0.0
  0
LINE
  5
57B
330
6F
100
AcDbEntity
  8
0
 62
     0
100
AcDbLine
 10
78.43707500000005
 20
64.14965000000001
 30
0.0
 11
78.43707500000005
 21
50.15035000000001
 31
0.0
  0
LINE
  5
57C
330
6F
100
AcDbEntity
  8
0
 62
     0
100
AcDbLine
 10
78.43707500000005
 20
50.15035000000001
 30
0.0
 11
64.43777499999999
 21
50.15035000000001
 31
0.0
  0
LINE
  5
57D
330
6F
100
AcDbEntity
  8
0
 62
     0
100
AcDbLine
 10
64.43777499999999
 20
50.15035000000001
 30
0.0
 11
64.43777499999999
 21
64.14965000000001
 31
0.0
  0
LINE
  5
57E
330
6F
100
AcDbEntity
  8
0
 62
     0
100
AcDbLine
 10
45.38777500000003
 20
64.14965000000001
 30
0.0
 11
59.38707499999998
 21
64.14965000000001
 31
0.0
  0
LINE
  5
57F
330
6F
100
AcDbEntity
  8
0
 62
     0
100
AcDbLine
 10
59.38707499999998
 20
64.14965000000001
 30
0.0
 11
59.38707499999998
 21
50.15035000000001
 31
0.0
  0
LINE
  5
580
330
6F
100
AcDbEntity
  8
0
 62
     0
100
AcDbLine
 10
59.38707499999998
 20
50.15035000000001
 30
0.0
 11
45.38777500000003
 21
50.15035000000001
 31
0.0
  0
LINE
  5
581
330
6F
100
AcDbEntity
  8
0
 62
     0
100
AcDbLine
 10
45.38777500000003
 20
50.15035000000001
 30
0.0
 11
45.38777500000003
 21
64.14965000000001
 31
0.0
  0
LINE
  5
582
330
6F
100
AcDbEntity
  8
0
 62
     0
100
AcDbLine
 10
14.43148500000001
 20
64.14965000000001
 30
0.0
 11
33.19347500000004
 21
64.14965000000001
 31
0.0
  0
LINE
  5
583
330
6F
100
AcDbEntity
  8
0
 62
     0
100
AcDbLine
 10
33.19347500000004
 20
64.14965000000001
 30
0.0
 11
33.19347500000004
 21
50.15035000000001
 31
0.0
  0
LINE
  5
584
330
6F
100
AcDbEntity
  8
0
 62
     0
100
AcDbLine
 10
33.19347500000004
 20
50.15035000000001
 30
0.0
 11
14.43148500000001
 21
50.15035000000001
 31
0.0
  0
LINE
  5
585
330
6F
100
AcDbEntity
  8
0
 62
     0
100
AcDbLine
 10
14.43148500000001
 20
50.15035000000001
 30
0.0
 11
14.43148500000001
 21
64.14965000000001
 31
0.0
  0
LINE
  5
586
330
6F
100
AcDbEntity
  8
0
 62
     0
100
AcDbLine
 10
250.175575
 20
83.19964999999996
 30
0.0
 11
264.174575
 21
83.19964999999996
 31
0.0
  0
LINE
  5
587
330
6F
100
AcDbEntity
  8
0
 62
     0
100
AcDbLine
 10
264.174575
 20
83.19964999999996
 30
0.0
 11
264.174575
 21
69.20034999999995
 31
0.0
  0
LINE
  5
588
330
6F
100
AcDbEntity
  8
0
 62
     0
100
AcDbLine
 10
264.174575
 20
69.20034999999995
 30
0.0
 11
250.175575
 21
69.20034999999995
 31
0.0
  0
LINE
  5
589
330
6F
100
AcDbEntity
  8
0
 62
     0
100
AcDbLine
 10
250.175575
 20
69.20034999999995
 30
0.0
 11
250.175575
 21
83.19964999999996
 31
0.0
  0
LINE
  5
58A
330
6F
100
AcDbEntity
  8
0
 62
     0
100
AcDbLine
 10
231.125575
 20
83.19964999999996
 30
0.0
 11
245.124575
 21
83.19964999999996
 31
0.0
  0
LINE
  5
58B
330
6F
100
AcDbEntity
  8
0
 62
     0
100
AcDbLine
 10
245.124575
 20
83.19964999999996
 30
0.0
 11
245.124575
 21
69.20034999999995
 31
0.0
  0
LINE
  5
58C
330
6F
100
AcDbEntity
  8
0
 62
     0
100
AcDbLine
 10
245.124575
 20
69.20034999999995
 30
0.0
 11
231.125575
 21
69.20034999999995
 31
0.0
  0
LINE
  5
58D
330
6F
100
AcDbEntity
  8
0
 62
     0
100
AcDbLine
 10
231.125575
 20
69.20034999999995
 30
0.0
 11
231.125575
 21
83.19964999999996
 31
0.0
  0
LINE
  5
58E
330
6F
100
AcDbEntity
  8
0
 62
     0
100
AcDbLine
 10
212.075575
 20
83.19964999999996
 30
0.0
 11
226.074575
 21
83.19964999999996
 31
0.0
  0
LINE
  5
58F
330
6F
100
AcDbEntity
  8
0
 62
     0
100
AcDbLine
 10
226.074575
 20
83.19964999999996
 30
0.0
 11
226.074575
 21
69.20034999999995
 31
0.0
  0
LINE
  5
590
330
6F
100
AcDbEntity
  8
0
 62
     0
100
AcDbLine
 10
226.074575
 20
69.20034999999995
 30
0.0
 11
212.075575
 21
69.20034999999995
 31
0.0
  0
LINE
  5
591
330
6F
100
AcDbEntity
  8
0
 62
     0
100
AcDbLine
 10
212.075575
 20
69.20034999999995
 30
0.0
 11
212.075575
 21
83.19964999999996
 31
0.0
  0
LINE
  5
592
330
6F
100
AcDbEntity
  8
0
 62
     0
100
AcDbLine
 10
193.025575
 20
83.19964999999996
 30
0.0
 11
207.024575
 21
83.19964999999996
 31
0.0
  0
LINE
  5
593
330
6F
100
AcDbEntity
  8
0
 62
     0
100
AcDbLine
 10
207.024575
 20
83.19964999999996
 30
0.0
 11
207.024575
 21
69.20034999999995
 31
0.0
  0
LINE
  5
594
330
6F
100
AcDbEntity
  8
0
 62
     0
100
AcDbLine
 10
207.024575
 20
69.20034999999995
 30
0.0
 11
193.025575
 21
69.20034999999995
 31
0.0
  0
LINE
  5
595
330
6F
100
AcDbEntity
  8
0
 62
     0
100
AcDbLine
 10
193.025575
 20
69.20034999999995
 30
0.0
 11
193.025575
 21
83.19964999999996
 31
0.0
  0
LINE
  5
596
330
6F
100
AcDbEntity
  8
0
 62
     0
100
AcDbLine
 10
173.9755749999999
 20
83.19964999999996
 30
0.0
 11
187.9745749999999
 21
83.19964999999996
 31
0.0
  0
LINE
  5
597
330
6F
100
AcDbEntity
  8
0
 62
     0
100
AcDbLine
 10
187.9745749999999
 20
83.19964999999996
 30
0.0
 11
187.9745749999999
 21
69.20034999999995
 31
0.0
  0
LINE
  5
598
330
6F
100
AcDbEntity
  8
0
 62
     0
100
AcDbLine
 10
187.9745749999999
 20
69.20034999999995
 30
0.0
 11
173.9755749999999
 21
69.20034999999995
 31
0.0
  0
LINE
  5
599
330
6F
100
AcDbEntity
  8
0
 62
     0
100
AcDbLine
 10
173.9755749999999
 20
69.20034999999995
 30
0.0
 11
173.9755749999999
 21
83.19964999999996
 31
0.0
  0
LINE
  5
59A
330
6F
100
AcDbEntity
  8
0
 62
     0
100
AcDbLine
 10
154.925575
 20
83.19964999999996
 30
0.0
 11
168.924575
 21
83.19964999999996
 31
0.0
  0
LINE
  5
59B
330
6F
100
AcDbEntity
  8
0
 62
     0
100
AcDbLine
 10
168.924575
 20
83.19964999999996
 30
0.0
 11
168.924575
 21
69.20034999999995
 31
0.0
  0
LINE
  5
59C
330
6F
100
AcDbEntity
  8
0
 62
     0
100
AcDbLine
 10
168.924575
 20
69.20034999999995
 30
0.0
 11
154.925575
 21
69.20034999999995
 31
0.0
  0
LINE
  5
59D
330
6F
100
AcDbEntity
  8
0
 62
     0
100
AcDbLine
 10
154.925575
 20
69.20034999999995
 30
0.0
 11
154.925575
 21
83.19964999999996
 31
0.0
  0
LINE
  5
59E
330
6F
100
AcDbEntity
  8
0
 62
     0
100
AcDbLine
 10
135.875575
 20
83.19964999999996
 30
0.0
 11
149.874575
 21
83.19964999999996
 31
0.0
  0
LINE
  5
59F
330
6F
100
AcDbEntity
  8
0
 62
     0
100
AcDbLine
 10
149.874575
 20
83.19964999999996
 30
0.0
 11
149.874575
 21
69.20034999999995
 31
0.0
  0
LINE
  5
5A0
330
6F
100
AcDbEntity
  8
0
 62
     0
100
AcDbLine
 10
149.874575
 20
69.20034999999995
 30
0.0
 11
135.875575
 21
69.20034999999995
 31
0.0
  0
LINE
  5
5A1
330
6F
100
AcDbEntity
  8
0
 62
     0
100
AcDbLine
 10
135.875575
 20
69.20034999999995
 30
0.0
 11
135.875575
 21
83.19964999999996
 31
0.0
  0
LINE
  5
5A2
330
6F
100
AcDbEntity
  8
0
 62
     0
100
AcDbLine
 10
116.8255749999999
 20
83.19964999999996
 30
0.0
 11
130.8245749999999
 21
83.19964999999996
 31
0.0
  0
LINE
  5
5A3
330
6F
100
AcDbEntity
  8
0
 62
     0
100
AcDbLine
 10
130.8245749999999
 20
83.19964999999996
 30
0.0
 11
130.8245749999999
 21
69.20034999999995
 31
0.0
  0
LINE
  5
5A4
330
6F
100
AcDbEntity
  8
0
 62
     0
100
AcDbLine
 10
130.8245749999999
 20
69.20034999999995
 30
0.0
 11
116.8255749999999
 21
69.20034999999995
 31
0.0
  0
LINE
  5
5A5
330
6F
100
AcDbEntity
  8
0
 62
     0
100
AcDbLine
 10
116.8255749999999
 20
69.20034999999995
 30
0.0
 11
116.8255749999999
 21
83.19964999999996
 31
0.0
  0
LINE
  5
5A6
330
6F
100
AcDbEntity
  8
0
 62
     0
100
AcDbLine
 10
97.77527499999997
 20
83.19964999999996
 30
0.0
 11
111.774575
 21
83.19964999999996
 31
0.0
  0
LINE
  5
5A7
330
6F
100
AcDbEntity
  8
0
 62
     0
100
AcDbLine
 10
111.774575
 20
83.19964999999996
 30
0.0
 11
111.774575
 21
69.20034999999995
 31
0.0
  0
LINE
  5
5A8
330
6F
100
AcDbEntity
  8
0
 62
     0
100
AcDbLine
 10
111.774575
 20
69.20034999999995
 30
0.0
 11
97.77527499999997
 21
69.20034999999995
 31
0.0
  0
LINE
  5
5A9
330
6F
100
AcDbEntity
  8
0
 62
     0
100
AcDbLine
 10
97.77527499999997
 20
69.20034999999995
 30
0.0
 11
97.77527499999997
 21
83.19964999999996
 31
0.0
  0
LINE
  5
5AA
330
6F
100
AcDbEntity
  8
0
 62
     0
100
AcDbLine
 10
78.72527500000001
 20
83.19964999999996
 30
0.0
 11
92.72457499999996
 21
83.19964999999996
 31
0.0
  0
LINE
  5
5AB
330
6F
100
AcDbEntity
  8
0
 62
     0
100
AcDbLine
 10
92.72457499999996
 20
83.19964999999996
 30
0.0
 11
92.72457499999996
 21
69.20034999999995
 31
0.0
  0
LINE
  5
5AC
330
6F
100
AcDbEntity
  8
0
 62
     0
100
AcDbLine
 10
92.72457499999996
 20
69.20034999999995
 30
0.0
 11
78.72527500000001
 21
69.20034999999995
 31
0.0
  0
LINE
  5
5AD
330
6F
100
AcDbEntity
  8
0
 62
     0
100
AcDbLine
 10
78.72527500000001
 20
69.20034999999995
 30
0.0
 11
78.72527500000001
 21
83.19964999999996
 31
0.0
  0
LINE
  5
5AE
330
6F
100
AcDbEntity
  8
0
 62
     0
100
AcDbLine
 10
59.675275
 20
83.19964999999996
 30
0.0
 11
73.674575
 21
83.19964999999996
 31
0.0
  0
LINE
  5
5AF
330
6F
100
AcDbEntity
  8
0
 62
     0
100
AcDbLine
 10
73.674575
 20
83.19964999999996
 30
0.0
 11
73.674575
 21
69.20034999999995
 31
0.0
  0
LINE
  5
5B0
330
6F
100
AcDbEntity
  8
0
 62
     0
100
AcDbLine
 10
73.674575
 20
69.20034999999995
 30
0.0
 11
59.675275
 21
69.20034999999995
 31
0.0
  0
LINE
  5
5B1
330
6F
100
AcDbEntity
  8
0
 62
     0
100
AcDbLine
 10
59.675275
 20
69.20034999999995
 30
0.0
 11
59.675275
 21
83.19964999999996
 31
0.0
  0
LINE
  5
5B2
330
6F
100
AcDbEntity
  8
0
 62
     0
100
AcDbLine
 10
40.62527499999998
 20
83.19964999999996
 30
0.0
 11
54.62457499999999
 21
83.19964999999996
 31
0.0
  0
LINE
  5
5B3
330
6F
100
AcDbEntity
  8
0
 62
     0
100
AcDbLine
 10
54.62457499999999
 20
83.19964999999996
 30
0.0
 11
54.62457499999999
 21
69.20034999999995
 31
0.0
  0
LINE
  5
5B4
330
6F
100
AcDbEntity
  8
0
 62
     0
100
AcDbLine
 10
54.62457499999999
 20
69.20034999999995
 30
0.0
 11
40.62527499999998
 21
69.20034999999995
 31
0.0
  0
LINE
  5
5B5
330
6F
100
AcDbEntity
  8
0
 62
     0
100
AcDbLine
 10
40.62527499999998
 20
69.20034999999995
 30
0.0
 11
40.62527499999998
 21
83.19964999999996
 31
0.0
  0
LINE
  5
5B6
330
6F
100
AcDbEntity
  8
0
 62
     0
100
AcDbLine
 10
16.81273500000003
 20
83.19964999999996
 30
0.0
 11
30.812275
 21
83.19964999999996
 31
0.0
  0
LINE
  5
5B7
330
6F
100
AcDbEntity
  8
0
 62
     0
100
AcDbLine
 10
30.812275
 20
83.19964999999996
 30
0.0
 11
30.812275
 21
69.20034999999995
 31
0.0
  0
LINE
  5
5B8
330
6F
100
AcDbEntity
  8
0
 62
     0
100
AcDbLine
 10
30.812275
 20
69.20034999999995
 30
0.0
 11
16.81273500000003
 21
69.20034999999995
 31
0.0
  0
LINE
  5
5B9
330
6F
100
AcDbEntity
  8
0
 62
     0
100
AcDbLine
 10
16.81273500000003
 20
69.20034999999995
 30
0.0
 11
16.81273500000003
 21
83.19964999999996
 31
0.0
  0
LINE
  5
5BA
330
6F
100
AcDbEntity
  8
0
 62
     0
100
AcDbLine
 10
259.7005750000001
 20
102.2496499999999
 30
0.0
 11
259.7005750000001
 21
88.25034999999997
 31
0.0
  0
LINE
  5
5BB
330
6F
100
AcDbEntity
  8
0
 62
     0
100
AcDbLine
 10
259.7005750000001
 20
88.25034999999997
 30
0.0
 11
262.673575
 21
88.25034999999997
 31
0.0
  0
LINE
  5
5BC
330
6F
100
AcDbEntity
  8
0
 62
     0
100
AcDbLine
 10
262.673575
 20
88.25034999999997
 30
0.0
 11
262.673575
 21
87.28014999999999
 31
0.0
  0
LINE
  5
5BD
330
6F
100
AcDbEntity
  8
0
 62
     0
100
AcDbLine
 10
262.673575
 20
87.28014999999999
 30
0.0
 11
265.9745750000001
 21
87.28014999999999
 31
0.0
  0
LINE
  5
5BE
330
6F
100
AcDbEntity
  8
0
 62
     0
100
AcDbLine
 10
265.9745750000001
 20
87.28014999999999
 30
0.0
 11
265.9745750000001
 21
88.25034999999997
 31
0.0
  0
LINE
  5
5BF
330
6F
100
AcDbEntity
  8
0
 62
     0
100
AcDbLine
 10
265.9745750000001
 20
88.25034999999997
 30
0.0
 11
286.475575
 21
88.25034999999997
 31
0.0
  0
LINE
  5
5C0
330
6F
100
AcDbEntity
  8
0
 62
     0
100
AcDbLine
 10
286.475575
 20
88.25034999999997
 30
0.0
 11
286.475575
 21
87.28014999999999
 31
0.0
  0
LINE
  5
5C1
330
6F
100
AcDbEntity
  8
0
 62
     0
100
AcDbLine
 10
286.475575
 20
87.28014999999999
 30
0.0
 11
289.774575
 21
87.28014999999999
 31
0.0
  0
LINE
  5
5C2
330
6F
100
AcDbEntity
  8
0
 62
     0
100
AcDbLine
 10
289.774575
 20
87.28014999999999
 30
0.0
 11
289.774575
 21
88.25034999999997
 31
0.0
  0
LINE
  5
5C3
330
6F
100
AcDbEntity
  8
0
 62
     0
100
AcDbLine
 10
289.774575
 20
88.25034999999997
 30
0.0
 11
292.7495750000001
 21
88.25034999999997
 31
0.0
  0
LINE
  5
5C4
330
6F
100
AcDbEntity
  8
0
 62
     0
100
AcDbLine
 10
292.7495750000001
 20
88.25034999999997
 30
0.0
 11
292.7495750000001
 21
102.2496499999999
 31
0.0
  0
LINE
  5
5C5
330
6F
100
AcDbEntity
  8
0
 62
     0
100
AcDbLine
 10
292.7495750000001
 20
102.2496499999999
 30
0.0
 11
259.7005750000001
 21
102.2496499999999
 31
0.0
  0
LINE
  5
5C6
330
6F
100
AcDbEntity
  8
0
 62
     0
100
AcDbLine
 10
240.650575
 20
102.2496499999999
 30
0.0
 11
254.649575
 21
102.2496499999999
 31
0.0
  0
LINE
  5
5C7
330
6F
100
AcDbEntity
  8
0
 62
     0
100
AcDbLine
 10
254.649575
 20
102.2496499999999
 30
0.0
 11
254.649575
 21
88.25034999999997
 31
0.0
  0
LINE
  5
5C8
330
6F
100
AcDbEntity
  8
0
 62
     0
100
AcDbLine
 10
254.649575
 20
88.25034999999997
 30
0.0
 11
240.650575
 21
88.25034999999997
 31
0.0
  0
LINE
  5
5C9
330
6F
100
AcDbEntity
  8
0
 62
     0
100
AcDbLine
 10
240.650575
 20
88.25034999999997
 30
0.0
 11
240.650575
 21
102.2496499999999
 31
0.0
  0
LINE
  5
5CA
330
6F
100
AcDbEntity
  8
0
 62
     0
100
AcDbLine
 10
221.6005749999999
 20
102.2496499999999
 30
0.0
 11
235.5995749999999
 21
102.2496499999999
 31
0.0
  0
LINE
  5
5CB
330
6F
100
AcDbEntity
  8
0
 62
     0
100
AcDbLine
 10
235.5995749999999
 20
102.2496499999999
 30
0.0
 11
235.5995749999999
 21
88.25034999999997
 31
0.0
  0
LINE
  5
5CC
330
6F
100
AcDbEntity
  8
0
 62
     0
100
AcDbLine
 10
235.5995749999999
 20
88.25034999999997
 30
0.0
 11
221.6005749999999
 21
88.25034999999997
 31
0.0
  0
LINE
  5
5CD
330
6F
100
AcDbEntity
  8
0
 62
     0
100
AcDbLine
 10
221.6005749999999
 20
88.25034999999997
 30
0.0
 11
221.6005749999999
 21
102.2496499999999
 31
0.0
  0
LINE
  5
5CE
330
6F
100
AcDbEntity
  8
0
 62
     0
100
AcDbLine
 10
202.550575
 20
102.2496499999999
 30
0.0
 11
216.549575
 21
102.2496499999999
 31
0.0
  0
LINE
  5
5CF
330
6F
100
AcDbEntity
  8
0
 62
     0
100
AcDbLine
 10
216.549575
 20
102.2496499999999
 30
0.0
 11
216.549575
 21
88.25034999999997
 31
0.0
  0
LINE
  5
5D0
330
6F
100
AcDbEntity
  8
0
 62
     0
100
AcDbLine
 10
216.549575
 20
88.25034999999997
 30
0.0
 11
202.550575
 21
88.25034999999997
 31
0.0
  0
LINE
  5
5D1
330
6F
100
AcDbEntity
  8
0
 62
     0
100
AcDbLine
 10
202.550575
 20
88.25034999999997
 30
0.0
 11
202.550575
 21
102.2496499999999
 31
0.0
  0
LINE
  5
5D2
330
6F
100
AcDbEntity
  8
0
 62
     0
100
AcDbLine
 10
183.500575
 20
102.2496499999999
 30
0.0
 11
197.499575
 21
102.2496499999999
 31
0.0
  0
LINE
  5
5D3
330
6F
100
AcDbEntity
  8
0
 62
     0
100
AcDbLine
 10
197.499575
 20
102.2496499999999
 30
0.0
 11
197.499575
 21
88.25034999999997
 31
0.0
  0
LINE
  5
5D4
330
6F
100
AcDbEntity
  8
0
 62
     0
100
AcDbLine
 10
197.499575
 20
88.25034999999997
 30
0.0
 11
183.500575
 21
88.25034999999997
 31
0.0
  0
LINE
  5
5D5
330
6F
100
AcDbEntity
  8
0
 62
     0
100
AcDbLine
 10
183.500575
 20
88.25034999999997
 30
0.0
 11
183.500575
 21
102.2496499999999
 31
0.0
  0
LINE
  5
5D6
330
6F
100
AcDbEntity
  8
0
 62
     0
100
AcDbLine
 10
164.4505749999999
 20
102.2496499999999
 30
0.0
 11
178.449575
 21
102.2496499999999
 31
0.0
  0
LINE
  5
5D7
330
6F
100
AcDbEntity
  8
0
 62
     0
100
AcDbLine
 10
178.449575
 20
102.2496499999999
 30
0.0
 11
178.449575
 21
88.25034999999997
 31
0.0
  0
LINE
  5
5D8
330
6F
100
AcDbEntity
  8
0
 62
     0
100
AcDbLine
 10
178.449575
 20
88.25034999999997
 30
0.0
 11
164.4505749999999
 21
88.25034999999997
 31
0.0
  0
LINE
  5
5D9
330
6F
100
AcDbEntity
  8
0
 62
     0
100
AcDbLine
 10
164.4505749999999
 20
88.25034999999997
 30
0.0
 11
164.4505749999999
 21
102.2496499999999
 31
0.0
  0
LINE
  5
5DA
330
6F
100
AcDbEntity
  8
0
 62
     0
100
AcDbLine
 10
145.400575
 20
102.2496499999999
 30
0.0
 11
159.399575
 21
102.2496499999999
 31
0.0
  0
LINE
  5
5DB
330
6F
100
AcDbEntity
  8
0
 62
     0
100
AcDbLine
 10
159.399575
 20
102.2496499999999
 30
0.0
 11
159.399575
 21
88.25034999999997
 31
0.0
  0
LINE
  5
5DC
330
6F
100
AcDbEntity
  8
0
 62
     0
100
AcDbLine
 10
159.399575
 20
88.25034999999997
 30
0.0
 11
145.400575
 21
88.25034999999997
 31
0.0
  0
LINE
  5
5DD
330
6F
100
AcDbEntity
  8
0
 62
     0
100
AcDbLine
 10
145.400575
 20
88.25034999999997
 30
0.0
 11
145.400575
 21
102.2496499999999
 31
0.0
  0
LINE
  5
5DE
330
6F
100
AcDbEntity
  8
0
 62
     0
100
AcDbLine
 10
126.348575
 20
102.2496499999999
 30
0.0
 11
140.3495749999999
 21
102.2496499999999
 31
0.0
  0
LINE
  5
5DF
330
6F
100
AcDbEntity
  8
0
 62
     0
100
AcDbLine
 10
140.3495749999999
 20
102.2496499999999
 30
0.0
 11
140.3495749999999
 21
88.25034999999997
 31
0.0
  0
LINE
  5
5E0
330
6F
100
AcDbEntity
  8
0
 62
     0
100
AcDbLine
 10
140.3495749999999
 20
88.25034999999997
 30
0.0
 11
126.348575
 21
88.25034999999997
 31
0.0
  0
LINE
  5
5E1
330
6F
100
AcDbEntity
  8
0
 62
     0
100
AcDbLine
 10
126.348575
 20
88.25034999999997
 30
0.0
 11
126.348575
 21
102.2496499999999
 31
0.0
  0
LINE
  5
5E2
330
6F
100
AcDbEntity
  8
0
 62
     0
100
AcDbLine
 10
107.2988749999999
 20
102.2496499999999
 30
0.0
 11
121.299575
 21
102.2496499999999
 31
0.0
  0
LINE
  5
5E3
330
6F
100
AcDbEntity
  8
0
 62
     0
100
AcDbLine
 10
121.299575
 20
102.2496499999999
 30
0.0
 11
121.299575
 21
88.25034999999997
 31
0.0
  0
LINE
  5
5E4
330
6F
100
AcDbEntity
  8
0
 62
     0
100
AcDbLine
 10
121.299575
 20
88.25034999999997
 30
0.0
 11
107.2988749999999
 21
88.25034999999997
 31
0.0
  0
LINE
  5
5E5
330
6F
100
AcDbEntity
  8
0
 62
     0
100
AcDbLine
 10
107.2988749999999
 20
88.25034999999997
 30
0.0
 11
107.2988749999999
 21
102.2496499999999
 31
0.0
  0
LINE
  5
5E6
330
6F
100
AcDbEntity
  8
0
 62
     0
100
AcDbLine
 10
88.25027499999999
 20
102.2496499999999
 30
0.0
 11
102.249575
 21
102.2496499999999
 31
0.0
  0
LINE
  5
5E7
330
6F
100
AcDbEntity
  8
0
 62
     0
100
AcDbLine
 10
102.249575
 20
102.2496499999999
 30
0.0
 11
102.249575
 21
88.25034999999997
 31
0.0
  0
LINE
  5
5E8
330
6F
100
AcDbEntity
  8
0
 62
     0
100
AcDbLine
 10
102.249575
 20
88.25034999999997
 30
0.0
 11
88.25027499999999
 21
88.25034999999997
 31
0.0
  0
LINE
  5
5E9
330
6F
100
AcDbEntity
  8
0
 62
     0
100
AcDbLine
 10
88.25027499999999
 20
88.25034999999997
 30
0.0
 11
88.25027499999999
 21
102.2496499999999
 31
0.0
  0
LINE
  5
5EA
330
6F
100
AcDbEntity
  8
0
 62
     0
100
AcDbLine
 10
69.20027500000003
 20
102.2496499999999
 30
0.0
 11
83.19957499999999
 21
102.2496499999999
 31
0.0
  0
LINE
  5
5EB
330
6F
100
AcDbEntity
  8
0
 62
     0
100
AcDbLine
 10
83.19957499999999
 20
102.2496499999999
 30
0.0
 11
83.19957499999999
 21
88.25034999999997
 31
0.0
  0
LINE
  5
5EC
330
6F
100
AcDbEntity
  8
0
 62
     0
100
AcDbLine
 10
83.19957499999999
 20
88.25034999999997
 30
0.0
 11
69.20027500000003
 21
88.25034999999997
 31
0.0
  0
LINE
  5
5ED
330
6F
100
AcDbEntity
  8
0
 62
     0
100
AcDbLine
 10
69.20027500000003
 20
88.25034999999997
 30
0.0
 11
69.20027500000003
 21
102.2496499999999
 31
0.0
  0
LINE
  5
5EE
330
6F
100
AcDbEntity
  8
0
 62
     0
100
AcDbLine
 10
50.15027500000002
 20
102.2496499999999
 30
0.0
 11
64.14957500000003
 21
102.2496499999999
 31
0.0
  0
LINE
  5
5EF
330
6F
100
AcDbEntity
  8
0
 62
     0
100
AcDbLine
 10
64.14957500000003
 20
102.2496499999999
 30
0.0
 11
64.14957500000003
 21
88.25034999999997
 31
0.0
  0
LINE
  5
5F0
330
6F
100
AcDbEntity
  8
0
 62
     0
100
AcDbLine
 10
64.14957500000003
 20
88.25034999999997
 30
0.0
 11
50.15027500000002
 21
88.25034999999997
 31
0.0
  0
LINE
  5
5F1
330
6F
100
AcDbEntity
  8
0
 62
     0
100
AcDbLine
 10
50.15027500000002
 20
88.25034999999997
 30
0.0
 11
50.15027500000002
 21
102.2496499999999
 31
0.0
  0
LINE
  5
5F2
330
6F
100
AcDbEntity
  8
0
 62
     0
100
AcDbLine
 10
31.10027500000001
 20
102.2496499999999
 30
0.0
 11
45.09957500000001
 21
102.2496499999999
 31
0.0
  0
LINE
  5
5F3
330
6F
100
AcDbEntity
  8
0
 62
     0
100
AcDbLine
 10
45.09957500000001
 20
102.2496499999999
 30
0.0
 11
45.09957500000001
 21
88.25034999999997
 31
0.0
  0
LINE
  5
5F4
330
6F
100
AcDbEntity
  8
0
 62
     0
100
AcDbLine
 10
45.09957500000001
 20
88.25034999999997
 30
0.0
 11
31.10027500000001
 21
88.25034999999997
 31
0.0
  0
LINE
  5
5F5
330
6F
100
AcDbEntity
  8
0
 62
     0
100
AcDbLine
 10
31.10027500000001
 20
88.25034999999997
 30
0.0
 11
31.10027500000001
 21
102.2496499999999
 31
0.0
  0
LINE
  5
5F6
330
6F
100
AcDbEntity
  8
0
 62
     0
100
AcDbLine
 10
12.05022500000001
 20
102.2496499999999
 30
0.0
 11
26.04977500000001
 21
102.2496499999999
 31
0.0
  0
LINE
  5
5F7
330
6F
100
AcDbEntity
  8
0
 62
     0
100
AcDbLine
 10
26.04977500000001
 20
102.2496499999999
 30
0.0
 11
26.04977500000001
 21
88.25034999999997
 31
0.0
  0
LINE
  5
5F8
330
6F
100
AcDbEntity
  8
0
 62
     0
100
AcDbLine
 10
26.04977500000001
 20
88.25034999999997
 30
0.0
 11
12.05022500000001
 21
88.25034999999997
 31
0.0
  0
LINE
  5
5F9
330
6F
100
AcDbEntity
  8
0
 62
     0
100
AcDbLine
 10
12.05022500000001
 20
88.25034999999997
 30
0.0
 11
12.05022500000001
 21
102.2496499999999
 31
0.0
  0
POINT
  5
5FA
330
6F
100
AcDbEntity
  8
0
  6
Continuous
100
AcDbPoint
 10
0.0
 20
0.0
 30
0.0
  0
CIRCLE
  5
5FB
330
6F
100
AcDbEntity
  8
0
  6
Continuous
100
AcDbCircle
 10
19.05000000000001
 20
95.25
 30
0.0
 40
2.0
  0
LINE
  5
5FC
330
6F
100
AcDbEntity
  8
0
 62
     0
100
AcDbLine
 10
292.7495750000001
 20
102.2496499999999
 30
0.0
 11
292.7495750000001
 21
88.25034999999997
 31
0.0
  0
LINE
  5
5FD
330
6F
100
AcDbEntity
  8
0
 62
     0
100
AcDbLine
 10
31.1002757858517
 20
102.2496499528638
 30
0.0
 11
45.09982578585169
 21
102.2496499528638
 31
0.0
  0
LINE
  5
5FE
330
6F
100
AcDbEntity
  8
0
 62
     0
100
AcDbLine
 10
45.09982578585169
 20
102.2496499528638
 30
0.0
 11
45.09982578585169
 21
88.25034995286381
 31
0.0
  0
LINE
  5
5FF
330
6F
100
AcDbEntity
  8
0
 62
     0
100
AcDbLine
 10
45.09982578585169
 20
88.25034995286381
 30
0.0
 11
31.1002757858517
 21
88.25034995286381
 31
0.0
  0
LINE
  5
600
330
6F
100
AcDbEntity
  8
0
 62
     0
100
AcDbLine
 10
31.1002757858517
 20
88.25034995286381
 30
0.0
 11
31.1002757858517
 21
102.2496499528638
 31
0.0
  0
CIRCLE
  5
601
330
6F
100
AcDbEntity
  8
0
  6
Continuous
100
AcDbCircle
 10
38.10005078585169
 20
95.24999995286378
 30
0.0
 40
2.0
  0
LINE
  5
602
330
6F
100
AcDbEntity
  8
0
 62
     0
100
AcDbLine
 10
50.1502757858517
 20
102.2496499528638
 30
0.0
 11
64.14982578585171
 21
102.2496499528638
 31
0.0
  0
LINE
  5
603
330
6F
100
AcDbEntity
  8
0
 62
     0
100
AcDbLine
 10
64.14982578585171
 20
102.2496499528638
 30
0.0
 11
64.14982578585171
 21
88.25034995286381
 31
0.0
  0
LINE
  5
604
330
6F
100
AcDbEntity
  8
0
 62
     0
100
AcDbLine
 10
64.14982578585171
 20
88.25034995286381
 30
0.0
 11
50.1502757858517
 21
88.25034995286381
 31
0.0
  0
LINE
  5
605
330
6F
100
AcDbEntity
  8
0
 62
     0
100
AcDbLine
 10
50.1502757858517
 20
88.25034995286381
 30
0.0
 11
50.1502757858517
 21
102.2496499528638
 31
0.0
  0
CIRCLE
  5
606
330
6F
100
AcDbEntity
  8
0
  6
Continuous
100
AcDbCircle
 10
57.1500507858517
 20
95.24999995286378
 30
0.0
 40
2.0
  0
LINE
  5
607
330
6F
100
AcDbEntity
  8
0
 62
     0
100
AcDbLine
 10
69.20027578585166
 20
102.2496499528638
 30
0.0
 11
83.19982578585166
 21
102.2496499528638
 31
0.0
  0
LINE
  5
608
330
6F
100
AcDbEntity
  8
0
 62
     0
100
AcDbLine
 10
83.19982578585166
 20
102.2496499528638
 30
0.0
 11
83.19982578585166
 21
88.25034995286381
 31
0.0
  0
LINE
  5
609
330
6F
100
AcDbEntity
  8
0
 62
     0
100
AcDbLine
 10
83.19982578585166
 20
88.25034995286381
 30
0.0
 11
69.20027578585166
 21
88.25034995286381
 31
0.0
  0
LINE
  5
60A
330
6F
100
AcDbEntity
  8
0
 62
     0
100
AcDbLine
 10
69.20027578585166
 20
88.25034995286381
 30
0.0
 11
69.20027578585166
 21
102.2496499528638
 31
0.0
  0
CIRCLE
  5
60B
330
6F
100
AcDbEntity
  8
0
  6
Continuous
100
AcDbCircle
 10
76.20005078585165
 20
95.24999995286378
 30
0.0
 40
2.0
  0
LINE
  5
60C
330
6F
100
AcDbEntity
  8
0
 62
     0
100
AcDbLine
 10
88.25027578585173
 20
102.2496499528638
 30
0.0
 11
102.2498257858517
 21
102.2496499528638
 31
0.0
  0
LINE
  5
60D
330
6F
100
AcDbEntity
  8
0
 62
     0
100
AcDbLine
 10
102.2498257858517
 20
102.2496499528638
 30
0.0
 11
102.2498257858517
 21
88.25034995286381
 31
0.0
  0
LINE
  5
60E
330
6F
100
AcDbEntity
  8
0
 62
     0
100
AcDbLine
 10
102.2498257858517
 20
88.25034995286381
 30
0.0
 11
88.25027578585173
 21
88.25034995286381
 31
0.0
  0
LINE
  5
60F
330
6F
100
AcDbEntity
  8
0
 62
     0
100
AcDbLine
 10
88.25027578585173
 20
88.25034995286381
 30
0.0
 11
88.25027578585173
 21
102.2496499528638
 31
0.0
  0
CIRCLE
  5
610
330
6F
100
AcDbEntity
  8
0
  6
Continuous
100
AcDbCircle
 10
95.25005078585161
 20
95.24999995286378
 30
0.0
 40
2.0
  0
LINE
  5
611
330
6F
100
AcDbEntity
  8
0
 62
     0
100
AcDbLine
 10
107.2988757858517
 20
102.2496499528638
 30
0.0
 11
121.2984257858517
 21
102.2496499528638
 31
0.0
  0
LINE
  5
612
330
6F
100
AcDbEntity
  8
0
 62
     0
100
AcDbLine
 10
121.2984257858517
 20
102.2496499528638
 30
0.0
 11
121.2984257858517
 21
88.25034995286381
 31
0.0
  0
LINE
  5
613
330
6F
100
AcDbEntity
  8
0
 62
     0
100
AcDbLine
 10
121.2984257858517
 20
88.25034995286381
 30
0.0
 11
107.2988757858517
 21
88.25034995286381
 31
0.0
  0
LINE
  5
614
330
6F
100
AcDbEntity
  8
0
 62
     0
100
AcDbLine
 10
107.2988757858517
 20
88.25034995286381
 30
0.0
 11
107.2988757858517
 21
102.2496499528638
 31
0.0
  0
CIRCLE
  5
615
330
6F
100
AcDbEntity
  8
0
  6
Continuous
100
AcDbCircle
 10
114.2986507858517
 20
95.24999995286378
 30
0.0
 40
2.0
  0
LINE
  5
616
330
6F
100
AcDbEntity
  8
0
 62
     0
100
AcDbLine
 10
126.3485757858517
 20
102.2496499528638
 30
0.0
 11
140.3481257858516
 21
102.2496499528638
 31
0.0
  0
LINE
  5
617
330
6F
100
AcDbEntity
  8
0
 62
     0
100
AcDbLine
 10
140.3481257858516
 20
102.2496499528638
 30
0.0
 11
140.3481257858516
 21
88.25034995286381
 31
0.0
  0
LINE
  5
618
330
6F
100
AcDbEntity
  8
0
 62
     0
100
AcDbLine
 10
140.3481257858516
 20
88.25034995286381
 30
0.0
 11
126.3485757858517
 21
88.25034995286381
 31
0.0
  0
LINE
  5
619
330
6F
100
AcDbEntity
  8
0
 62
     0
100
AcDbLine
 10
126.3485757858517
 20
88.25034995286381
 30
0.0
 11
126.3485757858517
 21
102.2496499528638
 31
0.0
  0
CIRCLE
  5
61A
330
6F
100
AcDbEntity
  8
0
  6
Continuous
100
AcDbCircle
 10
133.3483507858516
 20
95.24999995286378
 30
0.0
 40
2.0
  0
LINE
  5
61B
330
6F
100
AcDbEntity
  8
0
 62
     0
100
AcDbLine
 10
145.4005757858517
 20
102.2496499528638
 30
0.0
 11
159.4001257858517
 21
102.2496499528638
 31
0.0
  0
LINE
  5
61C
330
6F
100
AcDbEntity
  8
0
 62
     0
100
AcDbLine
 10
159.4001257858517
 20
102.2496499528638
 30
0.0
 11
159.4001257858517
 21
88.25034995286381
 31
0.0
  0
LINE
  5
61D
330
6F
100
AcDbEntity
  8
0
 62
     0
100
AcDbLine
 10
159.4001257858517
 20
88.25034995286381
 30
0.0
 11
145.4005757858517
 21
88.25034995286381
 31
0.0
  0
LINE
  5
61E
330
6F
100
AcDbEntity
  8
0
 62
     0
100
AcDbLine
 10
145.4005757858517
 20
88.25034995286381
 30
0.0
 11
145.4005757858517
 21
102.2496499528638
 31
0.0
  0
CIRCLE
  5
61F
330
6F
100
AcDbEntity
  8
0
  6
Continuous
100
AcDbCircle
 10
152.4003507858517
 20
95.24999995286378
 30
0.0
 40
2.0
  0
LINE
  5
620
330
6F
100
AcDbEntity
  8
0
 62
     0
100
AcDbLine
 10
164.4505757858517
 20
102.2496499528638
 30
0.0
 11
178.4501257858517
 21
102.2496499528638
 31
0.0
  0
LINE
  5
621
330
6F
100
AcDbEntity
  8
0
 62
     0
100
AcDbLine
 10
178.4501257858517
 20
102.2496499528638
 30
0.0
 11
178.4501257858517
 21
88.25034995286381
 31
0.0
  0
LINE
  5
622
330
6F
100
AcDbEntity
  8
0
 62
     0
100
AcDbLine
 10
178.4501257858517
 20
88.25034995286381
 30
0.0
 11
164.4505757858517
 21
88.25034995286381
 31
0.0
  0
LINE
  5
623
330
6F
100
AcDbEntity
  8
0
 62
     0
100
AcDbLine
 10
164.4505757858517
 20
88.25034995286381
 30
0.0
 11
164.4505757858517
 21
102.2496499528638
 31
0.0
  0
CIRCLE
  5
624
330
6F
100
AcDbEntity
  8
0
  6
Continuous
100
AcDbCircle
 10
171.4503507858517
 20
95.24999995286378
 30
0.0
 40
2.0
  0
LINE
  5
625
330
6F
100
AcDbEntity
  8
0
 62
     0
100
AcDbLine
 10
183.5005757858516
 20
102.2496499528638
 30
0.0
 11
197.5001257858516
 21
102.2496499528638
 31
0.0
  0
LINE
  5
626
330
6F
100
AcDbEntity
  8
0
 62
     0
100
AcDbLine
 10
197.5001257858516
 20
102.2496499528638
 30
0.0
 11
197.5001257858516
 21
88.25034995286381
 31
0.0
  0
LINE
  5
627
330
6F
100
AcDbEntity
  8
0
 62
     0
100
AcDbLine
 10
197.5001257858516
 20
88.25034995286381
 30
0.0
 11
183.5005757858516
 21
88.25034995286381
 31
0.0
  0
LINE
  5
628
330
6F
100
AcDbEntity
  8
0
 62
     0
100
AcDbLine
 10
183.5005757858516
 20
88.25034995286381
 30
0.0
 11
183.5005757858516
 21
102.2496499528638
 31
0.0
  0
CIRCLE
  5
629
330
6F
100
AcDbEntity
  8
0
  6
Continuous
100
AcDbCircle
 10
190.5003507858516
 20
95.24999995286378
 30
0.0
 40
2.0
  0
LINE
  5
62A
330
6F
100
AcDbEntity
  8
0
 62
     0
100
AcDbLine
 10
202.5505757858516
 20
102.2496499528638
 30
0.0
 11
216.5501257858516
 21
102.2496499528638
 31
0.0
  0
LINE
  5
62B
330
6F
100
AcDbEntity
  8
0
 62
     0
100
AcDbLine
 10
216.5501257858516
 20
102.2496499528638
 30
0.0
 11
216.5501257858516
 21
88.25034995286381
 31
0.0
  0
LINE
  5
62C
330
6F
100
AcDbEntity
  8
0
 62
     0
100
AcDbLine
 10
216.5501257858516
 20
88.25034995286381
 30
0.0
 11
202.5505757858516
 21
88.25034995286381
 31
0.0
  0
LINE
  5
62D
330
6F
100
AcDbEntity
  8
0
 62
     0
100
AcDbLine
 10
202.5505757858516
 20
88.25034995286381
 30
0.0
 11
202.5505757858516
 21
102.2496499528638
 31
0.0
  0
CIRCLE
  5
62E
330
6F
100
AcDbEntity
  8
0
  6
Continuous
100
AcDbCircle
 10
209.5503507858516
 20
95.24999995286378
 30
0.0
 40
2.0
  0
LINE
  5
62F
330
6F
100
AcDbEntity
  8
0
 62
     0
100
AcDbLine
 10
221.6005757858517
 20
102.2496499528638
 30
0.0
 11
235.6001257858517
 21
102.2496499528638
 31
0.0
  0
LINE
  5
630
330
6F
100
AcDbEntity
  8
0
 62
     0
100
AcDbLine
 10
235.6001257858517
 20
102.2496499528638
 30
0.0
 11
235.6001257858517
 21
88.25034995286381
 31
0.0
  0
LINE
  5
631
330
6F
100
AcDbEntity
  8
0
 62
     0
100
AcDbLine
 10
235.6001257858517
 20
88.25034995286381
 30
0.0
 11
221.6005757858517
 21
88.25034995286381
 31
0.0
  0
LINE
  5
632
330
6F
100
AcDbEntity
  8
0
 62
     0
100
AcDbLine
 10
221.6005757858517
 20
88.25034995286381
 30
0.0
 11
221.6005757858517
 21
102.2496499528638
 31
0.0
  0
CIRCLE
  5
633
330
6F
100
AcDbEntity
  8
0
  6
Continuous
100
AcDbCircle
 10
228.6003507858517
 20
95.24999995286378
 30
0.0
 40
2.0
  0
LINE
  5
634
330
6F
100
AcDbEntity
  8
0
 62
     0
100
AcDbLine
 10
240.6505757858516
 20
102.2496499528638
 30
0.0
 11
254.6501257858516
 21
102.2496499528638
 31
0.0
  0
LINE
  5
635
330
6F
100
AcDbEntity
  8
0
 62
     0
100
AcDbLine
 10
254.6501257858516
 20
102.2496499528638
 30
0.0
 11
254.6501257858516
 21
88.25034995286381
 31
0.0
  0
LINE
  5
636
330
6F
100
AcDbEntity
  8
0
 62
     0
100
AcDbLine
 10
254.6501257858516
 20
88.25034995286381
 30
0.0
 11
240.6505757858516
 21
88.25034995286381
 31
0.0
  0
LINE
  5
637
330
6F
100
AcDbEntity
  8
0
 62
     0
100
AcDbLine
 10
240.6505757858516
 20
88.25034995286381
 30
0.0
 11
240.6505757858516
 21
102.2496499528638
 31
0.0
  0
CIRCLE
  5
638
330
6F
100
AcDbEntity
  8
0
  6
Continuous
100
AcDbCircle
 10
247.6503507858516
 20
95.24999995286378
 30
0.0
 40
2.0
  0
LINE
  5
639
330
6F
100
AcDbEntity
  8
0
 62
     0
100
AcDbLine
 10
16.81273578585171
 20
83.19964995286374
 30
0.0
 11
30.81228578585172
 21
83.19964995286374
 31
0.0
  0
LINE
  5
63A
330
6F
100
AcDbEntity
  8
0
 62
     0
100
AcDbLine
 10
30.81228578585172
 20
83.19964995286374
 30
0.0
 11
30.81228578585172
 21
69.2003499528638
 31
0.0
  0
LINE
  5
63B
330
6F
100
AcDbEntity
  8
0
 62
     0
100
AcDbLine
 10
30.81228578585172
 20
69.2003499528638
 30
0.0
 11
16.81273578585171
 21
69.2003499528638
 31
0.0
  0
LINE
  5
63C
330
6F
100
AcDbEntity
  8
0
 62
     0
100
AcDbLine
 10
16.81273578585171
 20
69.2003499528638
 30
0.0
 11
16.81273578585171
 21
83.19964995286374
 31
0.0
  0
CIRCLE
  5
63D
330
6F
100
AcDbEntity
  8
0
  6
Continuous
100
AcDbCircle
 10
23.81251078585166
 20
76.19999995286383
 30
0.0
 40
2.0
  0
LINE
  5
63E
330
6F
100
AcDbEntity
  8
0
 62
     0
100
AcDbLine
 10
40.62527578585167
 20
83.19964995286374
 30
0.0
 11
54.62482578585166
 21
83.19964995286374
 31
0.0
  0
LINE
  5
63F
330
6F
100
AcDbEntity
  8
0
 62
     0
100
AcDbLine
 10
54.62482578585166
 20
83.19964995286374
 30
0.0
 11
54.62482578585166
 21
69.2003499528638
 31
0.0
  0
LINE
  5
640
330
6F
100
AcDbEntity
  8
0
 62
     0
100
AcDbLine
 10
54.62482578585166
 20
69.2003499528638
 30
0.0
 11
40.62527578585167
 21
69.2003499528638
 31
0.0
  0
LINE
  5
641
330
6F
100
AcDbEntity
  8
0
 62
     0
100
AcDbLine
 10
40.62527578585167
 20
69.2003499528638
 30
0.0
 11
40.62527578585167
 21
83.19964995286374
 31
0.0
  0
CIRCLE
  5
642
330
6F
100
AcDbEntity
  8
0
  6
Continuous
100
AcDbCircle
 10
47.62505078585166
 20
76.19999995286383
 30
0.0
 40
2.0
  0
LINE
  5
643
330
6F
100
AcDbEntity
  8
0
 62
     0
100
AcDbLine
 10
59.67527578585168
 20
83.19964995286374
 30
0.0
 11
73.67482578585168
 21
83.19964995286374
 31
0.0
  0
LINE
  5
644
330
6F
100
AcDbEntity
  8
0
 62
     0
100
AcDbLine
 10
73.67482578585168
 20
83.19964995286374
 30
0.0
 11
73.67482578585168
 21
69.2003499528638
 31
0.0
  0
LINE
  5
645
330
6F
100
AcDbEntity
  8
0
 62
     0
100
AcDbLine
 10
73.67482578585168
 20
69.2003499528638
 30
0.0
 11
59.67527578585168
 21
69.2003499528638
 31
0.0
  0
LINE
  5
646
330
6F
100
AcDbEntity
  8
0
 62
     0
100
AcDbLine
 10
59.67527578585168
 20
69.2003499528638
 30
0.0
 11
59.67527578585168
 21
83.19964995286374
 31
0.0
  0
CIRCLE
  5
647
330
6F
100
AcDbEntity
  8
0
  6
Continuous
100
AcDbCircle
 10
66.67505078585168
 20
76.19999995286383
 30
0.0
 40
2.0
  0
LINE
  5
648
330
6F
100
AcDbEntity
  8
0
 62
     0
100
AcDbLine
 10
78.72527578585163
 20
83.1996499057276
 30
0.0
 11
92.72482578585163
 21
83.1996499057276
 31
0.0
  0
LINE
  5
649
330
6F
100
AcDbEntity
  8
0
 62
     0
100
AcDbLine
 10
92.72482578585163
 20
83.1996499057276
 30
0.0
 11
92.72482578585163
 21
69.20034990572765
 31
0.0
  0
LINE
  5
64A
330
6F
100
AcDbEntity
  8
0
 62
     0
100
AcDbLine
 10
92.72482578585163
 20
69.20034990572765
 30
0.0
 11
78.72527578585163
 21
69.20034990572765
 31
0.0
  0
LINE
  5
64B
330
6F
100
AcDbEntity
  8
0
 62
     0
100
AcDbLine
 10
78.72527578585163
 20
69.20034990572765
 30
0.0
 11
78.72527578585163
 21
83.1996499057276
 31
0.0
  0
CIRCLE
  5
64C
330
6F
100
AcDbEntity
  8
0
  6
Continuous
100
AcDbCircle
 10
85.72505078585164
 20
76.19999990572762
 30
0.0
 40
2.0
  0
LINE
  5
64D
330
6F
100
AcDbEntity
  8
0
 62
     0
100
AcDbLine
 10
97.77527578585171
 20
83.19964995286374
 30
0.0
 11
111.7748257858517
 21
83.19964995286374
 31
0.0
  0
LINE
  5
64E
330
6F
100
AcDbEntity
  8
0
 62
     0
100
AcDbLine
 10
111.7748257858517
 20
83.19964995286374
 30
0.0
 11
111.7748257858517
 21
69.2003499528638
 31
0.0
  0
LINE
  5
64F
330
6F
100
AcDbEntity
  8
0
 62
     0
100
AcDbLine
 10
111.7748257858517
 20
69.2003499528638
 30
0.0
 11
97.77527578585171
 21
69.2003499528638
 31
0.0
  0
LINE
  5
650
330
6F
100
AcDbEntity
  8
0
 62
     0
100
AcDbLine
 10
97.77527578585171
 20
69.2003499528638
 30
0.0
 11
97.77527578585171
 21
83.19964995286374
 31
0.0
  0
CIRCLE
  5
651
330
6F
100
AcDbEntity
  8
0
  6
Continuous
100
AcDbCircle
 10
104.7750507858516
 20
76.19999995286383
 30
0.0
 40
2.0
  0
LINE
  5
652
330
6F
100
AcDbEntity
  8
0
 62
     0
100
AcDbLine
 10
116.8255757858517
 20
83.19964995286374
 30
0.0
 11
130.8251257858517
 21
83.19964995286374
 31
0.0
  0
LINE
  5
653
330
6F
100
AcDbEntity
  8
0
 62
     0
100
AcDbLine
 10
130.8251257858517
 20
83.19964995286374
 30
0.0
 11
130.8251257858517
 21
69.2003499528638
 31
0.0
  0
LINE
  5
654
330
6F
100
AcDbEntity
  8
0
 62
     0
100
AcDbLine
 10
130.8251257858517
 20
69.2003499528638
 30
0.0
 11
116.8255757858517
 21
69.2003499528638
 31
0.0
  0
LINE
  5
655
330
6F
100
AcDbEntity
  8
0
 62
     0
100
AcDbLine
 10
116.8255757858517
 20
69.2003499528638
 30
0.0
 11
116.8255757858517
 21
83.19964995286374
 31
0.0
  0
CIRCLE
  5
656
330
6F
100
AcDbEntity
  8
0
  6
Continuous
100
AcDbCircle
 10
123.8253507858516
 20
76.19999995286383
 30
0.0
 40
2.0
  0
LINE
  5
657
330
6F
100
AcDbEntity
  8
0
 62
     0
100
AcDbLine
 10
135.8755757858516
 20
83.19964995286374
 30
0.0
 11
149.8751257858516
 21
83.19964995286374
 31
0.0
  0
LINE
  5
658
330
6F
100
AcDbEntity
  8
0
 62
     0
100
AcDbLine
 10
149.8751257858516
 20
83.19964995286374
 30
0.0
 11
149.8751257858516
 21
69.2003499528638
 31
0.0
  0
LINE
  5
659
330
6F
100
AcDbEntity
  8
0
 62
     0
100
AcDbLine
 10
149.8751257858516
 20
69.2003499528638
 30
0.0
 11
135.8755757858516
 21
69.2003499528638
 31
0.0
  0
LINE
  5
65A
330
6F
100
AcDbEntity
  8
0
 62
     0
100
AcDbLine
 10
135.8755757858516
 20
69.2003499528638
 30
0.0
 11
135.8755757858516
 21
83.19964995286374
 31
0.0
  0
CIRCLE
  5
65B
330
6F
100
AcDbEntity
  8
0
  6
Continuous
100
AcDbCircle
 10
142.8753507858516
 20
76.19999995286383
 30
0.0
 40
2.0
  0
LINE
  5
65C
330
6F
100
AcDbEntity
  8
0
 62
     0
100
AcDbLine
 10
154.9255757858517
 20
83.19964995286374
 30
0.0
 11
168.9251257858517
 21
83.19964995286374
 31
0.0
  0
LINE
  5
65D
330
6F
100
AcDbEntity
  8
0
 62
     0
100
AcDbLine
 10
168.9251257858517
 20
83.19964995286374
 30
0.0
 11
168.9251257858517
 21
69.2003499528638
 31
0.0
  0
LINE
  5
65E
330
6F
100
AcDbEntity
  8
0
 62
     0
100
AcDbLine
 10
168.9251257858517
 20
69.2003499528638
 30
0.0
 11
154.9255757858517
 21
69.2003499528638
 31
0.0
  0
LINE
  5
65F
330
6F
100
AcDbEntity
  8
0
 62
     0
100
AcDbLine
 10
154.9255757858517
 20
69.2003499528638
 30
0.0
 11
154.9255757858517
 21
83.19964995286374
 31
0.0
  0
CIRCLE
  5
660
330
6F
100
AcDbEntity
  8
0
  6
Continuous
100
AcDbCircle
 10
161.9253507858516
 20
76.19999995286383
 30
0.0
 40
2.0
  0
LINE
  5
661
330
6F
100
AcDbEntity
  8
0
 62
     0
100
AcDbLine
 10
173.9755757858515
 20
83.19964995286374
 30
0.0
 11
187.9751257858517
 21
83.19964995286374
 31
0.0
  0
LINE
  5
662
330
6F
100
AcDbEntity
  8
0
 62
     0
100
AcDbLine
 10
187.9751257858517
 20
83.19964995286374
 30
0.0
 11
187.9751257858517
 21
69.2003499528638
 31
0.0
  0
LINE
  5
663
330
6F
100
AcDbEntity
  8
0
 62
     0
100
AcDbLine
 10
187.9751257858517
 20
69.2003499528638
 30
0.0
 11
173.9755757858515
 21
69.2003499528638
 31
0.0
  0
LINE
  5
664
330
6F
100
AcDbEntity
  8
0
 62
     0
100
AcDbLine
 10
173.9755757858515
 20
69.2003499528638
 30
0.0
 11
173.9755757858515
 21
83.19964995286374
 31
0.0
  0
CIRCLE
  5
665
330
6F
100
AcDbEntity
  8
0
  6
Continuous
100
AcDbCircle
 10
180.9753507858515
 20
76.19999995286383
 30
0.0
 40
2.0
  0
LINE
  5
666
330
6F
100
AcDbEntity
  8
0
 62
     0
100
AcDbLine
 10
193.0255757858516
 20
83.19964995286374
 30
0.0
 11
207.0251257858516
 21
83.19964995286374
 31
0.0
  0
LINE
  5
667
330
6F
100
AcDbEntity
  8
0
 62
     0
100
AcDbLine
 10
207.0251257858516
 20
83.19964995286374
 30
0.0
 11
207.0251257858516
 21
69.2003499528638
 31
0.0
  0
LINE
  5
668
330
6F
100
AcDbEntity
  8
0
 62
     0
100
AcDbLine
 10
207.0251257858516
 20
69.2003499528638
 30
0.0
 11
193.0255757858516
 21
69.2003499528638
 31
0.0
  0
LINE
  5
669
330
6F
100
AcDbEntity
  8
0
 62
     0
100
AcDbLine
 10
193.0255757858516
 20
69.2003499528638
 30
0.0
 11
193.0255757858516
 21
83.19964995286374
 31
0.0
  0
CIRCLE
  5
66A
330
6F
100
AcDbEntity
  8
0
  6
Continuous
100
AcDbCircle
 10
200.0253507858516
 20
76.19999995286383
 30
0.0
 40
2.0
  0
LINE
  5
66B
330
6F
100
AcDbEntity
  8
0
 62
     0
100
AcDbLine
 10
212.0755757858517
 20
83.19964995286374
 30
0.0
 11
226.0751257858517
 21
83.19964995286374
 31
0.0
  0
LINE
  5
66C
330
6F
100
AcDbEntity
  8
0
 62
     0
100
AcDbLine
 10
226.0751257858517
 20
83.19964995286374
 30
0.0
 11
226.0751257858517
 21
69.2003499528638
 31
0.0
  0
LINE
  5
66D
330
6F
100
AcDbEntity
  8
0
 62
     0
100
AcDbLine
 10
226.0751257858517
 20
69.2003499528638
 30
0.0
 11
212.0755757858517
 21
69.2003499528638
 31
0.0
  0
LINE
  5
66E
330
6F
100
AcDbEntity
  8
0
 62
     0
100
AcDbLine
 10
212.0755757858517
 20
69.2003499528638
 30
0.0
 11
212.0755757858517
 21
83.19964995286374
 31
0.0
  0
CIRCLE
  5
66F
330
6F
100
AcDbEntity
  8
0
  6
Continuous
100
AcDbCircle
 10
219.0753507858517
 20
76.19999995286383
 30
0.0
 40
2.0
  0
LINE
  5
670
330
6F
100
AcDbEntity
  8
0
 62
     0
100
AcDbLine
 10
231.1255757858516
 20
83.19964995286374
 30
0.0
 11
245.1251257858516
 21
83.19964995286374
 31
0.0
  0
LINE
  5
671
330
6F
100
AcDbEntity
  8
0
 62
     0
100
AcDbLine
 10
245.1251257858516
 20
83.19964995286374
 30
0.0
 11
245.1251257858516
 21
69.2003499528638
 31
0.0
  0
LINE
  5
672
330
6F
100
AcDbEntity
  8
0
 62
     0
100
AcDbLine
 10
245.1251257858516
 20
69.2003499528638
 30
0.0
 11
231.1255757858516
 21
69.2003499528638
 31
0.0
  0
LINE
  5
673
330
6F
100
AcDbEntity
  8
0
 62
     0
100
AcDbLine
 10
231.1255757858516
 20
69.2003499528638
 30
0.0
 11
231.1255757858516
 21
83.19964995286374
 31
0.0
  0
CIRCLE
  5
674
330
6F
100
AcDbEntity
  8
0
  6
Continuous
100
AcDbCircle
 10
238.1253507858517
 20
76.19999995286383
 30
0.0
 40
2.0
  0
LINE
  5
675
330
6F
100
AcDbEntity
  8
0
 62
     0
100
AcDbLine
 10
250.1755757858516
 20
83.19964995286374
 30
0.0
 11
264.1751257858516
 21
83.19964995286374
 31
0.0
  0
LINE
  5
676
330
6F
100
AcDbEntity
  8
0
 62
     0
100
AcDbLine
 10
264.1751257858516
 20
83.19964995286374
 30
0.0
 11
264.1751257858516
 21
69.2003499528638
 31
0.0
  0
LINE
  5
677
330
6F
100
AcDbEntity
  8
0
 62
     0
100
AcDbLine
 10
264.1751257858516
 20
69.2003499528638
 30
0.0
 11
250.1755757858516
 21
69.2003499528638
 31
0.0
  0
LINE
  5
678
330
6F
100
AcDbEntity
  8
0
 62
     0
100
AcDbLine
 10
250.1755757858516
 20
69.2003499528638
 30
0.0
 11
250.1755757858516
 21
83.19964995286374
 31
0.0
  0
CIRCLE
  5
679
330
6F
100
AcDbEntity
  8
0
  6
Continuous
100
AcDbCircle
 10
257.1753507858516
 20
76.19999995286383
 30
0.0
 40
2.0
  0
LINE
  5
67A
330
6F
100
AcDbEntity
  8
0
 62
     0
100
AcDbLine
 10
45.38777578585166
 20
64.14964995286379
 30
0.0
 11
59.38732578585166
 21
64.14964995286379
 31
0.0
  0
LINE
  5
67B
330
6F
100
AcDbEntity
  8
0
 62
     0
100
AcDbLine
 10
59.38732578585166
 20
64.14964995286379
 30
0.0
 11
59.38732578585166
 21
50.15034995286384
 31
0.0
  0
LINE
  5
67C
330
6F
100
AcDbEntity
  8
0
 62
     0
100
AcDbLine
 10
59.38732578585166
 20
50.15034995286384
 30
0.0
 11
45.38777578585166
 21
50.15034995286384
 31
0.0
  0
LINE
  5
67D
330
6F
100
AcDbEntity
  8
0
 62
     0
100
AcDbLine
 10
45.38777578585166
 20
50.15034995286384
 30
0.0
 11
45.38777578585166
 21
64.14964995286379
 31
0.0
  0
CIRCLE
  5
67E
330
6F
100
AcDbEntity
  8
0
  6
Continuous
100
AcDbCircle
 10
52.38755078585166
 20
57.14999995286382
 30
0.0
 40
2.0
  0
LINE
  5
67F
330
6F
100
AcDbEntity
  8
0
 62
     0
100
AcDbLine
 10
14.43148578585169
 20
64.14964995286379
 30
0.0
 11
28.43103578585169
 21
64.14964995286379
 31
0.0
  0
LINE
  5
680
330
6F
100
AcDbEntity
  8
0
 62
     0
100
AcDbLine
 10
28.43103578585169
 20
50.15034995286384
 30
0.0
 11
14.43148578585169
 21
50.15034995286384
 31
0.0
  0
LINE
  5
681
330
6F
100
AcDbEntity
  8
0
 62
     0
100
AcDbLine
 10
14.43148578585169
 20
50.15034995286384
 30
0.0
 11
14.43148578585169
 21
64.14964995286379
 31
0.0
  0
CIRCLE
  5
682
330
6F
100
AcDbEntity
  8
0
  6
Continuous
100
AcDbCircle
 10
21.43126078585169
 20
57.14999995286382
 30
0.0
 40
2.0
  0
LINE
  5
683
330
6F
100
AcDbEntity
  8
0
 62
     0
100
AcDbLine
 10
64.43777578585173
 20
64.14964995286379
 30
0.0
 11
78.43732578585172
 21
64.14964995286379
 31
0.0
  0
LINE
  5
684
330
6F
100
AcDbEntity
  8
0
 62
     0
100
AcDbLine
 10
78.43732578585172
 20
64.14964995286379
 30
0.0
 11
78.43732578585172
 21
50.15034995286384
 31
0.0
  0
LINE
  5
685
330
6F
100
AcDbEntity
  8
0
 62
     0
100
AcDbLine
 10
78.43732578585172
 20
50.15034995286384
 30
0.0
 11
64.43777578585173
 21
50.15034995286384
 31
0.0
  0
LINE
  5
686
330
6F
100
AcDbEntity
  8
0
 62
     0
100
AcDbLine
 10
64.43777578585173
 20
50.15034995286384
 30
0.0
 11
64.43777578585173
 21
64.14964995286379
 31
0.0
  0
CIRCLE
  5
687
330
6F
100
AcDbEntity
  8
0
  6
Continuous
100
AcDbCircle
 10
71.43755078585172
 20
57.14999995286382
 30
0.0
 40
2.0
  0
LINE
  5
688
330
6F
100
AcDbEntity
  8
0
 62
     0
100
AcDbLine
 10
83.48777578585169
 20
64.14964995286379
 30
0.0
 11
97.48732578585169
 21
64.14964995286379
 31
0.0
  0
LINE
  5
689
330
6F
100
AcDbEntity
  8
0
 62
     0
100
AcDbLine
 10
97.48732578585169
 20
64.14964995286379
 30
0.0
 11
97.48732578585169
 21
50.15034995286384
 31
0.0
  0
LINE
  5
68A
330
6F
100
AcDbEntity
  8
0
 62
     0
100
AcDbLine
 10
97.48732578585169
 20
50.15034995286384
 30
0.0
 11
83.48777578585169
 21
50.15034995286384
 31
0.0
  0
LINE
  5
68B
330
6F
100
AcDbEntity
  8
0
 62
     0
100
AcDbLine
 10
83.48777578585169
 20
50.15034995286384
 30
0.0
 11
83.48777578585169
 21
64.14964995286379
 31
0.0
  0
CIRCLE
  5
68C
330
6F
100
AcDbEntity
  8
0
  6
Continuous
100
AcDbCircle
 10
90.48755078585168
 20
57.14999995286382
 30
0.0
 40
2.0
  0
LINE
  5
68D
330
6F
100
AcDbEntity
  8
0
 62
     0
100
AcDbLine
 10
102.5377757858517
 20
64.14964995286379
 30
0.0
 11
116.5373257858517
 21
64.14964995286379
 31
0.0
  0
LINE
  5
68E
330
6F
100
AcDbEntity
  8
0
 62
     0
100
AcDbLine
 10
116.5373257858517
 20
64.14964995286379
 30
0.0
 11
116.5373257858517
 21
50.15034995286384
 31
0.0
  0
LINE
  5
68F
330
6F
100
AcDbEntity
  8
0
 62
     0
100
AcDbLine
 10
116.5373257858517
 20
50.15034995286384
 30
0.0
 11
102.5377757858517
 21
50.15034995286384
 31
0.0
  0
LINE
  5
690
330
6F
100
AcDbEntity
  8
0
 62
     0
100
AcDbLine
 10
102.5377757858517
 20
50.15034995286384
 30
0.0
 11
102.5377757858517
 21
64.14964995286379
 31
0.0
  0
CIRCLE
  5
691
330
6F
100
AcDbEntity
  8
0
  6
Continuous
100
AcDbCircle
 10
109.5375507858516
 20
57.14999995286382
 30
0.0
 40
2.0
  0
LINE
  5
692
330
6F
100
AcDbEntity
  8
0
 62
     0
100
AcDbLine
 10
121.5875757858517
 20
64.14964995286379
 30
0.0
 11
135.5871257858516
 21
64.14964995286379
 31
0.0
  0
LINE
  5
693
330
6F
100
AcDbEntity
  8
0
 62
     0
100
AcDbLine
 10
135.5871257858516
 20
64.14964995286379
 30
0.0
 11
135.5871257858516
 21
50.15034995286384
 31
0.0
  0
LINE
  5
694
330
6F
100
AcDbEntity
  8
0
 62
     0
100
AcDbLine
 10
135.5871257858516
 20
50.15034995286384
 30
0.0
 11
121.5875757858517
 21
50.15034995286384
 31
0.0
  0
LINE
  5
695
330
6F
100
AcDbEntity
  8
0
 62
     0
100
AcDbLine
 10
121.5875757858517
 20
50.15034995286384
 30
0.0
 11
121.5875757858517
 21
64.14964995286379
 31
0.0
  0
CIRCLE
  5
696
330
6F
100
AcDbEntity
  8
0
  6
Continuous
100
AcDbCircle
 10
128.5873507858516
 20
57.14999995286382
 30
0.0
 40
2.0
  0
LINE
  5
697
330
6F
100
AcDbEntity
  8
0
 62
     0
100
AcDbLine
 10
140.6375757858516
 20
64.14964995286379
 30
0.0
 11
154.6371257858517
 21
64.14964995286379
 31
0.0
  0
LINE
  5
698
330
6F
100
AcDbEntity
  8
0
 62
     0
100
AcDbLine
 10
154.6371257858517
 20
64.14964995286379
 30
0.0
 11
154.6371257858517
 21
50.15034995286384
 31
0.0
  0
LINE
  5
699
330
6F
100
AcDbEntity
  8
0
 62
     0
100
AcDbLine
 10
154.6371257858517
 20
50.15034995286384
 30
0.0
 11
140.6375757858516
 21
50.15034995286384
 31
0.0
  0
LINE
  5
69A
330
6F
100
AcDbEntity
  8
0
 62
     0
100
AcDbLine
 10
140.6375757858516
 20
50.15034995286384
 30
0.0
 11
140.6375757858516
 21
64.14964995286379
 31
0.0
  0
CIRCLE
  5
69B
330
6F
100
AcDbEntity
  8
0
  6
Continuous
100
AcDbCircle
 10
147.6373507858516
 20
57.14999995286382
 30
0.0
 40
2.0
  0
LINE
  5
69C
330
6F
100
AcDbEntity
  8
0
 62
     0
100
AcDbLine
 10
159.6875757858516
 20
64.14964995286379
 30
0.0
 11
173.6871257858516
 21
64.14964995286379
 31
0.0
  0
LINE
  5
69D
330
6F
100
AcDbEntity
  8
0
 62
     0
100
AcDbLine
 10
173.6871257858516
 20
64.14964995286379
 30
0.0
 11
173.6871257858516
 21
50.15034995286384
 31
0.0
  0
LINE
  5
69E
330
6F
100
AcDbEntity
  8
0
 62
     0
100
AcDbLine
 10
173.6871257858516
 20
50.15034995286384
 30
0.0
 11
159.6875757858516
 21
50.15034995286384
 31
0.0
  0
LINE
  5
69F
330
6F
100
AcDbEntity
  8
0
 62
     0
100
AcDbLine
 10
159.6875757858516
 20
50.15034995286384
 30
0.0
 11
159.6875757858516
 21
64.14964995286379
 31
0.0
  0
CIRCLE
  5
6A0
330
6F
100
AcDbEntity
  8
0
  6
Continuous
100
AcDbCircle
 10
166.6873507858515
 20
57.14999995286382
 30
0.0
 40
2.0
  0
LINE
  5
6A1
330
6F
100
AcDbEntity
  8
0
 62
     0
100
AcDbLine
 10
178.7375757858517
 20
64.14964995286379
 30
0.0
 11
192.7371257858517
 21
64.14964995286379
 31
0.0
  0
LINE
  5
6A2
330
6F
100
AcDbEntity
  8
0
 62
     0
100
AcDbLine
 10
192.7371257858517
 20
64.14964995286379
 30
0.0
 11
192.7371257858517
 21
50.15034995286384
 31
0.0
  0
LINE
  5
6A3
330
6F
100
AcDbEntity
  8
0
 62
     0
100
AcDbLine
 10
192.7371257858517
 20
50.15034995286384
 30
0.0
 11
178.7375757858517
 21
50.15034995286384
 31
0.0
  0
LINE
  5
6A4
330
6F
100
AcDbEntity
  8
0
 62
     0
100
AcDbLine
 10
178.7375757858517
 20
50.15034995286384
 30
0.0
 11
178.7375757858517
 21
64.14964995286379
 31
0.0
  0
CIRCLE
  5
6A5
330
6F
100
AcDbEntity
  8
0
  6
Continuous
100
AcDbCircle
 10
185.7373507858516
 20
57.14999995286382
 30
0.0
 40
2.0
  0
LINE
  5
6A6
330
6F
100
AcDbEntity
  8
0
 62
     0
100
AcDbLine
 10
197.7875757858517
 20
64.14964995286379
 30
0.0
 11
211.7871257858517
 21
64.14964995286379
 31
0.0
  0
LINE
  5
6A7
330
6F
100
AcDbEntity
  8
0
 62
     0
100
AcDbLine
 10
211.7871257858517
 20
64.14964995286379
 30
0.0
 11
211.7871257858517
 21
50.15034995286384
 31
0.0
  0
LINE
  5
6A8
330
6F
100
AcDbEntity
  8
0
 62
     0
100
AcDbLine
 10
211.7871257858517
 20
50.15034995286384
 30
0.0
 11
197.7875757858517
 21
50.15034995286384
 31
0.0
  0
LINE
  5
6A9
330
6F
100
AcDbEntity
  8
0
 62
     0
100
AcDbLine
 10
197.7875757858517
 20
50.15034995286384
 30
0.0
 11
197.7875757858517
 21
64.14964995286379
 31
0.0
  0
CIRCLE
  5
6AA
330
6F
100
AcDbEntity
  8
0
  6
Continuous
100
AcDbCircle
 10
204.7873507858517
 20
57.14999995286382
 30
0.0
 40
2.0
  0
LINE
  5
6AB
330
6F
100
AcDbEntity
  8
0
 62
     0
100
AcDbLine
 10
216.8375757858516
 20
64.14964995286379
 30
0.0
 11
230.8371257858516
 21
64.14964995286379
 31
0.0
  0
LINE
  5
6AC
330
6F
100
AcDbEntity
  8
0
 62
     0
100
AcDbLine
 10
230.8371257858516
 20
64.14964995286379
 30
0.0
 11
230.8371257858516
 21
50.15034995286384
 31
0.0
  0
LINE
  5
6AD
330
6F
100
AcDbEntity
  8
0
 62
     0
100
AcDbLine
 10
230.8371257858516
 20
50.15034995286384
 30
0.0
 11
216.8375757858516
 21
50.15034995286384
 31
0.0
  0
LINE
  5
6AE
330
6F
100
AcDbEntity
  8
0
 62
     0
100
AcDbLine
 10
216.8375757858516
 20
50.15034995286384
 30
0.0
 11
216.8375757858516
 21
64.14964995286379
 31
0.0
  0
CIRCLE
  5
6AF
330
6F
100
AcDbEntity
  8
0
  6
Continuous
100
AcDbCircle
 10
223.8373507858516
 20
57.14999995286382
 30
0.0
 40
2.0
  0
LINE
  5
6B0
330
6F
100
AcDbEntity
  8
0
 62
     0
100
AcDbLine
 10
235.8875757858517
 20
64.14964995286379
 30
0.0
 11
249.8871257858517
 21
64.14964995286379
 31
0.0
  0
LINE
  5
6B1
330
6F
100
AcDbEntity
  8
0
 62
     0
100
AcDbLine
 10
249.8871257858517
 20
64.14964995286379
 30
0.0
 11
249.8871257858517
 21
50.15034995286384
 31
0.0
  0
LINE
  5
6B2
330
6F
100
AcDbEntity
  8
0
 62
     0
100
AcDbLine
 10
249.8871257858517
 20
50.15034995286384
 30
0.0
 11
235.8875757858517
 21
50.15034995286384
 31
0.0
  0
LINE
  5
6B3
330
6F
100
AcDbEntity
  8
0
 62
     0
100
AcDbLine
 10
235.8875757858517
 20
50.15034995286384
 30
0.0
 11
235.8875757858517
 21
64.14964995286379
 31
0.0
  0
CIRCLE
  5
6B4
330
6F
100
AcDbEntity
  8
0
  6
Continuous
100
AcDbCircle
 10
242.8873507858516
 20
57.14999995286382
 30
0.0
 40
2.0
  0
LINE
  5
6B5
330
6F
100
AcDbEntity
  8
0
 62
     0
100
AcDbLine
 10
14.43148578585169
 20
45.09944995286377
 30
0.0
 11
28.43103578585169
 21
45.09944995286377
 31
0.0
  0
LINE
  5
6B6
330
6F
100
AcDbEntity
  8
0
 62
     0
100
AcDbLine
 10
14.43148578585169
 20
31.10014995286383
 30
0.0
 11
14.43148578585169
 21
45.09944995286377
 31
0.0
  0
CIRCLE
  5
6B7
330
6F
100
AcDbEntity
  8
0
  6
Continuous
100
AcDbCircle
 10
21.43126078585169
 20
38.09979995286381
 30
0.0
 40
2.0
  0
LINE
  5
6B8
330
6F
100
AcDbEntity
  8
0
 62
     0
100
AcDbLine
 10
54.91277578585169
 20
45.09944995286377
 30
0.0
 11
68.91232578585164
 21
45.09944995286377
 31
0.0
  0
LINE
  5
6B9
330
6F
100
AcDbEntity
  8
0
 62
     0
100
AcDbLine
 10
68.91232578585164
 20
45.09944995286377
 30
0.0
 11
68.91232578585164
 21
31.10014995286383
 31
0.0
  0
LINE
  5
6BA
330
6F
100
AcDbEntity
  8
0
 62
     0
100
AcDbLine
 10
68.91232578585164
 20
31.10014995286383
 30
0.0
 11
54.91277578585169
 21
31.10014995286383
 31
0.0
  0
LINE
  5
6BB
330
6F
100
AcDbEntity
  8
0
 62
     0
100
AcDbLine
 10
54.91277578585169
 20
31.10014995286383
 30
0.0
 11
54.91277578585169
 21
45.09944995286377
 31
0.0
  0
CIRCLE
  5
6BC
330
6F
100
AcDbEntity
  8
0
  6
Continuous
100
AcDbCircle
 10
61.91255078585164
 20
38.09979995286381
 30
0.0
 40
2.0
  0
LINE
  5
6BD
330
6F
100
AcDbEntity
  8
0
 62
     0
100
AcDbLine
 10
254.9375757858517
 20
50.15034995286384
 30
0.0
 11
254.9375757858517
 21
64.14964995286379
 31
0.0
  0
CIRCLE
  5
6BE
330
6F
100
AcDbEntity
  8
0
  6
Continuous
100
AcDbCircle
 10
261.9373507858516
 20
57.14999995286382
 30
0.0
 40
2.0
  0
LINE
  5
6BF
330
6F
100
AcDbEntity
  8
0
 62
     0
100
AcDbLine
 10
73.9627757858517
 20
45.09944995286377
 30
0.0
 11
87.9623257858517
 21
45.09944995286377
 31
0.0
  0
LINE
  5
6C0
330
6F
100
AcDbEntity
  8
0
 62
     0
100
AcDbLine
 10
87.9623257858517
 20
45.09944995286377
 30
0.0
 11
87.9623257858517
 21
31.10014995286383
 31
0.0
  0
LINE
  5
6C1
330
6F
100
AcDbEntity
  8
0
 62
     0
100
AcDbLine
 10
87.9623257858517
 20
31.10014995286383
 30
0.0
 11
73.9627757858517
 21
31.10014995286383
 31
0.0
  0
LINE
  5
6C2
330
6F
100
AcDbEntity
  8
0
 62
     0
100
AcDbLine
 10
73.9627757858517
 20
31.10014995286383
 30
0.0
 11
73.9627757858517
 21
45.09944995286377
 31
0.0
  0
CIRCLE
  5
6C3
330
6F
100
AcDbEntity
  8
0
  6
Continuous
100
AcDbCircle
 10
80.96255078585171
 20
38.09979995286381
 30
0.0
 40
2.0
  0
LINE
  5
6C4
330
6F
100
AcDbEntity
  8
0
 62
     0
100
AcDbLine
 10
93.01277578585166
 20
45.09944995286377
 30
0.0
 11
107.0123257858516
 21
45.09944995286377
 31
0.0
  0
LINE
  5
6C5
330
6F
100
AcDbEntity
  8
0
 62
     0
100
AcDbLine
 10
107.0123257858516
 20
45.09944995286377
 30
0.0
 11
107.0123257858516
 21
31.10014995286383
 31
0.0
  0
LINE
  5
6C6
330
6F
100
AcDbEntity
  8
0
 62
     0
100
AcDbLine
 10
107.0123257858516
 20
31.10014995286383
 30
0.0
 11
93.01277578585166
 21
31.10014995286383
 31
0.0
  0
LINE
  5
6C7
330
6F
100
AcDbEntity
  8
0
 62
     0
100
AcDbLine
 10
93.01277578585166
 20
31.10014995286383
 30
0.0
 11
93.01277578585166
 21
45.09944995286377
 31
0.0
  0
CIRCLE
  5
6C8
330
6F
100
AcDbEntity
  8
0
  6
Continuous
100
AcDbCircle
 10
100.0125507858515
 20
38.09979995286381
 30
0.0
 40
2.0
  0
LINE
  5
6C9
330
6F
100
AcDbEntity
  8
0
 62
     0
100
AcDbLine
 10
112.0625757858516
 20
45.09944995286377
 30
0.0
 11
126.0621257858516
 21
45.09944995286377
 31
0.0
  0
LINE
  5
6CA
330
6F
100
AcDbEntity
  8
0
 62
     0
100
AcDbLine
 10
126.0621257858516
 20
45.09944995286377
 30
0.0
 11
126.0621257858516
 21
31.10014995286383
 31
0.0
  0
LINE
  5
6CB
330
6F
100
AcDbEntity
  8
0
 62
     0
100
AcDbLine
 10
126.0621257858516
 20
31.10014995286383
 30
0.0
 11
112.0625757858516
 21
31.10014995286383
 31
0.0
  0
LINE
  5
6CC
330
6F
100
AcDbEntity
  8
0
 62
     0
100
AcDbLine
 10
112.0625757858516
 20
31.10014995286383
 30
0.0
 11
112.0625757858516
 21
45.09944995286377
 31
0.0
  0
CIRCLE
  5
6CD
330
6F
100
AcDbEntity
  8
0
  6
Continuous
100
AcDbCircle
 10
119.0623507858516
 20
38.09979995286381
 30
0.0
 40
2.0
  0
LINE
  5
6CE
330
6F
100
AcDbEntity
  8
0
 62
     0
100
AcDbLine
 10
131.1125757858517
 20
45.09944995286377
 30
0.0
 11
145.1121257858517
 21
45.09944995286377
 31
0.0
  0
LINE
  5
6CF
330
6F
100
AcDbEntity
  8
0
 62
     0
100
AcDbLine
 10
145.1121257858517
 20
45.09944995286377
 30
0.0
 11
145.1121257858517
 21
31.10014995286383
 31
0.0
  0
LINE
  5
6D0
330
6F
100
AcDbEntity
  8
0
 62
     0
100
AcDbLine
 10
145.1121257858517
 20
31.10014995286383
 30
0.0
 11
131.1125757858517
 21
31.10014995286383
 31
0.0
  0
LINE
  5
6D1
330
6F
100
AcDbEntity
  8
0
 62
     0
100
AcDbLine
 10
131.1125757858517
 20
31.10014995286383
 30
0.0
 11
131.1125757858517
 21
45.09944995286377
 31
0.0
  0
CIRCLE
  5
6D2
330
6F
100
AcDbEntity
  8
0
  6
Continuous
100
AcDbCircle
 10
138.1123507858516
 20
38.09979995286381
 30
0.0
 40
2.0
  0
LINE
  5
6D3
330
6F
100
AcDbEntity
  8
0
 62
     0
100
AcDbLine
 10
150.1625757858517
 20
45.09944995286377
 30
0.0
 11
164.1621257858517
 21
45.09944995286377
 31
0.0
  0
LINE
  5
6D4
330
6F
100
AcDbEntity
  8
0
 62
     0
100
AcDbLine
 10
164.1621257858517
 20
45.09944995286377
 30
0.0
 11
164.1621257858517
 21
31.10014995286383
 31
0.0
  0
LINE
  5
6D5
330
6F
100
AcDbEntity
  8
0
 62
     0
100
AcDbLine
 10
164.1621257858517
 20
31.10014995286383
 30
0.0
 11
150.1625757858517
 21
31.10014995286383
 31
0.0
  0
LINE
  5
6D6
330
6F
100
AcDbEntity
  8
0
 62
     0
100
AcDbLine
 10
150.1625757858517
 20
31.10014995286383
 30
0.0
 11
150.1625757858517
 21
45.09944995286377
 31
0.0
  0
CIRCLE
  5
6D7
330
6F
100
AcDbEntity
  8
0
  6
Continuous
100
AcDbCircle
 10
157.1623507858515
 20
38.09979995286381
 30
0.0
 40
2.0
  0
LINE
  5
6D8
330
6F
100
AcDbEntity
  8
0
 62
     0
100
AcDbLine
 10
169.2125757858516
 20
45.09944995286377
 30
0.0
 11
183.2121257858516
 21
45.09944995286377
 31
0.0
  0
LINE
  5
6D9
330
6F
100
AcDbEntity
  8
0
 62
     0
100
AcDbLine
 10
183.2121257858516
 20
45.09944995286377
 30
0.0
 11
183.2121257858516
 21
31.10014995286383
 31
0.0
  0
LINE
  5
6DA
330
6F
100
AcDbEntity
  8
0
 62
     0
100
AcDbLine
 10
183.2121257858516
 20
31.10014995286383
 30
0.0
 11
169.2125757858516
 21
31.10014995286383
 31
0.0
  0
LINE
  5
6DB
330
6F
100
AcDbEntity
  8
0
 62
     0
100
AcDbLine
 10
169.2125757858516
 20
31.10014995286383
 30
0.0
 11
169.2125757858516
 21
45.09944995286377
 31
0.0
  0
CIRCLE
  5
6DC
330
6F
100
AcDbEntity
  8
0
  6
Continuous
100
AcDbCircle
 10
176.2123507858516
 20
38.09979995286381
 30
0.0
 40
2.0
  0
LINE
  5
6DD
330
6F
100
AcDbEntity
  8
0
 62
     0
100
AcDbLine
 10
188.2625757858517
 20
45.09944995286377
 30
0.0
 11
202.2621257858517
 21
45.09944995286377
 31
0.0
  0
LINE
  5
6DE
330
6F
100
AcDbEntity
  8
0
 62
     0
100
AcDbLine
 10
202.2621257858517
 20
45.09944995286377
 30
0.0
 11
202.2621257858517
 21
31.10014995286383
 31
0.0
  0
LINE
  5
6DF
330
6F
100
AcDbEntity
  8
0
 62
     0
100
AcDbLine
 10
202.2621257858517
 20
31.10014995286383
 30
0.0
 11
188.2625757858517
 21
31.10014995286383
 31
0.0
  0
LINE
  5
6E0
330
6F
100
AcDbEntity
  8
0
 62
     0
100
AcDbLine
 10
188.2625757858517
 20
31.10014995286383
 30
0.0
 11
188.2625757858517
 21
45.09944995286377
 31
0.0
  0
CIRCLE
  5
6E1
330
6F
100
AcDbEntity
  8
0
  6
Continuous
100
AcDbCircle
 10
195.2623507858516
 20
38.09979995286381
 30
0.0
 40
2.0
  0
LINE
  5
6E2
330
6F
100
AcDbEntity
  8
0
 62
     0
100
AcDbLine
 10
207.3125757858516
 20
45.09944995286377
 30
0.0
 11
221.3121257858517
 21
45.09944995286377
 31
0.0
  0
LINE
  5
6E3
330
6F
100
AcDbEntity
  8
0
 62
     0
100
AcDbLine
 10
221.3121257858517
 20
45.09944995286377
 30
0.0
 11
221.3121257858517
 21
31.10014995286383
 31
0.0
  0
LINE
  5
6E4
330
6F
100
AcDbEntity
  8
0
 62
     0
100
AcDbLine
 10
221.3121257858517
 20
31.10014995286383
 30
0.0
 11
207.3125757858516
 21
31.10014995286383
 31
0.0
  0
LINE
  5
6E5
330
6F
100
AcDbEntity
  8
0
 62
     0
100
AcDbLine
 10
207.3125757858516
 20
31.10014995286383
 30
0.0
 11
207.3125757858516
 21
45.09944995286377
 31
0.0
  0
CIRCLE
  5
6E6
330
6F
100
AcDbEntity
  8
0
  6
Continuous
100
AcDbCircle
 10
214.3123507858517
 20
38.09979995286381
 30
0.0
 40
2.0
  0
LINE
  5
6E7
330
6F
100
AcDbEntity
  8
0
 62
     0
100
AcDbLine
 10
226.3625757858517
 20
45.09944995286377
 30
0.0
 11
240.3621257858517
 21
45.09944995286377
 31
0.0
  0
LINE
  5
6E8
330
6F
100
AcDbEntity
  8
0
 62
     0
100
AcDbLine
 10
240.3621257858517
 20
45.09944995286377
 30
0.0
 11
240.3621257858517
 21
31.10014995286383
 31
0.0
  0
LINE
  5
6E9
330
6F
100
AcDbEntity
  8
0
 62
     0
100
AcDbLine
 10
240.3621257858517
 20
31.10014995286383
 30
0.0
 11
226.3625757858517
 21
31.10014995286383
 31
0.0
  0
LINE
  5
6EA
330
6F
100
AcDbEntity
  8
0
 62
     0
100
AcDbLine
 10
226.3625757858517
 20
31.10014995286383
 30
0.0
 11
226.3625757858517
 21
45.09944995286377
 31
0.0
  0
CIRCLE
  5
6EB
330
6F
100
AcDbEntity
  8
0
  6
Continuous
100
AcDbCircle
 10
233.3623507858517
 20
38.09979995286381
 30
0.0
 40
2.0
  0
LINE
  5
6EC
330
6F
100
AcDbEntity
  8
0
 62
     0
100
AcDbLine
 10
252.5565757858517
 20
45.09944995286377
 30
0.0
 11
266.5561257858517
 21
45.09944995286377
 31
0.0
  0
LINE
  5
6ED
330
6F
100
AcDbEntity
  8
0
 62
     0
100
AcDbLine
 10
252.5565757858517
 20
31.10014995286383
 30
0.0
 11
252.5565757858517
 21
45.09944995286377
 31
0.0
  0
CIRCLE
  5
6EE
330
6F
100
AcDbEntity
  8
0
  6
Continuous
100
AcDbCircle
 10
259.5563507858516
 20
38.09979995286381
 30
0.0
 40
2.0
  0
LINE
  5
6EF
330
6F
100
AcDbEntity
  8
0
 62
     0
100
AcDbLine
 10
273.9875757858517
 20
26.04948995286384
 30
0.0
 11
287.9871257858517
 21
26.04948995286384
 31
0.0
  0
LINE
  5
6F0
330
6F
100
AcDbEntity
  8
0
 62
     0
100
AcDbLine
 10
287.9871257858517
 20
12.05018995286377
 30
0.0
 11
273.9875757858517
 21
12.05018995286377
 31
0.0
  0
LINE
  5
6F1
330
6F
100
AcDbEntity
  8
0
 62
     0
100
AcDbLine
 10
273.9875757858517
 20
12.05018995286377
 30
0.0
 11
273.9875757858517
 21
26.04948995286384
 31
0.0
  0
CIRCLE
  5
6F2
330
6F
100
AcDbEntity
  8
0
  6
Continuous
100
AcDbCircle
 10
280.9873507858517
 20
19.04983995286375
 30
0.0
 40
2.0
  0
LINE
  5
6F3
330
6F
100
AcDbEntity
  8
0
 62
     0
100
AcDbLine
 10
250.1755757858516
 20
26.04948995286384
 30
0.0
 11
264.1751257858516
 21
26.04948995286384
 31
0.0
  0
LINE
  5
6F4
330
6F
100
AcDbEntity
  8
0
 62
     0
100
AcDbLine
 10
264.1751257858516
 20
12.05018995286377
 30
0.0
 11
250.1755757858516
 21
12.05018995286377
 31
0.0
  0
LINE
  5
6F5
330
6F
100
AcDbEntity
  8
0
 62
     0
100
AcDbLine
 10
250.1755757858516
 20
12.05018995286377
 30
0.0
 11
250.1755757858516
 21
26.04948995286384
 31
0.0
  0
CIRCLE
  5
6F6
330
6F
100
AcDbEntity
  8
0
  6
Continuous
100
AcDbCircle
 10
257.1753507858516
 20
19.04983995286375
 30
0.0
 40
2.0
  0
LINE
  5
6F7
330
6F
100
AcDbEntity
  8
0
 62
     0
100
AcDbLine
 10
226.3625757858517
 20
26.04948995286384
 30
0.0
 11
240.3621257858517
 21
26.04948995286384
 31
0.0
  0
LINE
  5
6F8
330
6F
100
AcDbEntity
  8
0
 62
     0
100
AcDbLine
 10
240.3621257858517
 20
12.05018995286377
 30
0.0
 11
226.3625757858517
 21
12.05018995286377
 31
0.0
  0
LINE
  5
6F9
330
6F
100
AcDbEntity
  8
0
 62
     0
100
AcDbLine
 10
226.3625757858517
 20
12.05018995286377
 30
0.0
 11
226.3625757858517
 21
26.04948995286384
 31
0.0
  0
CIRCLE
  5
6FA
330
6F
100
AcDbEntity
  8
0
  6
Continuous
100
AcDbCircle
 10
233.3623507858517
 20
19.04983995286375
 30
0.0
 40
2.0
  0
LINE
  5
6FB
330
6F
100
AcDbEntity
  8
0
 62
     0
100
AcDbLine
 10
204.9315757858517
 20
26.04948995286384
 30
0.0
 11
218.9311257858517
 21
26.04948995286384
 31
0.0
  0
LINE
  5
6FC
330
6F
100
AcDbEntity
  8
0
 62
     0
100
AcDbLine
 10
218.9311257858517
 20
26.04948995286384
 30
0.0
 11
218.9311257858517
 21
12.05018995286377
 31
0.0
  0
CIRCLE
  5
6FD
330
6F
100
AcDbEntity
  8
0
  6
Continuous
100
AcDbCircle
 10
211.9313507858517
 20
19.04983995286375
 30
0.0
 40
2.0
  0
LINE
  5
6FE
330
6F
100
AcDbEntity
  8
0
 62
     0
100
AcDbLine
 10
133.4925757858517
 20
26.04948995286384
 30
0.0
 11
147.4921257858517
 21
26.04948995286384
 31
0.0
  0
LINE
  5
6FF
330
6F
100
AcDbEntity
  8
0
 62
     0
100
AcDbLine
 10
147.4921257858517
 20
12.05018995286377
 30
0.0
 11
133.4925757858517
 21
12.05018995286377
 31
0.0
  0
CIRCLE
  5
700
330
6F
100
AcDbEntity
  8
0
  6
Continuous
100
AcDbCircle
 10
140.4923507858516
 20
19.04983995286375
 30
0.0
 40
2.0
  0
LINE
  5
701
330
6F
100
AcDbEntity
  8
0
 62
     0
100
AcDbLine
 10
62.05657578585169
 20
26.04948995286384
 30
0.0
 11
76.05612578585169
 21
26.04948995286384
 31
0.0
  0
LINE
  5
702
330
6F
100
AcDbEntity
  8
0
 62
     0
100
AcDbLine
 10
76.05612578585169
 20
12.05018995286377
 30
0.0
 11
62.05657578585169
 21
12.05018995286377
 31
0.0
  0
LINE
  5
703
330
6F
100
AcDbEntity
  8
0
 62
     0
100
AcDbLine
 10
62.05657578585169
 20
12.05018995286377
 30
0.0
 11
62.05657578585169
 21
26.04948995286384
 31
0.0
  0
CIRCLE
  5
704
330
6F
100
AcDbEntity
  8
0
  6
Continuous
100
AcDbCircle
 10
69.05635078585169
 20
19.04983995286375
 30
0.0
 40
2.0
  0
LINE
  5
705
330
6F
100
AcDbEntity
  8
0
 62
     0
100
AcDbLine
 10
38.24257578585167
 20
26.04948995286384
 30
0.0
 11
52.24212578585166
 21
26.04948995286384
 31
0.0
  0
LINE
  5
706
330
6F
100
AcDbEntity
  8
0
 62
     0
100
AcDbLine
 10
52.24212578585166
 20
12.05018995286377
 30
0.0
 11
38.24257578585167
 21
12.05018995286377
 31
0.0
  0
LINE
  5
707
330
6F
100
AcDbEntity
  8
0
 62
     0
100
AcDbLine
 10
38.24257578585167
 20
12.05018995286377
 30
0.0
 11
38.24257578585167
 21
26.04948995286384
 31
0.0
  0
CIRCLE
  5
708
330
6F
100
AcDbEntity
  8
0
  6
Continuous
100
AcDbCircle
 10
45.24235078585166
 20
19.04983995286375
 30
0.0
 40
2.0
  0
LINE
  5
709
330
6F
100
AcDbEntity
  8
0
 62
     0
100
AcDbLine
 10
14.43148578585169
 20
26.04948995286384
 30
0.0
 11
28.43103578585169
 21
26.04948995286384
 31
0.0
  0
LINE
  5
70A
330
6F
100
AcDbEntity
  8
0
 62
     0
100
AcDbLine
 10
28.43103578585169
 20
12.05018995286377
 30
0.0
 11
14.43148578585169
 21
12.05018995286377
 31
0.0
  0
LINE
  5
70B
330
6F
100
AcDbEntity
  8
0
 62
     0
100
AcDbLine
 10
14.43148578585169
 20
12.05018995286377
 30
0.0
 11
14.43148578585169
 21
26.04948995286384
 31
0.0
  0
CIRCLE
  5
70C
330
6F
100
AcDbEntity
  8
0
  6
Continuous
100
AcDbCircle
 10
21.43126078585169
 20
19.04983995286375
 30
0.0
 40
2.0
  0
LINE
  5
70D
330
6F
100
AcDbEntity
  8
0
 62
     0
100
AcDbLine
 10
259.7005757858517
 20
88.25034995286381
 30
0.0
 11
259.7005757858517
 21
102.2496499528638
 31
0.0
  0
CIRCLE
  5
70E
330
6F
100
AcDbEntity
  8
0
  6
Continuous
100
AcDbCircle
 10
266.7003507858517
 20
95.24999995286378
 30
0.0
 40
2.0
  0
LINE
  5
70F
330
6F
100
AcDbEntity
  8
0
 62
     0
100
AcDbLine
 10
273.9875757858517
 20
83.19964995286374
 30
0.0
 11
287.9871257858517
 21
83.19964995286374
 31
0.0
  0
LINE
  5
710
330
6F
100
AcDbEntity
  8
0
 62
     0
100
AcDbLine
 10
273.9875757858517
 20
69.2003499528638
 30
0.0
 11
273.9875757858517
 21
83.19964995286374
 31
0.0
  0
CIRCLE
  5
711
330
6F
100
AcDbEntity
  8
0
  6
Continuous
100
AcDbCircle
 10
280.9873507858517
 20
76.19999995286383
 30
0.0
 40
2.0
  0
LINE
  5
712
330
6F
100
AcDbEntity
  8
0
 62
     0
100
AcDbLine
 10
262.0810249999999
 20
45.09944999999999
 30
0.0
 11
276.0805749999999
 21
45.09944999999999
 31
0.0
  0
LINE
  5
713
330
6F
100
AcDbEntity
  8
0
 62
     0
100
AcDbLine
 10
276.0805749999999
 20
31.10014999999999
 30
0.0
 11
262.0810249999999
 21
31.10014999999999
 31
0.0
  0
CIRCLE
  5
714
330
6F
100
AcDbEntity
  8
0
  6
Continuous
100
AcDbCircle
 10
269.0808
 20
38.09979999999996
 30
0.0
 40
2.0
  0
LINE
  5
715
330
6F
100
AcDbEntity
  8
0
 62
     0
100
AcDbLine
 10
292.7495750000001
 20
102.2496499999999
 30
0.0
 11
292.7495750000001
 21
88.25034999999997
 31
0.0
  0
CIRCLE
  5
716
330
6F
100
AcDbEntity
  8
0
  6
Continuous
100
AcDbCircle
 10
285.7498000000001
 20
95.25
 30
0.0
 40
2.0
  0
LINE
  5
717
330
6F
100
AcDbEntity
  8
0
 62
     0
100
AcDbLine
 10
290.368575
 20
73.67464999999999
 30
0.0
 11
290.368575
 21
59.67534999999998
 31
0.0
  0
CIRCLE
  5
718
330
6F
100
AcDbEntity
  8
0
  6
Continuous
100
AcDbCircle
 10
283.3688
 20
66.67500000000001
 30
0.0
 40
2.0
  0
LINE
  5
719
330
6F
100
AcDbEntity
  8
0
 62
     0
100
AcDbLine
 10
19.19392499999998
 20
64.14964999999995
 30
0.0
 11
33.19347500000004
 21
64.14964999999995
 31
0.0
  0
LINE
  5
71A
330
6F
100
AcDbEntity
  8
0
 62
     0
100
AcDbLine
 10
33.19347500000004
 20
64.14964999999995
 30
0.0
 11
33.19347500000004
 21
50.15035000000001
 31
0.0
  0
LINE
  5
71B
330
6F
100
AcDbEntity
  8
0
 62
     0
100
AcDbLine
 10
33.19347500000004
 20
50.15035000000001
 30
0.0
 11
19.19392499999998
 21
50.15035000000001
 31
0.0
  0
CIRCLE
  5
71C
330
6F
100
AcDbEntity
  8
0
  6
Continuous
100
AcDbCircle
 10
26.19370000000003
 20
57.14999999999998
 30
0.0
 40
2.0
  0
LINE
  5
71D
330
6F
100
AcDbEntity
  8
0
 62
     0
100
AcDbLine
 10
35.862525
 20
45.09944999999999
 30
0.0
 11
49.862075
 21
45.09944999999999
 31
0.0
  0
LINE
  5
71E
330
6F
100
AcDbEntity
  8
0
 62
     0
100
AcDbLine
 10
49.862075
 20
45.09944999999999
 30
0.0
 11
49.862075
 21
31.10014999999999
 31
0.0
  0
CIRCLE
  5
71F
330
6F
100
AcDbEntity
  8
0
  6
Continuous
100
AcDbCircle
 10
42.8623
 20
38.09979999999996
 30
0.0
 40
2.0
  0
LINE
  5
720
330
6F
100
AcDbEntity
  8
0
 62
     0
100
AcDbLine
 10
16.812725
 20
26.04948999999999
 30
0.0
 11
30.812275
 21
26.04948999999999
 31
0.0
  0
LINE
  5
721
330
6F
100
AcDbEntity
  8
0
 62
     0
100
AcDbLine
 10
30.812275
 20
26.04948999999999
 30
0.0
 11
30.812275
 21
12.05019000000004
 31
0.0
  0
LINE
  5
722
330
6F
100
AcDbEntity
  8
0
 62
     0
100
AcDbLine
 10
30.812275
 20
12.05019000000004
 30
0.0
 11
16.812725
 21
12.05019000000004
 31
0.0
  0
CIRCLE
  5
723
330
6F
100
AcDbEntity
  8
0
  6
Continuous
100
AcDbCircle
 10
23.8125
 20
19.04984000000002
 30
0.0
 40
2.0
  0
LINE
  5
724
330
6F
100
AcDbEntity
  8
0
 62
     0
100
AcDbLine
 10
40.62502499999999
 20
26.04948999999999
 30
0.0
 11
54.62457499999999
 21
26.04948999999999
 31
0.0
  0
LINE
  5
725
330
6F
100
AcDbEntity
  8
0
 62
     0
100
AcDbLine
 10
54.62457499999999
 20
26.04948999999999
 30
0.0
 11
54.62457499999999
 21
12.05019000000004
 31
0.0
  0
LINE
  5
726
330
6F
100
AcDbEntity
  8
0
 62
     0
100
AcDbLine
 10
54.62457499999999
 20
12.05019000000004
 30
0.0
 11
40.62502499999999
 21
12.05019000000004
 31
0.0
  0
CIRCLE
  5
727
330
6F
100
AcDbEntity
  8
0
  6
Continuous
100
AcDbCircle
 10
47.62479999999999
 20
19.04984000000002
 30
0.0
 40
2.0
  0
LINE
  5
728
330
6F
100
AcDbEntity
  8
0
 62
     0
100
AcDbLine
 10
64.43752500000005
 20
26.04948995286384
 30
0.0
 11
78.43707499999993
 21
26.04948995286384
 31
0.0
  0
LINE
  5
729
330
6F
100
AcDbEntity
  8
0
 62
     0
100
AcDbLine
 10
78.43707499999993
 20
26.04948995286384
 30
0.0
 11
78.43707499999993
 21
12.05018995286377
 31
0.0
  0
LINE
  5
72A
330
6F
100
AcDbEntity
  8
0
 62
     0
100
AcDbLine
 10
78.43707499999993
 20
12.05018995286377
 30
0.0
 11
64.43752500000005
 21
12.05018995286377
 31
0.0
  0
CIRCLE
  5
72B
330
6F
100
AcDbEntity
  8
0
  6
Continuous
100
AcDbCircle
 10
71.43729999999994
 20
19.04983995286386
 30
0.0
 40
2.0
  0
LINE
  5
72C
330
6F
100
AcDbEntity
  8
0
 62
     0
100
AcDbLine
 10
145.400025
 20
26.04948999999999
 30
0.0
 11
159.399575
 21
26.04948999999999
 31
0.0
  0
LINE
  5
72D
330
6F
100
AcDbEntity
  8
0
 62
     0
100
AcDbLine
 10
159.399575
 20
12.05019000000004
 30
0.0
 11
145.400025
 21
12.05019000000004
 31
0.0
  0
CIRCLE
  5
72E
330
6F
100
AcDbEntity
  8
0
  6
Continuous
100
AcDbCircle
 10
152.3998
 20
19.04984000000002
 30
0.0
 40
2.0
  0
LINE
  5
72F
330
6F
100
AcDbEntity
  8
0
 62
     0
100
AcDbLine
 10
228.7440249999999
 20
26.04948999999999
 30
0.0
 11
242.743575
 21
26.04948999999999
 31
0.0
  0
LINE
  5
730
330
6F
100
AcDbEntity
  8
0
 62
     0
100
AcDbLine
 10
242.743575
 20
26.04948999999999
 30
0.0
 11
242.743575
 21
12.05019000000004
 31
0.0
  0
LINE
  5
731
330
6F
100
AcDbEntity
  8
0
 62
     0
100
AcDbLine
 10
242.743575
 20
12.05019000000004
 30
0.0
 11
228.7440249999999
 21
12.05019000000004
 31
0.0
  0
CIRCLE
  5
732
330
6F
100
AcDbEntity
  8
0
  6
Continuous
100
AcDbCircle
 10
235.7438
 20
19.04984000000002
 30
0.0
 40
2.0
  0
LINE
  5
733
330
6F
100
AcDbEntity
  8
0
 62
     0
100
AcDbLine
 10
252.556025
 20
26.04948999999999
 30
0.0
 11
266.555575
 21
26.04948999999999
 31
0.0
  0
LINE
  5
734
330
6F
100
AcDbEntity
  8
0
 62
     0
100
AcDbLine
 10
266.555575
 20
26.04948999999999
 30
0.0
 11
266.555575
 21
12.05019000000004
 31
0.0
  0
LINE
  5
735
330
6F
100
AcDbEntity
  8
0
 62
     0
100
AcDbLine
 10
266.555575
 20
12.05019000000004
 30
0.0
 11
252.556025
 21
12.05019000000004
 31
0.0
  0
CIRCLE
  5
736
330
6F
100
AcDbEntity
  8
0
  6
Continuous
100
AcDbCircle
 10
259.5558
 20
19.04984000000002
 30
0.0
 40
2.0
  0
LINE
  5
737
330
6F
100
AcDbEntity
  8
0
 62
     0
100
AcDbLine
 10
276.369025
 20
26.04948999999999
 30
0.0
 11
290.368575
 21
26.04948999999999
 31
0.0
  0
LINE
  5
738
330
6F
100
AcDbEntity
  8
0
 62
     0
100
AcDbLine
 10
290.368575
 20
26.04948999999999
 30
0.0
 11
290.368575
 21
12.05019000000004
 31
0.0
  0
LINE
  5
739
330
6F
100
AcDbEntity
  8
0
 62
     0
100
AcDbLine
 10
290.368575
 20
12.05019000000004
 30
0.0
 11
276.369025
 21
12.05019000000004
 31
0.0
  0
CIRCLE
  5
73A
330
6F
100
AcDbEntity
  8
0
  6
Continuous
100
AcDbCircle
 10
283.3688
 20
19.04984000000002
 30
0.0
 40
2.0
  0
LINE
  5
73B
330
6F
100
AcDbEntity
  8
0
 62
     0
100
AcDbLine
 10
278.750025
 20
45.09944999999999
 30
0.0
 11
292.7495750000001
 21
45.09944999999999
 31
0.0
  0
LINE
  5
73C
330
6F
100
AcDbEntity
  8
0
 62
     0
100
AcDbLine
 10
292.7495750000001
 20
45.09944999999999
 30
0.0
 11
292.7495750000001
 21
31.10014999999999
 31
0.0
  0
CIRCLE
  5
73D
330
6F
100
AcDbEntity
  8
0
  6
Continuous
100
AcDbCircle
 10
285.7498000000001
 20
38.09979999999996
 30
0.0
 40
2.0
  0
CIRCLE
  5
73E
330
6F
100
AcDbEntity
  8
0
  6
Continuous
100
AcDbCircle
 10
273.8428000000001
 20
57.1499
 30
0.0
 40
2.0
  0
CIRCLE
  5
73F
330
6F
100
AcDbEntity
  8
0
  6
Continuous
100
AcDbCircle
 10
276.225575
 20
95.25319159977788
 30
0.0
 40
2.0
  0
CIRCLE
  5
740
330
6F
100
AcDbEntity
  8
0
  6
Continuous
100
AcDbCircle
 10
30.95560000000001
 20
38.09979999999996
 30
0.0
 40
2.0
  0
LINE
  5
741
330
6F
100
AcDbEntity
  8
0
  6
Continuous
100
AcDbLine
 10
10.05000000000001
 20
95.25
 30
0.0
 11
10.05000000000001
 21
102.25
 31
0.0
  0
LINE
  5
742
330
6F
100
AcDbEntity
  8
0
  6
Continuous
100
AcDbLine
 10
12.05000000000001
 20
104.25
 30
0.0
 11
292.7498
 21
104.25
 31
0.0
  0
ARC
  5
743
330
6F
100
AcDbEntity
  8
0
  6
Continuous
100
AcDbCircle
 10
12.05000000000001
 20
102.25
 30
0.0
 40
2.0
100
AcDbArc
 50
90.0
 51
180.0
  0
LINE
  5
744
330
6F
100
AcDbEntity
  8
0
  6
Continuous
100
AcDbLine
 10
294.7498
 20
102.25
 30
0.0
 11
294.7498
 21
12.04984000000002
 31
0.0
  0
ARC
  5
745
330
6F
100
AcDbEntity
  8
0
  6
Continuous
100
AcDbCircle
 10
292.7498
 20
102.25
 30
0.0
 40
2.0
100
AcDbArc
 50
0.0
 51
90.0
  0
LINE
  5
746
330
6F
100
AcDbEntity
  8
0
  6
Continuous
100
AcDbLine
 10
292.7498
 20
10.04984000000002
 30
0.0
 11
12.04999999999995
 21
10.04984000000002
 31
0.0
  0
ARC
  5
747
330
6F
100
AcDbEntity
  8
0
  6
Continuous
100
AcDbCircle
 10
12.05000000000001
 20
12.04984000000002
 30
0.0
 40
2.0
100
AcDbArc
 50
180.0
 51
270.0
  0
ARC
  5
748
330
6F
100
AcDbEntity
  8
0
  6
Continuous
100
AcDbCircle
 10
292.7498
 20
12.04984000000002
 30
0.0
 40
2.0
100
AcDbArc
 50
270.0
 51
0.0
  0
LINE
  5
749
330
6F
100
AcDbEntity
  8
0
  6
Continuous
100
AcDbLine
 10
10.05000000000001
 20
12.04984000000002
 30
0.0
 11
10.05000000000001
 21
95.25
 31
0.0
  0
LINE
  5
74A
330
6F
100
AcDbEntity
  8
0
  6
Continuous
100
AcDbLine
 10
23.05000000000001
 20
104.25
 30
0.0
 11
23.05000000000001
 21
106.25
 31
0.0
  0
LINE
  5
74B
330
6F
100
AcDbEntity
  8
0
  6
Continuous
100
AcDbLine
 10
23.05000000000001
 20
106.25
 30
0.0
 11
32.55000000000001
 21
106.25
 31
0.0
  0
LINE
  5
74C
330
6F
100
AcDbEntity
  8
0
  6
Continuous
100
AcDbLine
 10
32.55000000000001
 20
106.25
 30
0.0
 11
32.55000000000001
 21
104.25
 31
0.0
  0
LINE
  5
74D
330
6F
100
AcDbEntity
  8
0
  6
Continuous
100
AcDbLine
 10
149.3999
 20
112.6196634165462
 30
0.0
 11
155.3999
 21
112.6196634165462
 31
0.0
  0
LINE
  5
74E
330
6F
100
AcDbEntity
  8
0
  6
Continuous
100
AcDbLine
 10
171.7071887279851
 20
16.611961138683
 30
0.0
 11
171.7071887279851
 21
21.48771876704438
 31
0.0
  0
LINE
  5
74F
330
6F
100
AcDbEntity
  8
0
  6
Continuous
100
AcDbLine
 10
175.9297186968417
 20
19.04983995286375
 30
0.0
 11
171.7071887279851
 21
21.48771876704438
 31
0.0
  0
LINE
  5
750
330
6F
100
AcDbEntity
  8
0
  6
Continuous
100
AcDbLine
 10
171.7071887279851
 20
16.611961138683
 30
0.0
 11
175.9297186968417
 21
19.04983995286375
 31
0.0
  0
ARC
  5
751
330
6F
100
AcDbEntity
  8
0
  6
Continuous
100
AcDbCircle
 10
173.2261504712465
 20
-50.26180954719677
 30
0.0
 40
74.8335163713037
100
AcDbArc
 50
85.72122980858436
 51
94.29426434875702
  0
ARC
  5
752
330
6F
100
AcDbEntity
  8
0
  6
Continuous
100
AcDbCircle
 10
192.4374529405282
 20
19.28646781160944
 30
0.0
 40
27.12254253023342
100
AcDbArc
 50
173.8076538217684
 51
187.179946537223
  0
ARC
  5
753
330
6F
100
AcDbEntity
  8
0
  6
Continuous
100
AcDbCircle
 10
167.6226989148454
 20
22.21208294747635
 30
0.0
 40
2.149538833227438
100
AcDbArc
 50
89.999999998466
 51
179.9999999998892
  0
ARC
  5
754
330
6F
100
AcDbEntity
  8
0
  6
Continuous
100
AcDbCircle
 10
173.3140160565046
 20
88.36683811371711
 30
0.0
 40
74.8335163713037
100
AcDbArc
 50
265.6793030130697
 51
274.2523375532432
  0
ARC
  5
755
330
6F
100
AcDbEntity
  8
0
  6
Continuous
100
AcDbCircle
 10
167.6771302408875
 20
15.89553840841256
 30
0.0
 40
2.149538833227438
100
AcDbArc
 50
179.9735673619383
 51
269.9735673633615
  0
ARC
  5
756
330
6F
100
AcDbEntity
  8
0
  6
Continuous
100
AcDbCircle
 10
154.0448762683301
 20
19.04839191953169
 30
0.0
 40
27.12254253023342
100
AcDbArc
 50
353.3738047862767
 51
6.746097501735345
  0
ARC
  5
757
330
6F
100
AcDbEntity
  8
0
  6
Continuous
100
AcDbCircle
 10
178.8301963565103
 20
22.21369591833104
 30
0.0
 40
2.149538833227438
100
AcDbArc
 50
0.5537513236085035
 51
90.5537513250351
  0
ARC
  5
758
330
6F
100
AcDbEntity
  8
0
  6
Continuous
100
AcDbCircle
 10
178.8368146597558
 20
15.89692032620394
 30
0.0
 40
2.149538833227438
100
AcDbArc
 50
270.5801839601463
 51
0.5801839615663572
  0
LINE
  5
759
330
6F
100
AcDbEntity
  8
0
  6
Continuous
100
AcDbLine
 10
147.3999
 20
110.25
 30
0.0
 11
147.3999
 21
104.25
 31
0.0
  0
LINE
  5
75A
330
6F
100
AcDbEntity
  8
0
  6
Continuous
100
AcDbLine
 10
147.3999
 20
110.25
 30
0.0
 11
157.3999
 21
110.25
 31
0.0
  0
LINE
  5
75B
330
6F
100
AcDbEntity
  8
0
  6
Continuous
100
AcDbLine
 10
157.3999
 20
110.25
 30
0.0
 11
157.3999
 21
104.25
 31
0.0
  0
LINE
  5
75C
330
6F
100
AcDbEntity
  8
0
  6
Continuous
100
AcDbLine
 10
0.0
 20
0.0
 30
0.0
 11
0.0
 21
95.25
 31
0.0
  0
LINE
  5
75D
330
6F
100
AcDbEntity
  8
0
  6
Continuous
100
AcDbLine
 10
0.0
 20
95.25
 30
0.0
 11
19.05000000000001
 21
95.25
 31
0.0
  0
LINE
  5
75E
330
6F
100
AcDbEntity
  8
0
  6
Continuous
100
AcDbLine
 10
113.0260766384442
 20
23.25901693853211
 30
0.0
 11
114.1648481170306
 21
23.25901693853211
 31
0.0
  0
LINE
  5
75F
330
6F
100
AcDbEntity
  8
0
  6
Continuous
100
AcDbLine
 10
114.1648481170306
 20
23.25901693853211
 30
0.0
 11
114.1648481170306
 21
19.61922569215699
 31
0.0
  0
LINE
  5
760
330
6F
100
AcDbEntity
  8
0
  6
Continuous
100
AcDbLine
 10
114.1648481170306
 20
19.61922569215699
 30
0.0
 11
116.251271129413
 21
19.61922569215699
 31
0.0
  0
LINE
  5
761
330
6F
100
AcDbEntity
  8
0
  6
Continuous
100
AcDbLine
 10
116.251271129413
 20
19.61922569215699
 30
0.0
 11
116.251271129413
 21
25.52208040202049
 31
0.0
  0
LINE
  5
762
330
6F
100
AcDbEntity
  8
0
  6
Continuous
100
AcDbLine
 10
113.0260766384442
 20
19.04983995286375
 30
0.0
 11
113.0260766384442
 21
23.25901693853211
 31
0.0
  0
LINE
  5
763
330
6F
100
AcDbEntity
  8
0
  6
Continuous
100
AcDbLine
 10
116.251271129413
 20
25.52208040202049
 30
0.0
 11
116.8206568687062
 21
25.52208040202049
 31
0.0
  0
LINE
  5
764
330
6F
100
AcDbEntity
  8
0
  6
Continuous
100
AcDbLine
 10
120.6152370989682
 20
23.25901693853211
 30
0.0
 11
119.4764656203817
 21
23.25901693853211
 31
0.0
  0
LINE
  5
765
330
6F
100
AcDbEntity
  8
0
  6
Continuous
100
AcDbLine
 10
119.4764656203817
 20
23.25901693853211
 30
0.0
 11
119.4764656203817
 21
19.6192256921571
 31
0.0
  0
LINE
  5
766
330
6F
100
AcDbEntity
  8
0
  6
Continuous
100
AcDbLine
 10
119.4764656203817
 20
19.6192256921571
 30
0.0
 11
117.3900426079995
 21
19.61922569215699
 31
0.0
  0
LINE
  5
767
330
6F
100
AcDbEntity
  8
0
  6
Continuous
100
AcDbLine
 10
117.3900426079995
 20
19.61922569215699
 30
0.0
 11
117.3900426079993
 21
25.52208040202049
 31
0.0
  0
LINE
  5
768
330
6F
100
AcDbEntity
  8
0
  6
Continuous
100
AcDbLine
 10
120.6152370989682
 20
19.04983995286386
 30
0.0
 11
120.6152370989682
 21
23.25901693853211
 31
0.0
  0
LINE
  5
769
330
6F
100
AcDbEntity
  8
0
  6
Continuous
100
AcDbLine
 10
117.3900426079993
 20
25.52208040202049
 30
0.0
 11
116.8206568687062
 21
25.52208040202049
 31
0.0
  0
LINE
  5
76A
330
6F
100
AcDbEntity
  8
0
  6
Continuous
100
AcDbLine
 10
113.0260766384442
 20
14.8406629671955
 30
0.0
 11
114.1648481170306
 21
14.8406629671955
 31
0.0
  0
LINE
  5
76B
330
6F
100
AcDbEntity
  8
0
  6
Continuous
100
AcDbLine
 10
114.1648481170306
 20
14.8406629671955
 30
0.0
 11
114.1648481170306
 21
18.48045421357062
 31
0.0
  0
LINE
  5
76C
330
6F
100
AcDbEntity
  8
0
  6
Continuous
100
AcDbLine
 10
114.1648481170306
 20
18.48045421357062
 30
0.0
 11
116.251271129413
 21
18.48045421357062
 31
0.0
  0
LINE
  5
76D
330
6F
100
AcDbEntity
  8
0
  6
Continuous
100
AcDbLine
 10
116.251271129413
 20
18.48045421357062
 30
0.0
 11
116.251271129413
 21
12.57759950370712
 31
0.0
  0
LINE
  5
76E
330
6F
100
AcDbEntity
  8
0
  6
Continuous
100
AcDbLine
 10
113.0260766384442
 20
19.04983995286375
 30
0.0
 11
113.0260766384442
 21
14.8406629671955
 31
0.0
  0
LINE
  5
76F
330
6F
100
AcDbEntity
  8
0
  6
Continuous
100
AcDbLine
 10
116.251271129413
 20
12.57759950370712
 30
0.0
 11
116.8206568687062
 21
12.57759950370712
 31
0.0
  0
LINE
  5
770
330
6F
100
AcDbEntity
  8
0
  6
Continuous
100
AcDbLine
 10
120.6152370989682
 20
14.8406629671955
 30
0.0
 11
119.4764656203817
 21
14.8406629671955
 31
0.0
  0
LINE
  5
771
330
6F
100
AcDbEntity
  8
0
  6
Continuous
100
AcDbLine
 10
119.4764656203817
 20
14.8406629671955
 30
0.0
 11
119.4764656203817
 21
18.48045421357062
 31
0.0
  0
LINE
  5
772
330
6F
100
AcDbEntity
  8
0
  6
Continuous
100
AcDbLine
 10
119.4764656203817
 20
18.48045421357062
 30
0.0
 11
117.3900426079995
 21
18.48045421357062
 31
0.0
  0
LINE
  5
773
330
6F
100
AcDbEntity
  8
0
  6
Continuous
100
AcDbLine
 10
117.3900426079995
 20
18.48045421357062
 30
0.0
 11
117.3900426079995
 21
12.57759950370712
 31
0.0
  0
LINE
  5
774
330
6F
100
AcDbEntity
  8
0
  6
Continuous
100
AcDbLine
 10
120.6152370989682
 20
19.04983995286386
 30
0.0
 11
120.6152370989682
 21
14.8406629671955
 31
0.0
  0
LINE
  5
775
330
6F
100
AcDbEntity
  8
0
  6
Continuous
100
AcDbLine
 10
117.3900426079995
 20
12.57759950370712
 30
0.0
 11
116.8206568687062
 21
12.57759950370712
 31
0.0
  0
CIRCLE
  5
776
330
6F
100
AcDbEntity
  8
0
  6
Continuous
100
AcDbCircle
 10
116.8206568687062
 20
19.04983995286375
 30
0.0
 40
6.79917202145759
  0
LINE
  5
777
330
6F
100
AcDbEntity
  8
0
  6
Continuous
100
AcDbLine
 10
23.05000000000001
 20
108.65
 30
0.0
 11
32.55000000000001
 21
108.65
 31
0.0
  0
MTEXT
  5
778
330
6F
100
AcDbEntity
  8
0
  6
Continuous
100
AcDbMText
 10
82.93282086737633
 20
24.19138190208969
 30
0.0
 40
0.2
 41
100.6979583759039
 46
0.0
 71
     1
 72
     5
  1
{\fRoboto Condensed|b0|i0|c0|p0;\H15x;HAD60 REV.0\H1.33333x;\P\H0.925x;hadi.works\Ftxt|c0;\P\fRoboto Condensed|b0|i0|c0|p0;\H0.27027x;designed by hadi iskandarani, may 2020}
 73
     1
 44
1.0
101
Embedded Object
 70
     1
 10
1.0
 20
0.0
 30
0.0
 11
82.93282086737633
 21
24.19138190208969
 31
0.0
 40
100.6979583759039
 41
0.0
 42
21.84065934065934
 43
10.6894512378697
 71
     2
 72
     1
 44
100.6979583759039
 45
1.0
 73
     0
 74
     0
 46
0.0
  0
POINT
  5
779
330
6F
100
AcDbEntity
  8
0
  6
Continuous
100
AcDbPoint
 10
0.0
 20
0.0
 30
0.0
  0
ENDSEC
  0
SECTION
  2
OBJECTS
  0
DICTIONARY
  5
C
330
0
100
AcDbDictionary
281
     1
  3
ACAD_CIP_PREVIOUS_PRODUCT_INFO
350
1D6
  3
ACAD_COLOR
350
62
  3
ACAD_DETAILVIEWSTYLE
350
69
  3
ACAD_GROUP
350
D
  3
ACAD_LAYOUT
350
61
  3
ACAD_MATERIAL
350
10
  3
ACAD_MLEADERSTYLE
350
65
  3
ACAD_MLINESTYLE
350
5E
  3
ACAD_PLOTSETTINGS
350
60
  3
ACAD_PLOTSTYLENAME
350
E
  3
ACAD_SCALELIST
350
42
  3
ACAD_SECTIONVIEWSTYLE
350
67
  3
ACAD_TABLESTYLE
350
63
  3
ACAD_VISUALSTYLE
350
29
  3
ACDB_RECOMPOSE_DATA
350
D5E
  3
AcDbVariableDictionary
350
78B
  0
DICTIONARY
  5
1D8
330
2
100
AcDbDictionary
280
     1
281
     1
  3
ACAD_LAYERSTATES
360
1D9
  0
DICTIONARY
  5
782
330
54
100
AcDbDictionary
280
     1
281
     1
  3
ADSK_XREC_LAYER_RECONCILED
360
783
  0
XRECORD
  5
1D6
102
{ACAD_REACTORS
330
C
102
}
330
C
100
AcDbXrecord
280
     1
300
ACDMAC
300
2019
300
ACD_F_S
  0
DICTIONARY
  5
62
102
{ACAD_REACTORS
330
C
102
}
330
C
100
AcDbDictionary
281
     1
  0
DICTIONARY
  5
69
102
{ACAD_REACTORS
330
C
102
}
330
C
100
AcDbDictionary
281
     1
  3
Imperial24
350
6A
  0
DICTIONARY
  5
D
102
{ACAD_REACTORS
330
C
102
}
330
C
100
AcDbDictionary
281
     1
  0
DICTIONARY
  5
61
102
{ACAD_REACTORS
330
C
102
}
330
C
100
AcDbDictionary
281
     1
  3
Layout1
350
6E
  3
Model
350
72
  0
DICTIONARY
  5
10
102
{ACAD_REACTORS
330
C
102
}
330
C
100
AcDbDictionary
281
     1
  3
ByBlock
350
19
  3
ByLayer
350
11
  3
Global
350
21
  0
DICTIONARY
  5
65
102
{ACAD_REACTORS
330
C
102
}
330
C
100
AcDbDictionary
281
     1
  3
Standard
350
66
  0
DICTIONARY
  5
5E
102
{ACAD_REACTORS
330
C
102
}
330
C
100
AcDbDictionary
281
     1
  3
Standard
350
5F
  0
DICTIONARY
  5
60
102
{ACAD_REACTORS
330
C
102
}
330
C
100
AcDbDictionary
281
     1
  0
ACDBDICTIONARYWDFLT
  5
E
102
{ACAD_REACTORS
330
C
102
}
330
C
100
AcDbDictionary
281
     1
  3
Normal
350
F
100
AcDbDictionaryWithDefault
340
F
  0
DICTIONARY
  5
42
102
{ACAD_REACTORS
330
C
102
}
330
C
100
AcDbDictionary
281
     1
  3
A0
350
43
  3
A1
350
44
  3
A2
350
45
  3
A3
350
46
  3
A4
350
47
  3
A5
350
48
  3
A6
350
49
  3
A7
350
4A
  3
A8
350
4B
  3
A9
350
4C
  3
B0
350
4D
  3
B1
350
4E
  3
B2
350
4F
  3
B3
350
50
  3
B4
350
51
  3
B5
350
52
  3
B6
350
53
  0
DICTIONARY
  5
67
102
{ACAD_REACTORS
330
C
102
}
330
C
100
AcDbDictionary
281
     1
  3
Imperial24
350
68
  0
DICTIONARY
  5
63
102
{ACAD_REACTORS
330
C
102
}
330
C
100
AcDbDictionary
281
     1
  3
Standard
350
64
  0
DICTIONARY
  5
29
102
{ACAD_REACTORS
330
C
102
}
330
C
100
AcDbDictionary
281
     1
  3
2dWireframe
350
2F
  3
Basic
350
2E
  3
Brighten
350
35
  3
ColorChange
350
39
  3
Conceptual
350
32
  3
Dim
350
34
  3
EdgeColorOff
350
41
  3
Facepattern
350
38
  3
Flat
350
2A
  3
FlatWithEdges
350
2B
  3
Gouraud
350
2C
  3
GouraudWithEdges
350
2D
  3
Hidden
350
31
  3
JitterOff
350
3F
  3
Linepattern
350
37
  3
OverhangOff
350
40
  3
Realistic
350
33
  3
Shaded
350
3E
  3
Shaded with edges
350
3D
  3
Shades of Gray
350
3A
  3
Sketchy
350
3B
  3
Thicken
350
36
  3
Wireframe
350
30
  3
X-Ray
350
3C
  0
XRECORD
  5
D5E
102
{ACAD_REACTORS
330
C
102
}
330
C
100
AcDbXrecord
280
     1
 90
        1
330
64
  0
DICTIONARY
  5
78B
102
{ACAD_REACTORS
330
C
102
}
330
C
100
AcDbDictionary
281
     1
  3
CANNOSCALE
350
791
  3
CMLEADERSTYLE
350
78D
  3
CTABLESTYLE
350
78C
  3
CVIEWDETAILSTYLE
350
78E
  3
CVIEWSECTIONSTYLE
350
78F
  3
LAYEREVAL
350
793
  3
LAYERNOTIFY
350
794
  3
LIGHTINGUNITS
350
792
  3
MSLTSCALE
350
790
  0
DICTIONARY
  5
1D9
102
{ACAD_REACTORS
330
1D8
102
}
330
1D8
100
AcDbDictionary
281
     1
  0
XRECORD
  5
783
102
{ACAD_REACTORS
330
782
102
}
330
782
100
AcDbXrecord
280
     1
290
     1
  0
ACDBDETAILVIEWSTYLE
  5
6A
102
{ACAD_REACTORS
330
69
102
}
330
69
100
AcDbModelDocViewStyle
 70
     0
  3
Imperial24
290
     0
300
Imperial24
 90
        0
100
AcDbDetailViewStyle
 70
     0
 71
     0
 90
        3
 71
     1
340
55
 62
   256
 40
0.24
340
0
 62
   256
 40
0.24
300

 40
0.36
280
     3
 71
     2
340
5C
 90
       25
 62
   256
 71
     3
340
55
 62
   256
 40
0.24
 90
        1
 40
0.75
 90
        1
300
%<\AcVar ViewType \f "%tc1">% %<\AcVar ViewDetailId>%\PSCALE %<\AcVar ViewScale \f "%sn">%
 71
     4
340
5C
 90
       25
 62
   256
340
5C
 90
       25
 62
   256
280
     0
  0
LAYOUT
  5
6E
102
{ACAD_REACTORS
330
61
102
}
330
61
100
AcDbPlotSettings
  1

  2

  4

  6

 40
0.0
 41
0.0
 42
0.0
 43
0.0
 44
0.0
 45
0.0
 46
0.0
 47
0.0
 48
0.0
 49
0.0
140
0.0
141
0.0
142
1.0
143
1.0
 70
   688
 72
     0
 73
     0
 74
     5
  7

 75
    16
147
1.0
 76
     0
 77
     2
 78
   300
148
0.0
149
0.0
100
AcDbLayout
  1
Layout1
 70
     1
 71
     1
 10
0.0
 20
0.0
 11
12.0
 21
9.0
 12
0.0
 22
0.0
 32
0.0
 14
1.000000000000000E+20
 24
1.000000000000000E+20
 34
1.000000000000000E+20
 15
-1.000000000000000E+20
 25
-1.000000000000000E+20
 35
-1.000000000000000E+20
146
0.0
 13
0.0
 23
0.0
 33
0.0
 16
1.0
 26
0.0
 36
0.0
 17
0.0
 27
1.0
 37
0.0
 76
     0
330
6B
  0
LAYOUT
  5
72
102
{ACAD_REACTORS
330
61
102
}
330
61
100
AcDbPlotSettings
  1

  2

  4

  6

 40
0.0
 41
0.0
 42
0.0
 43
0.0
 44
0.0
 45
0.0
 46
0.0
 47
0.0
 48
0.0
 49
0.0
140
0.0
141
0.0
142
1.0
143
1.0
 70
  1712
 72
     0
 73
     0
 74
     0
  7

 75
     0
147
1.0
 76
     0
 77
     2
 78
   300
148
0.0
149
0.0
100
AcDbLayout
  1
Model
 70
     1
 71
     0
 10
0.0
 20
0.0
 11
12.0
 21
9.0
 12
0.0
 22
0.0
 32
0.0
 14
0.0
 24
0.0
 34
0.0
 15
0.0
 25
0.0
 35
0.0
146
0.0
 13
0.0
 23
0.0
 33
0.0
 16
1.0
 26
0.0
 36
0.0
 17
0.0
 27
1.0
 37
0.0
 76
     0
330
6F
331
74
  0
MATERIAL
  5
19
102
{ACAD_XDICTIONARY
360
1A
102
}
102
{ACAD_REACTORS
330
10
102
}
330
10
100
AcDbMaterial
  1
ByBlock
 72
     0
 43
0.0208333333333333
 43
0.0
 43
0.0
 43
0.0
 43
0.0
 43
0.0208333333333333
 43
0.0
 43
0.0
 43
0.0
 43
0.0
 43
1.0
 43
0.0
 43
0.0
 43
0.0
 43
0.0
 43
1.0
 77
     0
 47
0.0208333333333333
 47
0.0
 47
0.0
 47
0.0
 47
0.0
 47
0.0208333333333333
 47
0.0
 47
0.0
 47
0.0
 47
0.0
 47
1.0
 47
0.0
 47
0.0
 47
0.0
 47
0.0
 47
1.0
171
     0
 49
0.0208333333333333
 49
0.0
 49
0.0
 49
0.0
 49
0.0
 49
0.0208333333333333
 49
0.0
 49
0.0
 49
0.0
 49
0.0
 49
1.0
 49
0.0
 49
0.0
 49
0.0
 49
0.0
 49
1.0
175
     0
142
0.0208333333333333
142
0.0
142
0.0
142
0.0
142
0.0
142
0.0208333333333333
142
0.0
142
0.0
142
0.0
142
0.0
142
1.0
142
0.0
142
0.0
142
0.0
142
0.0
142
1.0
179
     0
144
0.0208333333333333
144
0.0
144
0.0
144
0.0
144
0.0
144
0.0208333333333333
144
0.0
144
0.0
144
0.0
144
0.0
144
1.0
144
0.0
144
0.0
144
0.0
144
0.0
144
1.0
147
0.0208333333333333
147
0.0
147
0.0
147
0.0
147
0.0
147
0.0208333333333333
147
0.0
147
0.0
147
0.0
147
0.0
147
1.0
147
0.0
147
0.0
147
0.0
147
0.0
147
1.0
  0
MATERIAL
  5
11
102
{ACAD_XDICTIONARY
360
12
102
}
102
{ACAD_REACTORS
330
10
102
}
330
10
100
AcDbMaterial
  1
ByLayer
 72
     0
 43
0.0208333333333333
 43
0.0
 43
0.0
 43
0.0
 43
0.0
 43
0.0208333333333333
 43
0.0
 43
0.0
 43
0.0
 43
0.0
 43
1.0
 43
0.0
 43
0.0
 43
0.0
 43
0.0
 43
1.0
 77
     0
 47
0.0208333333333333
 47
0.0
 47
0.0
 47
0.0
 47
0.0
 47
0.0208333333333333
 47
0.0
 47
0.0
 47
0.0
 47
0.0
 47
1.0
 47
0.0
 47
0.0
 47
0.0
 47
0.0
 47
1.0
171
     0
 49
0.0208333333333333
 49
0.0
 49
0.0
 49
0.0
 49
0.0
 49
0.0208333333333333
 49
0.0
 49
0.0
 49
0.0
 49
0.0
 49
1.0
 49
0.0
 49
0.0
 49
0.0
 49
0.0
 49
1.0
175
     0
142
0.0208333333333333
142
0.0
142
0.0
142
0.0
142
0.0
142
0.0208333333333333
142
0.0
142
0.0
142
0.0
142
0.0
142
1.0
142
0.0
142
0.0
142
0.0
142
0.0
142
1.0
179
     0
144
0.0208333333333333
144
0.0
144
0.0
144
0.0
144
0.0
144
0.0208333333333333
144
0.0
144
0.0
144
0.0
144
0.0
144
1.0
144
0.0
144
0.0
144
0.0
144
0.0
144
1.0
147
0.0208333333333333
147
0.0
147
0.0
147
0.0
147
0.0
147
0.0208333333333333
147
0.0
147
0.0
147
0.0
147
0.0
147
1.0
147
0.0
147
0.0
147
0.0
147
0.0
147
1.0
  0
MATERIAL
  5
21
102
{ACAD_XDICTIONARY
360
22
102
}
102
{ACAD_REACTORS
330
10
102
}
330
10
100
AcDbMaterial
  1
Global
 72
     0
 43
0.0208333333333333
 43
0.0
 43
0.0
 43
0.0
 43
0.0
 43
0.0208333333333333
 43
0.0
 43
0.0
 43
0.0
 43
0.0
 43
1.0
 43
0.0
 43
0.0
 43
0.0
 43
0.0
 43
1.0
 77
     0
 47
0.0208333333333333
 47
0.0
 47
0.0
 47
0.0
 47
0.0
 47
0.0208333333333333
 47
0.0
 47
0.0
 47
0.0
 47
0.0
 47
1.0
 47
0.0
 47
0.0
 47
0.0
 47
0.0
 47
1.0
171
     0
 49
0.0208333333333333
 49
0.0
 49
0.0
 49
0.0
 49
0.0
 49
0.0208333333333333
 49
0.0
 49
0.0
 49
0.0
 49
0.0
 49
1.0
 49
0.0
 49
0.0
 49
0.0
 49
0.0
 49
1.0
175
     0
142
0.0208333333333333
142
0.0
142
0.0
142
0.0
142
0.0
142
0.0208333333333333
142
0.0
142
0.0
142
0.0
142
0.0
142
1.0
142
0.0
142
0.0
142
0.0
142
0.0
142
1.0
179
     0
144
0.0208333333333333
144
0.0
144
0.0
144
0.0
144
0.0
144
0.0208333333333333
144
0.0
144
0.0
144
0.0
144
0.0
144
1.0
144
0.0
144
0.0
144
0.0
144
0.0
144
1.0
147
0.0208333333333333
147
0.0
147
0.0
147
0.0
147
0.0
147
0.0208333333333333
147
0.0
147
0.0
147
0.0
147
0.0
147
1.0
147
0.0
147
0.0
147
0.0
147
0.0
147
1.0
  0
MLEADERSTYLE
  5
66
102
{ACAD_REACTORS
330
65
102
}
330
65
100
AcDbMLeaderStyle
179
     2
170
     2
171
     1
172
     0
 90
        2
 40
0.0
 41
0.0
173
     1
 91
-1056964608
340
5A
 92
       -2
290
     1
 42
0.09
291
     1
 43
0.36
  3
Standard
 44
0.18
300

342
55
174
     1
178
     6
175
     1
176
     0
 93
-1056964608
 45
0.18
292
     0
297
     0
 46
0.18
 94
-1056964608
 47
1.0
 49
1.0
140
1.0
293
     1
141
0.0
294
     1
177
     0
142
1.0
295
     0
296
     0
143
0.125
271
     0
272
     9
273
     9
298
     0
  0
MLINESTYLE
  5
5F
102
{ACAD_REACTORS
330
5E
102
}
330
5E
100
AcDbMlineStyle
  2
STANDARD
 70
     0
  3

 62
   256
 51
90.0
 52
90.0
 71
     2
 49
0.5
 62
   256
  6
BYLAYER
 49
-0.5
 62
   256
  6
BYLAYER
  0
ACDBPLACEHOLDER
  5
F
102
{ACAD_REACTORS
330
E
102
}
330
E
  0
SCALE
  5
43
102
{ACAD_REACTORS
330
42
102
}
330
42
100
AcDbScale
 70
     0
300
1:1
140
1.0
141
1.0
290
     1
  0
SCALE
  5
44
102
{ACAD_REACTORS
330
42
102
}
330
42
100
AcDbScale
 70
     0
300
1/128" = 1'-0"
140
0.0078125
141
12.0
290
     0
  0
SCALE
  5
45
102
{ACAD_REACTORS
330
42
102
}
330
42
100
AcDbScale
 70
     0
300
1/64" = 1'-0"
140
0.015625
141
12.0
290
     0
  0
SCALE
  5
46
102
{ACAD_REACTORS
330
42
102
}
330
42
100
AcDbScale
 70
     0
300
1/32" = 1'-0"
140
0.03125
141
12.0
290
     0
  0
SCALE
  5
47
102
{ACAD_REACTORS
330
42
102
}
330
42
100
AcDbScale
 70
     0
300
1/16" = 1'-0"
140
0.0625
141
12.0
290
     0
  0
SCALE
  5
48
102
{ACAD_REACTORS
330
42
102
}
330
42
100
AcDbScale
 70
     0
300
3/32" = 1'-0"
140
0.09375
141
12.0
290
     0
  0
SCALE
  5
49
102
{ACAD_REACTORS
330
42
102
}
330
42
100
AcDbScale
 70
     0
300
1/8" = 1'-0"
140
0.125
141
12.0
290
     0
  0
SCALE
  5
4A
102
{ACAD_REACTORS
330
42
102
}
330
42
100
AcDbScale
 70
     0
300
3/16" = 1'-0"
140
0.1875
141
12.0
290
     0
  0
SCALE
  5
4B
102
{ACAD_REACTORS
330
42
102
}
330
42
100
AcDbScale
 70
     0
300
1/4" = 1'-0"
140
0.25
141
12.0
290
     0
  0
SCALE
  5
4C
102
{ACAD_REACTORS
330
42
102
}
330
42
100
AcDbScale
 70
     0
300
3/8" = 1'-0"
140
0.375
141
12.0
290
     0
  0
SCALE
  5
4D
102
{ACAD_REACTORS
330
42
102
}
330
42
100
AcDbScale
 70
     0
300
1/2" = 1'-0"
140
0.5
141
12.0
290
     0
  0
SCALE
  5
4E
102
{ACAD_REACTORS
330
42
102
}
330
42
100
AcDbScale
 70
     0
300
3/4" = 1'-0"
140
0.75
141
12.0
290
     0
  0
SCALE
  5
4F
102
{ACAD_REACTORS
330
42
102
}
330
42
100
AcDbScale
 70
     0
300
1" = 1'-0"
140
1.0
141
12.0
290
     0
  0
SCALE
  5
50
102
{ACAD_REACTORS
330
42
102
}
330
42
100
AcDbScale
 70
     0
300
1-1/2" = 1'-0"
140
1.5
141
12.0
290
     0
  0
SCALE
  5
51
102
{ACAD_REACTORS
330
42
102
}
330
42
100
AcDbScale
 70
     0
300
3" = 1'-0"
140
3.0
141
12.0
290
     0
  0
SCALE
  5
52
102
{ACAD_REACTORS
330
42
102
}
330
42
100
AcDbScale
 70
     0
300
6" = 1'-0"
140
6.0
141
12.0
290
     0
  0
SCALE
  5
53
102
{ACAD_REACTORS
330
42
102
}
330
42
100
AcDbScale
 70
     0
300
1'-0" = 1'-0"
140
12.0
141
12.0
290
     0
  0
ACDBSECTIONVIEWSTYLE
  5
68
102
{ACAD_REACTORS
330
67
102
}
330
67
100
AcDbModelDocViewStyle
 70
     0
  3
Imperial24
290
     0
300
Imperial24
 90
        0
100
AcDbSectionViewStyle
 70
     0
 71
     0
 90
       78
 71
     1
340
55
 62
   256
 40
0.24
340
0
340
0
 62
   256
 40
0.24
300
I, O, Q, S, X, Z
 40
0.48
 90
        3
 40
0.18
 90
        1
 71
     2
340
5C
 90
       25
 62
   256
340
5C
 90
       50
 62
   256
 40
0.24
 40
0.0
 40
0.24
 71
     3
340
55
 62
   256
 40
0.24
 90
        1
 40
0.75
 90
        1
300
%<\AcVar ViewType \f "%tc1">% %<\AcVar ViewSectionStartId>%-%<\AcVar ViewSectionEndId>%\PSCALE %<\AcVar ViewScale \f "%sn">%
 71
     4
 62
   256
 62
   257
300
ANSI31
 40
1.0
 90
        0
290
     0
290
     0
 90
        6
 40
0.0
 40
1.570796326794896
 40
0.2617993877991494
 40
1.308996938995747
 40
-0.2617993877991494
 40
1.832595714594046
  0
TABLESTYLE
  5
64
102
{ACAD_XDICTIONARY
360
D5C
102
}
102
{ACAD_REACTORS
330
63
102
}
330
63
100
AcDbTableStyle
280
     0
  3
Standard
 70
     0
 71
     0
 40
0.06
 41
0.06
280
     0
281
     0
  7
Standard
140
0.18
170
     2
 62
     0
 63
     7
283
     0
 90
      512
 91
        0
  1

274
    -2
284
     1
 64
     0
275
    -2
285
     1
 65
     0
276
    -2
286
     1
 66
     0
277
    -2
287
     1
 67
     0
278
    -2
288
     1
 68
     0
279
    -2
289
     1
 69
     0
  7
Standard
140
0.25
170
     5
 62
     0
 63
     7
283
     0
 90
      512
 91
        0
  1

274
    -2
284
     1
 64
     0
275
    -2
285
     1
 65
     0
276
    -2
286
     1
 66
     0
277
    -2
287
     1
 67
     0
278
    -2
288
     1
 68
     0
279
    -2
289
     1
 69
     0
  7
Standard
140
0.18
170
     5
 62
     0
 63
     7
283
     0
 90
      512
 91
        0
  1

274
    -2
284
     1
 64
     0
275
    -2
285
     1
 65
     0
276
    -2
286
     1
 66
     0
277
    -2
287
     1
 67
     0
278
    -2
288
     1
 68
     0
279
    -2
289
     1
 69
     0
  0
VISUALSTYLE
  5
2F
102
{ACAD_REACTORS
330
29
102
}
330
29
100
AcDbVisualStyle
  2
2dWireframe
 70
     4
177
     3
291
     0
 70
    58
 90
        0
176
     1
 90
        2
176
     1
 90
        0
176
     1
 90
        0
176
     1
 40
0.6
176
     1
 40
30.0
176
     1
 62
     7
420
 16777215
176
     1
 90
        1
176
     1
 90
        4
176
     1
 62
     7
176
     1
 62
   257
176
     1
 90
        1
176
     1
 90
        1
176
     1
 40
1.0
176
     1
 90
        0
176
     1
 62
   257
176
     1
 40
1.0
176
     1
 90
        1
176
     1
 90
        6
176
     1
 90
        2
176
     1
 62
     7
176
     1
 90
        5
176
     1
 90
        0
176
     1
 90
        0
176
     1
290
     0
176
     1
 90
        1
176
     1
 40
0.0
176
     1
 90
        0
176
     1
290
     1
176
     1
290
     1
176
     1
290
     0
176
     1
290
     0
176
     1
290
     0
176
     1
290
     0
176
     1
290
     0
176
     1
290
     0
176
     1
290
     0
176
     1
 90
       50
176
     1
 40
0.0
176
     1
 40
1.0
176
     1
 90
        0
176
     1
 62
    18
420
        0
176
     1
 90
       50
176
     1
 90
        3
176
     1
 62
     5
420
      255
176
     1
290
     0
176
     1
 90
       50
176
     1
 90
       50
176
     1
 90
       50
176
     1
290
     0
176
     1
 90
       50
176
     1
 62
   256
176
     0
 40
1.0
176
     0
 90
        2
176
     1
  1
strokes_ogs.tif
176
     1
290
     0
176
     1
 40
1.0
176
     1
 40
1.0
176
     1
  0
VISUALSTYLE
  5
2E
102
{ACAD_REACTORS
330
29
102
}
330
29
100
AcDbVisualStyle
  2
Basic
 70
     7
177
     3
291
     1
 70
    58
 90
        1
176
     1
 90
        0
176
     1
 90
        1
176
     1
 90
        0
176
     1
 40
0.6
176
     1
 40
30.0
176
     1
 62
     7
420
 16777215
176
     1
 90
        0
176
     1
 90
        4
176
     1
 62
     7
176
     1
 62
   257
176
     1
 90
        1
176
     1
 90
        1
176
     1
 40
1.0
176
     1
 90
        8
176
     1
 62
     7
176
     1
 40
1.0
176
     1
 90
        1
176
     1
 90
        6
176
     1
 90
        2
176
     1
 62
     7
176
     1
 90
        5
176
     1
 90
        0
176
     1
 90
        0
176
     1
290
     0
176
     1
 90
        1
176
     1
 40
0.0
176
     1
 90
        0
176
     1
290
     0
176
     1
290
     1
176
     1
290
     1
176
     1
290
     0
176
     1
290
     0
176
     1
290
     0
176
     1
290
     0
176
     1
290
     0
176
     1
290
     0
176
     1
 90
       50
176
     1
 40
0.0
176
     1
 40
1.0
176
     1
 90
        0
176
     1
 62
    18
420
        0
176
     1
 90
       50
176
     1
 90
        3
176
     1
 62
     5
420
      255
176
     1
290
     0
176
     1
 90
       50
176
     1
 90
       50
176
     1
 90
       50
176
     1
290
     0
176
     1
 90
       50
176
     1
 62
   256
176
     0
 40
1.0
176
     0
 90
        2
176
     1
  1
strokes_ogs.tif
176
     1
290
     0
176
     1
 40
1.0
176
     1
 40
1.0
176
     1
  0
VISUALSTYLE
  5
35
102
{ACAD_REACTORS
330
29
102
}
330
29
100
AcDbVisualStyle
  2
Brighten
 70
    12
177
     3
291
     1
 70
    58
 90
        2
176
     1
 90
        2
176
     1
 90
        0
176
     1
 90
        0
176
     1
 40
0.6
176
     1
 40
30.0
176
     1
 62
     7
420
 16777215
176
     1
 90
        1
176
     1
 90
        4
176
     1
 62
     7
176
     1
 62
   257
176
     1
 90
        1
176
     1
 90
        1
176
     1
 40
1.0
176
     1
 90
        8
176
     1
 62
     7
176
     1
 40
1.0
176
     1
 90
        1
176
     1
 90
        6
176
     1
 90
        2
176
     1
 62
     7
176
     1
 90
        5
176
     1
 90
        0
176
     1
 90
        0
176
     1
290
     0
176
     1
 90
        1
176
     1
 40
50.0
176
     1
 90
        0
176
     1
290
     0
176
     1
290
     1
176
     1
290
     1
176
     1
290
     0
176
     1
290
     0
176
     1
290
     0
176
     1
290
     0
176
     1
290
     0
176
     1
290
     0
176
     1
 90
       50
176
     1
 40
0.0
176
     1
 40
1.0
176
     1
 90
        0
176
     1
 62
    18
420
        0
176
     1
 90
       50
176
     1
 90
        3
176
     1
 62
     5
420
      255
176
     1
290
     0
176
     1
 90
       50
176
     1
 90
       50
176
     1
 90
       50
176
     1
290
     0
176
     1
 90
       50
176
     1
 62
   256
176
     0
 40
1.0
176
     0
 90
        2
176
     1
  1
strokes_ogs.tif
176
     1
290
     0
176
     1
 40
1.0
176
     1
 40
1.0
176
     1
  0
VISUALSTYLE
  5
39
102
{ACAD_REACTORS
330
29
102
}
330
29
100
AcDbVisualStyle
  2
ColorChange
 70
    16
177
     3
291
     1
 70
    58
 90
        2
176
     1
 90
        2
176
     1
 90
        3
176
     1
 90
        0
176
     1
 40
0.6
176
     1
 40
30.0
176
     1
 62
     8
420
  8421504
176
     1
 90
        1
176
     1
 90
        4
176
     1
 62
     7
176
     1
 62
   257
176
     1
 90
        1
176
     1
 90
        1
176
     1
 40
1.0
176
     1
 90
        8
176
     1
 62
     8
420
  8421504
176
     1
 40
1.0
176
     1
 90
        1
176
     1
 90
        6
176
     1
 90
        2
176
     1
 62
     7
176
     1
 90
        5
176
     1
 90
        0
176
     1
 90
        0
176
     1
290
     0
176
     1
 90
        1
176
     1
 40
0.0
176
     1
 90
        0
176
     1
290
     0
176
     1
290
     1
176
     1
290
     1
176
     1
290
     0
176
     1
290
     0
176
     1
290
     0
176
     1
290
     0
176
     1
290
     0
176
     1
290
     0
176
     1
 90
       50
176
     1
 40
0.0
176
     1
 40
1.0
176
     1
 90
        0
176
     1
 62
    18
420
        0
176
     1
 90
       50
176
     1
 90
        3
176
     1
 62
     5
420
      255
176
     1
290
     0
176
     1
 90
       50
176
     1
 90
       50
176
     1
 90
       50
176
     1
290
     0
176
     1
 90
       50
176
     1
 62
   256
176
     0
 40
1.0
176
     0
 90
        2
176
     1
  1
strokes_ogs.tif
176
     1
290
     0
176
     1
 40
1.0
176
     1
 40
1.0
176
     1
  0
VISUALSTYLE
  5
32
102
{ACAD_REACTORS
330
29
102
}
330
29
100
AcDbVisualStyle
  2
Conceptual
 70
     9
177
     3
291
     0
 70
    58
 90
        3
176
     1
 90
        2
176
     1
 90
        0
176
     1
 90
        0
176
     1
 40
0.6
176
     1
 40
30.0
176
     1
 62
     7
420
 16777215
176
     1
 90
        2
176
     1
 90
        2
176
     1
 62
     7
176
     1
 62
   257
176
     1
 90
        1
176
     1
 90
        1
176
     1
 40
179.0
176
     1
 90
        8
176
     1
 62
     7
176
     1
 40
1.0
176
     1
 90
        1
176
     1
 90
        6
176
     1
 90
        2
176
     1
 62
     7
176
     1
 90
        3
176
     1
 90
        0
176
     1
 90
        0
176
     1
290
     0
176
     1
 90
        1
176
     1
 40
0.0
176
     1
 90
        0
176
     1
290
     0
176
     1
290
     1
176
     1
290
     1
176
     1
290
     0
176
     1
290
     0
176
     1
290
     0
176
     1
290
     0
176
     1
290
     0
176
     1
290
     0
176
     1
 90
       50
176
     1
 40
0.0
176
     1
 40
1.0
176
     1
 90
        0
176
     1
 62
    18
420
        0
176
     1
 90
       50
176
     1
 90
        3
176
     1
 62
     5
420
      255
176
     1
290
     0
176
     1
 90
       50
176
     1
 90
       50
176
     1
 90
       50
176
     1
290
     0
176
     1
 90
       50
176
     1
 62
   256
176
     0
 40
1.0
176
     0
 90
        2
176
     1
  1
strokes_ogs.tif
176
     1
290
     0
176
     1
 40
1.0
176
     1
 40
1.0
176
     1
  0
VISUALSTYLE
  5
34
102
{ACAD_REACTORS
330
29
102
}
330
29
100
AcDbVisualStyle
  2
Dim
 70
    11
177
     3
291
     1
 70
    58
 90
        2
176
     1
 90
        2
176
     1
 90
        0
176
     1
 90
        0
176
     1
 40
0.6
176
     1
 40
30.0
176
     1
 62
     7
420
 16777215
176
     1
 90
        1
176
     1
 90
        4
176
     1
 62
     7
176
     1
 62
   257
176
     1
 90
        1
176
     1
 90
        1
176
     1
 40
1.0
176
     1
 90
        8
176
     1
 62
     7
176
     1
 40
1.0
176
     1
 90
        1
176
     1
 90
        6
176
     1
 90
        2
176
     1
 62
     7
176
     1
 90
        5
176
     1
 90
        0
176
     1
 90
        0
176
     1
290
     0
176
     1
 90
        1
176
     1
 40
-50.0
176
     1
 90
        0
176
     1
290
     0
176
     1
290
     1
176
     1
290
     1
176
     1
290
     0
176
     1
290
     0
176
     1
290
     0
176
     1
290
     0
176
     1
290
     0
176
     1
290
     0
176
     1
 90
       50
176
     1
 40
0.0
176
     1
 40
1.0
176
     1
 90
        0
176
     1
 62
    18
420
        0
176
     1
 90
       50
176
     1
 90
        3
176
     1
 62
     5
420
      255
176
     1
290
     0
176
     1
 90
       50
176
     1
 90
       50
176
     1
 90
       50
176
     1
290
     0
176
     1
 90
       50
176
     1
 62
   256
176
     0
 40
1.0
176
     0
 90
        2
176
     1
  1
strokes_ogs.tif
176
     1
290
     0
176
     1
 40
1.0
176
     1
 40
1.0
176
     1
  0
VISUALSTYLE
  5
41
102
{ACAD_REACTORS
330
29
102
}
330
29
100
AcDbVisualStyle
  2
EdgeColorOff
 70
    22
177
     3
291
     1
 70
    58
 90
        2
176
     0
 90
        2
176
     0
 90
        0
176
     0
 90
        0
176
     0
 40
0.6
176
     0
 40
30.0
176
     0
 62
     7
420
 16777215
176
     0
 90
        1
176
     0
 90
        4
176
     0
 62
     7
176
     0
 62
   257
176
     0
 90
        1
176
     0
 90
        1
176
     0
 40
1.0
176
     0
 90
        8
176
     2
 62
     7
176
     0
 40
1.0
176
     0
 90
        1
176
     0
 90
        6
176
     0
 90
        2
176
     0
 62
     7
176
     0
 90
        5
176
     0
 90
        0
176
     0
 90
        0
176
     0
290
     0
176
     0
 90
        1
176
     0
 40
0.0
176
     0
 90
        0
176
     0
290
     0
176
     1
290
     1
176
     1
290
     1
176
     1
290
     0
176
     1
290
     0
176
     1
290
     0
176
     1
290
     0
176
     1
290
     0
176
     1
290
     0
176
     1
 90
       50
176
     0
 40
0.0
176
     0
 40
1.0
176
     0
 90
        0
176
     0
 62
    18
420
        0
176
     0
 90
       50
176
     0
 90
        3
176
     0
 62
     5
420
      255
176
     0
290
     0
176
     1
 90
       50
176
     0
 90
       50
176
     0
 90
       50
176
     0
290
     0
176
     1
 90
       50
176
     0
 62
   256
176
     0
 40
1.0
176
     0
 90
        2
176
     0
  1
strokes_ogs.tif
176
     0
290
     0
176
     1
 40
1.0
176
     0
 40
1.0
176
     0
  0
VISUALSTYLE
  5
38
102
{ACAD_REACTORS
330
29
102
}
330
29
100
AcDbVisualStyle
  2
Facepattern
 70
    15
177
     3
291
     1
 70
    58
 90
        2
176
     1
 90
        2
176
     1
 90
        0
176
     1
 90
        0
176
     1
 40
0.6
176
     1
 40
30.0
176
     1
 62
     7
420
 16777215
176
     1
 90
        1
176
     1
 90
        4
176
     1
 62
     7
176
     1
 62
   257
176
     1
 90
        1
176
     1
 90
        1
176
     1
 40
1.0
176
     1
 90
        8
176
     1
 62
     7
176
     1
 40
1.0
176
     1
 90
        1
176
     1
 90
        6
176
     1
 90
        2
176
     1
 62
     7
176
     1
 90
        5
176
     1
 90
        0
176
     1
 90
        0
176
     1
290
     0
176
     1
 90
        1
176
     1
 40
0.0
176
     1
 90
        0
176
     1
290
     0
176
     1
290
     1
176
     1
290
     1
176
     1
290
     0
176
     1
290
     0
176
     1
290
     0
176
     1
290
     0
176
     1
290
     0
176
     1
290
     0
176
     1
 90
       50
176
     1
 40
0.0
176
     1
 40
1.0
176
     1
 90
        0
176
     1
 62
    18
420
        0
176
     1
 90
       50
176
     1
 90
        3
176
     1
 62
     5
420
      255
176
     1
290
     0
176
     1
 90
       50
176
     1
 90
       50
176
     1
 90
       50
176
     1
290
     0
176
     1
 90
       50
176
     1
 62
   256
176
     0
 40
1.0
176
     0
 90
        2
176
     1
  1
strokes_ogs.tif
176
     1
290
     0
176
     1
 40
1.0
176
     1
 40
1.0
176
     1
  0
VISUALSTYLE
  5
2A
102
{ACAD_REACTORS
330
29
102
}
330
29
100
AcDbVisualStyle
  2
Flat
 70
     0
177
     3
291
     1
 70
    58
 90
        2
176
     1
 90
        1
176
     1
 90
        1
176
     1
 90
        2
176
     1
 40
0.6
176
     1
 40
30.0
176
     1
 62
     7
420
 16777215
176
     1
 90
        0
176
     1
 90
        0
176
     1
 62
     7
176
     1
 62
   257
176
     1
 90
        1
176
     1
 90
        1
176
     1
 40
1.0
176
     1
 90
        8
176
     1
 62
     7
176
     1
 40
1.0
176
     1
 90
        1
176
     1
 90
        6
176
     1
 90
        2
176
     1
 62
     7
176
     1
 90
        5
176
     1
 90
        0
176
     1
 90
        0
176
     1
290
     0
176
     1
 90
       13
176
     1
 40
0.0
176
     1
 90
        0
176
     1
290
     0
176
     1
290
     1
176
     1
290
     1
176
     1
290
     0
176
     1
290
     0
176
     1
290
     0
176
     1
290
     0
176
     1
290
     0
176
     1
290
     0
176
     1
 90
       50
176
     1
 40
0.0
176
     1
 40
1.0
176
     1
 90
        0
176
     1
 62
    18
420
        0
176
     1
 90
       50
176
     1
 90
        3
176
     1
 62
     5
420
      255
176
     1
290
     0
176
     1
 90
       50
176
     1
 90
       50
176
     1
 90
       50
176
     1
290
     0
176
     1
 90
       50
176
     1
 62
   256
176
     0
 40
1.0
176
     0
 90
        2
176
     1
  1
strokes_ogs.tif
176
     1
290
     0
176
     1
 40
1.0
176
     1
 40
1.0
176
     1
  0
VISUALSTYLE
  5
2B
102
{ACAD_REACTORS
330
29
102
}
330
29
100
AcDbVisualStyle
  2
FlatWithEdges
 70
     1
177
     3
291
     1
 70
    58
 90
        2
176
     1
 90
        1
176
     1
 90
        1
176
     1
 90
        2
176
     1
 40
0.6
176
     1
 40
30.0
176
     1
 62
     7
420
 16777215
176
     1
 90
        1
176
     1
 90
        0
176
     1
 62
     7
176
     1
 62
   257
176
     1
 90
        1
176
     1
 90
        1
176
     1
 40
1.0
176
     1
 90
        0
176
     1
 62
   257
176
     1
 40
1.0
176
     1
 90
        1
176
     1
 90
        6
176
     1
 90
        2
176
     1
 62
     7
176
     1
 90
        5
176
     1
 90
        0
176
     1
 90
        0
176
     1
290
     0
176
     1
 90
       13
176
     1
 40
0.0
176
     1
 90
        0
176
     1
290
     0
176
     1
290
     1
176
     1
290
     1
176
     1
290
     0
176
     1
290
     0
176
     1
290
     0
176
     1
290
     0
176
     1
290
     0
176
     1
290
     0
176
     1
 90
       50
176
     1
 40
0.0
176
     1
 40
1.0
176
     1
 90
        0
176
     1
 62
    18
420
        0
176
     1
 90
       50
176
     1
 90
        3
176
     1
 62
     5
420
      255
176
     1
290
     0
176
     1
 90
       50
176
     1
 90
       50
176
     1
 90
       50
176
     1
290
     0
176
     1
 90
       50
176
     1
 62
   256
176
     0
 40
1.0
176
     0
 90
        2
176
     1
  1
strokes_ogs.tif
176
     1
290
     0
176
     1
 40
1.0
176
     1
 40
1.0
176
     1
  0
VISUALSTYLE
  5
2C
102
{ACAD_REACTORS
330
29
102
}
330
29
100
AcDbVisualStyle
  2
Gouraud
 70
     2
177
     3
291
     1
 70
    58
 90
        2
176
     1
 90
        2
176
     1
 90
        1
176
     1
 90
        2
176
     1
 40
0.6
176
     1
 40
30.0
176
     1
 62
     7
420
 16777215
176
     1
 90
        0
176
     1
 90
        0
176
     1
 62
     7
176
     1
 62
   257
176
     1
 90
        1
176
     1
 90
        1
176
     1
 40
1.0
176
     1
 90
        0
176
     1
 62
     7
176
     1
 40
1.0
176
     1
 90
        1
176
     1
 90
        6
176
     1
 90
        2
176
     1
 62
     7
176
     1
 90
        5
176
     1
 90
        0
176
     1
 90
        0
176
     1
290
     0
176
     1
 90
       13
176
     1
 40
0.0
176
     1
 90
        0
176
     1
290
     0
176
     1
290
     1
176
     1
290
     1
176
     1
290
     0
176
     1
290
     0
176
     1
290
     0
176
     1
290
     0
176
     1
290
     0
176
     1
290
     0
176
     1
 90
       50
176
     1
 40
0.0
176
     1
 40
1.0
176
     1
 90
        0
176
     1
 62
    18
420
        0
176
     1
 90
       50
176
     1
 90
        3
176
     1
 62
     5
420
      255
176
     1
290
     0
176
     1
 90
       50
176
     1
 90
       50
176
     1
 90
       50
176
     1
290
     0
176
     1
 90
       50
176
     1
 62
   256
176
     0
 40
1.0
176
     0
 90
        2
176
     1
  1
strokes_ogs.tif
176
     1
290
     0
176
     1
 40
1.0
176
     1
 40
1.0
176
     1
  0
VISUALSTYLE
  5
2D
102
{ACAD_REACTORS
330
29
102
}
330
29
100
AcDbVisualStyle
  2
GouraudWithEdges
 70
     3
177
     3
291
     1
 70
    58
 90
        2
176
     1
 90
        2
176
     1
 90
        1
176
     1
 90
        2
176
     1
 40
0.6
176
     1
 40
30.0
176
     1
 62
     7
420
 16777215
176
     1
 90
        1
176
     1
 90
        0
176
     1
 62
     7
176
     1
 62
   257
176
     1
 90
        1
176
     1
 90
        1
176
     1
 40
1.0
176
     1
 90
        0
176
     1
 62
   257
176
     1
 40
1.0
176
     1
 90
        1
176
     1
 90
        6
176
     1
 90
        2
176
     1
 62
     7
176
     1
 90
        5
176
     1
 90
        0
176
     1
 90
        0
176
     1
290
     0
176
     1
 90
       13
176
     1
 40
0.0
176
     1
 90
        0
176
     1
290
     0
176
     1
290
     1
176
     1
290
     1
176
     1
290
     0
176
     1
290
     0
176
     1
290
     0
176
     1
290
     0
176
     1
290
     0
176
     1
290
     0
176
     1
 90
       50
176
     1
 40
0.0
176
     1
 40
1.0
176
     1
 90
        0
176
     1
 62
    18
420
        0
176
     1
 90
       50
176
     1
 90
        3
176
     1
 62
     5
420
      255
176
     1
290
     0
176
     1
 90
       50
176
     1
 90
       50
176
     1
 90
       50
176
     1
290
     0
176
     1
 90
       50
176
     1
 62
   256
176
     0
 40
1.0
176
     0
 90
        2
176
     1
  1
strokes_ogs.tif
176
     1
290
     0
176
     1
 40
1.0
176
     1
 40
1.0
176
     1
  0
VISUALSTYLE
  5
31
102
{ACAD_REACTORS
330
29
102
}
330
29
100
AcDbVisualStyle
  2
Hidden
 70
     6
177
     3
291
     0
 70
    58
 90
        1
176
     1
 90
        2
176
     1
 90
        2
176
     1
 90
        0
176
     1
 40
0.6
176
     1
 40
30.0
176
     1
 62
     7
420
 16777215
176
     1
 90
        2
176
     1
 90
        2
176
     1
 62
     7
176
     1
 62
   257
176
     1
 90
        2
176
     1
 90
        1
176
     1
 40
40.0
176
     1
 90
        0
176
     1
 62
   257
176
     1
 40
1.0
176
     1
 90
        1
176
     1
 90
        6
176
     1
 90
        2
176
     1
 62
     7
176
     1
 90
        3
176
     1
 90
        0
176
     1
 90
        0
176
     1
290
     0
176
     1
 90
        1
176
     1
 40
0.0
176
     1
 90
        0
176
     1
290
     0
176
     1
290
     1
176
     1
290
     1
176
     1
290
     0
176
     1
290
     0
176
     1
290
     0
176
     1
290
     0
176
     1
290
     0
176
     1
290
     0
176
     1
 90
       50
176
     1
 40
0.0
176
     1
 40
1.0
176
     1
 90
        0
176
     1
 62
    18
420
        0
176
     1
 90
       50
176
     1
 90
        3
176
     1
 62
     5
420
      255
176
     1
290
     0
176
     1
 90
       50
176
     1
 90
       50
176
     1
 90
       50
176
     1
290
     0
176
     1
 90
       50
176
     1
 62
   256
176
     0
 40
1.0
176
     0
 90
        2
176
     1
  1
strokes_ogs.tif
176
     1
290
     0
176
     1
 40
1.0
176
     1
 40
1.0
176
     1
  0
VISUALSTYLE
  5
3F
102
{ACAD_REACTORS
330
29
102
}
330
29
100
AcDbVisualStyle
  2
JitterOff
 70
    20
177
     3
291
     1
 70
    58
 90
        2
176
     0
 90
        2
176
     0
 90
        0
176
     0
 90
        0
176
     0
 40
0.6
176
     0
 40
30.0
176
     0
 62
     7
420
 16777215
176
     0
 90
        1
176
     0
 90
        4
176
     0
 62
     7
176
     0
 62
   257
176
     0
 90
        1
176
     0
 90
        1
176
     0
 40
1.0
176
     0
 90
       10
176
     2
 62
     7
176
     0
 40
1.0
176
     0
 90
        1
176
     0
 90
        6
176
     0
 90
        2
176
     0
 62
     7
176
     0
 90
        5
176
     0
 90
        0
176
     0
 90
        0
176
     0
290
     0
176
     0
 90
        1
176
     0
 40
0.0
176
     0
 90
        0
176
     0
290
     0
176
     1
290
     1
176
     1
290
     1
176
     1
290
     0
176
     1
290
     0
176
     1
290
     0
176
     1
290
     0
176
     1
290
     0
176
     1
290
     0
176
     1
 90
       50
176
     0
 40
0.0
176
     0
 40
1.0
176
     0
 90
        0
176
     0
 62
    18
420
        0
176
     0
 90
       50
176
     0
 90
        3
176
     0
 62
     5
420
      255
176
     0
290
     0
176
     1
 90
       50
176
     0
 90
       50
176
     0
 90
       50
176
     0
290
     0
176
     1
 90
       50
176
     0
 62
   256
176
     0
 40
1.0
176
     0
 90
        2
176
     0
  1
strokes_ogs.tif
176
     0
290
     0
176
     1
 40
1.0
176
     0
 40
1.0
176
     0
  0
VISUALSTYLE
  5
37
102
{ACAD_REACTORS
330
29
102
}
330
29
100
AcDbVisualStyle
  2
Linepattern
 70
    14
177
     3
291
     1
 70
    58
 90
        2
176
     1
 90
        2
176
     1
 90
        0
176
     1
 90
        0
176
     1
 40
0.6
176
     1
 40
30.0
176
     1
 62
     7
420
 16777215
176
     1
 90
        1
176
     1
 90
        4
176
     1
 62
     7
176
     1
 62
   257
176
     1
 90
        7
176
     1
 90
        7
176
     1
 40
1.0
176
     1
 90
        8
176
     1
 62
     7
176
     1
 40
1.0
176
     1
 90
        1
176
     1
 90
        6
176
     1
 90
        2
176
     1
 62
     7
176
     1
 90
        5
176
     1
 90
        0
176
     1
 90
        0
176
     1
290
     0
176
     1
 90
        1
176
     1
 40
0.0
176
     1
 90
        0
176
     1
290
     0
176
     1
290
     1
176
     1
290
     1
176
     1
290
     0
176
     1
290
     0
176
     1
290
     0
176
     1
290
     0
176
     1
290
     0
176
     1
290
     0
176
     1
 90
       50
176
     1
 40
0.0
176
     1
 40
1.0
176
     1
 90
        0
176
     1
 62
    18
420
        0
176
     1
 90
       50
176
     1
 90
        3
176
     1
 62
     5
420
      255
176
     1
290
     0
176
     1
 90
       50
176
     1
 90
       50
176
     1
 90
       50
176
     1
290
     0
176
     1
 90
       50
176
     1
 62
   256
176
     0
 40
1.0
176
     0
 90
        2
176
     1
  1
strokes_ogs.tif
176
     1
290
     0
176
     1
 40
1.0
176
     1
 40
1.0
176
     1
  0
VISUALSTYLE
  5
40
102
{ACAD_REACTORS
330
29
102
}
330
29
100
AcDbVisualStyle
  2
OverhangOff
 70
    21
177
     3
291
     1
 70
    58
 90
        2
176
     0
 90
        2
176
     0
 90
        0
176
     0
 90
        0
176
     0
 40
0.6
176
     0
 40
30.0
176
     0
 62
     7
420
 16777215
176
     0
 90
        1
176
     0
 90
        4
176
     0
 62
     7
176
     0
 62
   257
176
     0
 90
        1
176
     0
 90
        1
176
     0
 40
1.0
176
     0
 90
        9
176
     2
 62
     7
176
     0
 40
1.0
176
     0
 90
        1
176
     0
 90
        6
176
     0
 90
        2
176
     0
 62
     7
176
     0
 90
        5
176
     0
 90
        0
176
     0
 90
        0
176
     0
290
     0
176
     0
 90
        1
176
     0
 40
0.0
176
     0
 90
        0
176
     0
290
     0
176
     1
290
     1
176
     1
290
     1
176
     1
290
     0
176
     1
290
     0
176
     1
290
     0
176
     1
290
     0
176
     1
290
     0
176
     1
290
     0
176
     1
 90
       50
176
     0
 40
0.0
176
     0
 40
1.0
176
     0
 90
        0
176
     0
 62
    18
420
        0
176
     0
 90
       50
176
     0
 90
        3
176
     0
 62
     5
420
      255
176
     0
290
     0
176
     1
 90
       50
176
     0
 90
       50
176
     0
 90
       50
176
     0
290
     0
176
     1
 90
       50
176
     0
 62
   256
176
     0
 40
1.0
176
     0
 90
        2
176
     0
  1
strokes_ogs.tif
176
     0
290
     0
176
     1
 40
1.0
176
     0
 40
1.0
176
     0
  0
VISUALSTYLE
  5
33
102
{ACAD_REACTORS
330
29
102
}
330
29
100
AcDbVisualStyle
  2
Realistic
 70
     8
177
     3
291
     0
 70
    58
 90
        2
176
     1
 90
        3
176
     1
 90
        0
176
     1
 90
        2
176
     1
 40
0.6
176
     1
 40
30.0
176
     1
 62
     7
420
 16777215
176
     1
 90
        0
176
     1
 90
        0
176
     1
 62
     7
176
     1
 62
   257
176
     1
 90
        1
176
     1
 90
        1
176
     1
 40
1.0
176
     1
 90
        8
176
     1
 62
   257
176
     1
 40
1.0
176
     1
 90
        1
176
     1
 90
        6
176
     1
 90
        2
176
     1
 62
     7
176
     1
 90
        3
176
     1
 90
        0
176
     1
 90
        0
176
     1
290
     0
176
     1
 90
       13
176
     1
 40
0.0
176
     1
 90
        0
176
     1
290
     0
176
     1
290
     1
176
     1
290
     1
176
     1
290
     0
176
     1
290
     0
176
     1
290
     0
176
     1
290
     0
176
     1
290
     0
176
     1
290
     0
176
     1
 90
       50
176
     1
 40
0.0
176
     1
 40
1.0
176
     1
 90
        0
176
     1
 62
    18
420
        0
176
     1
 90
       50
176
     1
 90
        3
176
     1
 62
     5
420
      255
176
     1
290
     0
176
     1
 90
       50
176
     1
 90
       50
176
     1
 90
       50
176
     1
290
     0
176
     1
 90
       50
176
     1
 62
   256
176
     0
 40
1.0
176
     0
 90
        2
176
     1
  1
strokes_ogs.tif
176
     1
290
     0
176
     1
 40
1.0
176
     1
 40
1.0
176
     1
  0
VISUALSTYLE
  5
3E
102
{ACAD_REACTORS
330
29
102
}
330
29
100
AcDbVisualStyle
  2
Shaded
 70
    27
177
     3
291
     0
 70
    58
 90
        2
176
     1
 90
        2
176
     1
 90
        1
176
     1
 90
        2
176
     1
 40
0.6
176
     1
 40
30.0
176
     1
 62
     7
420
 16777215
176
     1
 90
        0
176
     1
 90
        4
176
     1
 62
     7
176
     1
 62
   257
176
     1
 90
        1
176
     1
 90
        1
176
     1
 40
1.0
176
     1
 90
        8
176
     1
 62
   257
176
     1
 40
1.0
176
     1
 90
        1
176
     1
 90
        6
176
     1
 90
        2
176
     1
 62
     8
420
  7895160
176
     1
 90
        3
176
     1
 90
        0
176
     1
 90
        0
176
     1
290
     0
176
     1
 90
        5
176
     1
 40
0.0
176
     1
 90
        0
176
     1
290
     0
176
     1
290
     1
176
     1
290
     1
176
     1
290
     0
176
     1
290
     0
176
     1
290
     0
176
     1
290
     0
176
     1
290
     0
176
     1
290
     0
176
     1
 90
       50
176
     1
 40
0.0
176
     1
 40
1.0
176
     1
 90
        0
176
     1
 62
    18
420
        0
176
     1
 90
       50
176
     1
 90
        3
176
     1
 62
     5
420
      255
176
     1
290
     0
176
     1
 90
       50
176
     1
 90
       50
176
     1
 90
       50
176
     1
290
     0
176
     1
 90
       50
176
     1
 62
   256
176
     0
 40
1.0
176
     0
 90
        2
176
     1
  1
strokes_ogs.tif
176
     1
290
     0
176
     1
 40
1.0
176
     1
 40
1.0
176
     1
  0
VISUALSTYLE
  5
3D
102
{ACAD_REACTORS
330
29
102
}
330
29
100
AcDbVisualStyle
  2
Shaded with edges
 70
    26
177
     3
291
     0
 70
    58
 90
        2
176
     1
 90
        2
176
     1
 90
        1
176
     1
 90
        2
176
     1
 40
0.6
176
     1
 40
30.0
176
     1
 62
     7
420
 16777215
176
     1
 90
        1
176
     1
 90
        2
176
     1
 62
     7
176
     1
 62
   257
176
     1
 90
        2
176
     1
 90
        1
176
     1
 40
1.0
176
     1
 90
        8
176
     1
 62
   257
176
     1
 40
1.0
176
     1
 90
        1
176
     1
 90
        6
176
     1
 90
        2
176
     1
 62
     7
176
     1
 90
        3
176
     1
 90
        0
176
     1
 90
        0
176
     1
290
     0
176
     1
 90
        5
176
     1
 40
0.0
176
     1
 90
        0
176
     1
290
     0
176
     1
290
     1
176
     1
290
     1
176
     1
290
     0
176
     1
290
     0
176
     1
290
     0
176
     1
290
     0
176
     1
290
     0
176
     1
290
     0
176
     1
 90
       50
176
     1
 40
0.0
176
     1
 40
1.0
176
     1
 90
        0
176
     1
 62
    18
420
        0
176
     1
 90
       50
176
     1
 90
        3
176
     1
 62
     5
420
      255
176
     1
290
     0
176
     1
 90
       50
176
     1
 90
       50
176
     1
 90
       50
176
     1
290
     0
176
     1
 90
       50
176
     1
 62
   256
176
     0
 40
1.0
176
     0
 90
        2
176
     1
  1
strokes_ogs.tif
176
     1
290
     0
176
     1
 40
1.0
176
     1
 40
1.0
176
     1
  0
VISUALSTYLE
  5
3A
102
{ACAD_REACTORS
330
29
102
}
330
29
100
AcDbVisualStyle
  2
Shades of Gray
 70
    23
177
     3
291
     0
 70
    58
 90
        2
176
     1
 90
        2
176
     1
 90
        3
176
     1
 90
        0
176
     1
 40
0.6
176
     1
 40
30.0
176
     1
 62
     7
420
 16777215
176
     1
 90
        2
176
     1
 90
        2
176
     1
 62
     7
176
     1
 62
     7
176
     1
 90
        1
176
     1
 90
        1
176
     1
 40
40.0
176
     1
 90
        8
176
     1
 62
     7
176
     1
 40
1.0
176
     1
 90
        1
176
     1
 90
        6
176
     1
 90
        2
176
     1
 62
     7
176
     1
 90
        3
176
     1
 90
        0
176
     1
 90
        0
176
     1
290
     0
176
     1
 90
        1
176
     1
 40
0.0
176
     1
 90
        0
176
     1
290
     0
176
     1
290
     1
176
     1
290
     1
176
     1
290
     0
176
     1
290
     0
176
     1
290
     0
176
     1
290
     0
176
     1
290
     0
176
     1
290
     0
176
     1
 90
       50
176
     1
 40
0.0
176
     1
 40
1.0
176
     1
 90
        0
176
     1
 62
    18
420
        0
176
     1
 90
       50
176
     1
 90
        3
176
     1
 62
     5
420
      255
176
     1
290
     0
176
     1
 90
       50
176
     1
 90
       50
176
     1
 90
       50
176
     1
290
     0
176
     1
 90
       50
176
     1
 62
   256
176
     0
 40
1.0
176
     0
 90
        2
176
     1
  1
strokes_ogs.tif
176
     1
290
     0
176
     1
 40
1.0
176
     1
 40
1.0
176
     1
  0
VISUALSTYLE
  5
3B
102
{ACAD_REACTORS
330
29
102
}
330
29
100
AcDbVisualStyle
  2
Sketchy
 70
    24
177
     3
291
     0
 70
    58
 90
        1
176
     1
 90
        2
176
     1
 90
        2
176
     1
 90
        0
176
     1
 40
0.6
176
     1
 40
30.0
176
     1
 62
     7
420
 16777215
176
     1
 90
        2
176
     1
 90
        2
176
     1
 62
     7
176
     1
 62
     7
176
     1
 90
        1
176
     1
 90
        1
176
     1
 40
40.0
176
     1
 90
       11
176
     1
 62
     7
176
     1
 40
1.0
176
     1
 90
        1
176
     1
 90
        6
176
     1
 90
        2
176
     1
 62
     7
176
     1
 90
        6
176
     1
 90
        0
176
     1
 90
        0
176
     1
290
     0
176
     1
 90
        1
176
     1
 40
0.0
176
     1
 90
        0
176
     1
290
     0
176
     1
290
     1
176
     1
290
     1
176
     1
290
     0
176
     1
290
     0
176
     1
290
     0
176
     1
290
     0
176
     1
290
     0
176
     1
290
     0
176
     1
 90
       50
176
     1
 40
0.0
176
     1
 40
1.0
176
     1
 90
        0
176
     1
 62
    18
420
        0
176
     1
 90
       50
176
     1
 90
        3
176
     1
 62
     5
420
      255
176
     1
290
     0
176
     1
 90
       50
176
     1
 90
       50
176
     1
 90
       50
176
     1
290
     0
176
     1
 90
       50
176
     1
 62
   256
176
     0
 40
1.0
176
     0
 90
        2
176
     1
  1
strokes_ogs.tif
176
     1
290
     0
176
     1
 40
1.0
176
     1
 40
1.0
176
     1
  0
VISUALSTYLE
  5
36
102
{ACAD_REACTORS
330
29
102
}
330
29
100
AcDbVisualStyle
  2
Thicken
 70
    13
177
     3
291
     1
 70
    58
 90
        2
176
     1
 90
        2
176
     1
 90
        0
176
     1
 90
        0
176
     1
 40
0.6
176
     1
 40
30.0
176
     1
 62
     7
420
 16777215
176
     1
 90
        1
176
     1
 90
        4
176
     1
 62
     7
176
     1
 62
   257
176
     1
 90
        1
176
     1
 90
        1
176
     1
 40
1.0
176
     1
 90
       12
176
     1
 62
     7
176
     1
 40
1.0
176
     1
 90
        1
176
     1
 90
        6
176
     1
 90
        2
176
     1
 62
     7
176
     1
 90
        5
176
     1
 90
        0
176
     1
 90
        0
176
     1
290
     0
176
     1
 90
        1
176
     1
 40
0.0
176
     1
 90
        0
176
     1
290
     0
176
     1
290
     1
176
     1
290
     1
176
     1
290
     0
176
     1
290
     0
176
     1
290
     0
176
     1
290
     0
176
     1
290
     0
176
     1
290
     0
176
     1
 90
       50
176
     1
 40
0.0
176
     1
 40
1.0
176
     1
 90
        0
176
     1
 62
    18
420
        0
176
     1
 90
       50
176
     1
 90
        3
176
     1
 62
     5
420
      255
176
     1
290
     0
176
     1
 90
       50
176
     1
 90
       50
176
     1
 90
       50
176
     1
290
     0
176
     1
 90
       50
176
     1
 62
   256
176
     0
 40
1.0
176
     0
 90
        2
176
     1
  1
strokes_ogs.tif
176
     1
290
     0
176
     1
 40
1.0
176
     1
 40
1.0
176
     1
  0
VISUALSTYLE
  5
30
102
{ACAD_REACTORS
330
29
102
}
330
29
100
AcDbVisualStyle
  2
Wireframe
 70
     5
177
     3
291
     0
 70
    58
 90
        0
176
     1
 90
        2
176
     1
 90
        0
176
     1
 90
        0
176
     1
 40
0.6
176
     1
 40
30.0
176
     1
 62
     7
420
 16777215
176
     1
 90
        1
176
     1
 90
        4
176
     1
 62
     7
176
     1
 62
   257
176
     1
 90
        1
176
     1
 90
        1
176
     1
 40
1.0
176
     1
 90
        0
176
     1
 62
   257
176
     1
 40
1.0
176
     1
 90
        1
176
     1
 90
        6
176
     1
 90
        2
176
     1
 62
     7
176
     1
 90
        3
176
     1
 90
        0
176
     1
 90
        0
176
     1
290
     0
176
     1
 90
        1
176
     1
 40
0.0
176
     1
 90
        0
176
     1
290
     0
176
     1
290
     1
176
     1
290
     1
176
     1
290
     0
176
     1
290
     0
176
     1
290
     0
176
     1
290
     0
176
     1
290
     0
176
     1
290
     0
176
     1
 90
       50
176
     1
 40
0.0
176
     1
 40
1.0
176
     1
 90
        0
176
     1
 62
    18
420
        0
176
     1
 90
       50
176
     1
 90
        3
176
     1
 62
     5
420
      255
176
     1
290
     0
176
     1
 90
       50
176
     1
 90
       50
176
     1
 90
       50
176
     1
290
     0
176
     1
 90
       50
176
     1
 62
   256
176
     0
 40
1.0
176
     0
 90
        2
176
     1
  1
strokes_ogs.tif
176
     1
290
     0
176
     1
 40
1.0
176
     1
 40
1.0
176
     1
  0
VISUALSTYLE
  5
3C
102
{ACAD_REACTORS
330
29
102
}
330
29
100
AcDbVisualStyle
  2
X-Ray
 70
    25
177
     3
291
     0
 70
    58
 90
        2
176
     1
 90
        2
176
     1
 90
        1
176
     1
 90
        1
176
     1
 40
0.5
176
     1
 40
30.0
176
     1
 62
     7
420
 16777215
176
     1
 90
        1
176
     1
 90
        0
176
     1
 62
     7
176
     1
 62
   257
176
     1
 90
        1
176
     1
 90
        1
176
     1
 40
1.0
176
     1
 90
        8
176
     1
 62
     7
176
     1
 40
1.0
176
     1
 90
        1
176
     1
 90
        6
176
     1
 90
        2
176
     1
 62
     7
176
     1
 90
        3
176
     1
 90
        0
176
     1
 90
        0
176
     1
290
     0
176
     1
 90
       13
176
     1
 40
0.0
176
     1
 90
        0
176
     1
290
     0
176
     1
290
     1
176
     1
290
     1
176
     1
290
     0
176
     1
290
     0
176
     1
290
     0
176
     1
290
     0
176
     1
290
     0
176
     1
290
     0
176
     1
 90
       50
176
     1
 40
0.0
176
     1
 40
1.0
176
     1
 90
        0
176
     1
 62
    18
420
        0
176
     1
 90
       50
176
     1
 90
        3
176
     1
 62
     5
420
      255
176
     1
290
     0
176
     1
 90
       50
176
     1
 90
       50
176
     1
 90
       50
176
     1
290
     0
176
     1
 90
       50
176
     1
 62
   256
176
     0
 40
1.0
176
     0
 90
        2
176
     1
  1
strokes_ogs.tif
176
     1
290
     0
176
     1
 40
1.0
176
     1
 40
1.0
176
     1
  0
DICTIONARYVAR
  5
791
102
{ACAD_REACTORS
330
78B
102
}
330
78B
100
DictionaryVariables
280
     0
  1
1:1
  0
DICTIONARYVAR
  5
78D
102
{ACAD_REACTORS
330
78B
102
}
330
78B
100
DictionaryVariables
280
     0
  1
STANDARD
  0
DICTIONARYVAR
  5
78C
102
{ACAD_REACTORS
330
78B
102
}
330
78B
100
DictionaryVariables
280
     0
  1
STANDARD
  0
DICTIONARYVAR
  5
78E
102
{ACAD_REACTORS
330
78B
102
}
330
78B
100
DictionaryVariables
280
     0
  1
Imperial24
  0
DICTIONARYVAR
  5
78F
102
{ACAD_REACTORS
330
78B
102
}
330
78B
100
DictionaryVariables
280
     0
  1
Imperial24
  0
DICTIONARYVAR
  5
793
102
{ACAD_REACTORS
330
78B
102
}
330
78B
100
DictionaryVariables
280
     0
  1
1
  0
DICTIONARYVAR
  5
794
102
{ACAD_REACTORS
330
78B
102
}
330
78B
100
DictionaryVariables
280
     0
  1
15
  0
DICTIONARYVAR
  5
792
102
{ACAD_REACTORS
330
78B
102
}
330
78B
100
DictionaryVariables
280
     0
  1
0
  0
DICTIONARYVAR
  5
790
102
{ACAD_REACTORS
330
78B
102
}
330
78B
100
DictionaryVariables
280
     0
  1
0
  0
DICTIONARY
  5
1A
330
19
100
AcDbDictionary
280
     1
281
     1
  3
BUMPTILE
360
1C
  3
DIFFUSETILE
360
1B
  3
OPACITYTILE
360
1F
  3
REFLECTIONTILE
360
1E
  3
REFRACTIONTILE
360
20
  3
SPECULARTILE
360
1D
  0
DICTIONARY
  5
12
330
11
100
AcDbDictionary
280
     1
281
     1
  3
BUMPTILE
360
14
  3
DIFFUSETILE
360
13
  3
OPACITYTILE
360
17
  3
REFLECTIONTILE
360
16
  3
REFRACTIONTILE
360
18
  3
SPECULARTILE
360
15
  0
DICTIONARY
  5
22
330
21
100
AcDbDictionary
280
     1
281
     1
  3
BUMPTILE
360
24
  3
DIFFUSETILE
360
23
  3
OPACITYTILE
360
27
  3
REFLECTIONTILE
360
26
  3
REFRACTIONTILE
360
28
  3
SPECULARTILE
360
25
  0
DICTIONARY
  5
D5C
330
64
100
AcDbDictionary
280
     1
281
     1
  3
ACAD_ROUNDTRIP_2008_TABLESTYLE_CELLSTYLEMAP
360
D5D
  0
XRECORD
  5
1C
102
{ACAD_REACTORS
330
1A
102
}
330
1A
100
AcDbXrecord
280
     1
270
     1
271
     1
  0
XRECORD
  5
1B
102
{ACAD_REACTORS
330
1A
102
}
330
1A
100
AcDbXrecord
280
     1
270
     1
271
     1
  0
XRECORD
  5
1F
102
{ACAD_REACTORS
330
1A
102
}
330
1A
100
AcDbXrecord
280
     1
270
     1
271
     1
  0
XRECORD
  5
1E
102
{ACAD_REACTORS
330
1A
102
}
330
1A
100
AcDbXrecord
280
     1
270
     1
271
     1
  0
XRECORD
  5
20
102
{ACAD_REACTORS
330
1A
102
}
330
1A
100
AcDbXrecord
280
     1
270
     1
271
     1
  0
XRECORD
  5
1D
102
{ACAD_REACTORS
330
1A
102
}
330
1A
100
AcDbXrecord
280
     1
270
     1
271
     1
  0
XRECORD
  5
14
102
{ACAD_REACTORS
330
12
102
}
330
12
100
AcDbXrecord
280
     1
270
     1
271
     1
  0
XRECORD
  5
13
102
{ACAD_REACTORS
330
12
102
}
330
12
100
AcDbXrecord
280
     1
270
     1
271
     1
  0
XRECORD
  5
17
102
{ACAD_REACTORS
330
12
102
}
330
12
100
AcDbXrecord
280
     1
270
     1
271
     1
  0
XRECORD
  5
16
102
{ACAD_REACTORS
330
12
102
}
330
12
100
AcDbXrecord
280
     1
270
     1
271
     1
  0
XRECORD
  5
18
102
{ACAD_REACTORS
330
12
102
}
330
12
100
AcDbXrecord
280
     1
270
     1
271
     1
  0
XRECORD
  5
15
102
{ACAD_REACTORS
330
12
102
}
330
12
100
AcDbXrecord
280
     1
270
     1
271
     1
  0
XRECORD
  5
24
102
{ACAD_REACTORS
330
22
102
}
330
22
100
AcDbXrecord
280
     1
270
     1
271
     1
  0
XRECORD
  5
23
102
{ACAD_REACTORS
330
22
102
}
330
22
100
AcDbXrecord
280
     1
270
     1
271
     1
  0
XRECORD
  5
27
102
{ACAD_REACTORS
330
22
102
}
330
22
100
AcDbXrecord
280
     1
270
     1
271
     1
  0
XRECORD
  5
26
102
{ACAD_REACTORS
330
22
102
}
330
22
100
AcDbXrecord
280
     1
270
     1
271
     1
  0
XRECORD
  5
28
102
{ACAD_REACTORS
330
22
102
}
330
22
100
AcDbXrecord
280
     1
270
     1
271
     1
  0
XRECORD
  5
25
102
{ACAD_REACTORS
330
22
102
}
330
22
100
AcDbXrecord
280
     1
270
     1
271
     1
  0
CELLSTYLEMAP
  5
D5D
102
{ACAD_REACTORS
330
D5C
102
}
330
D5C
100
AcDbCellStyleMap
 90
        3
300
CELLSTYLE
  1
TABLEFORMAT_BEGIN
 90
        5
170
     1
 91
        0
 92
    32768
 62
   257
 93
        1
300
CONTENTFORMAT
  1
CONTENTFORMAT_BEGIN
 90
        0
 91
        0
 92
      512
 93
        0
300

 40
0.0
140
1.0
 94
        5
 62
     0
340
55
144
0.25
309
CONTENTFORMAT_END
171
     0
 94
        0
309
TABLEFORMAT_END
  1
CELLSTYLE_BEGIN
 90
        1
 91
        1
300
_TITLE
309
CELLSTYLE_END
300
CELLSTYLE
  1
TABLEFORMAT_BEGIN
 90
        5
170
     1
 91
        0
 92
        0
 62
   257
 93
        1
300
CONTENTFORMAT
  1
CONTENTFORMAT_BEGIN
 90
        0
 91
        0
 92
      512
 93
        0
300

 40
0.0
140
1.0
 94
        5
 62
     0
340
55
144
0.18
309
CONTENTFORMAT_END
171
     0
 94
        0
309
TABLEFORMAT_END
  1
CELLSTYLE_BEGIN
 90
        2
 91
        1
300
_HEADER
309
CELLSTYLE_END
300
CELLSTYLE
  1
TABLEFORMAT_BEGIN
 90
        5
170
     1
 91
        0
 92
        0
 62
   257
 93
        1
300
CONTENTFORMAT
  1
CONTENTFORMAT_BEGIN
 90
        0
 91
        0
 92
      512
 93
        0
300

 40
0.0
140
1.0
 94
        2
 62
     0
340
55
144
0.18
309
CONTENTFORMAT_END
171
     0
 94
        0
309
TABLEFORMAT_END
  1
CELLSTYLE_BEGIN
 90
        3
 91
        2
300
_DATA
309
CELLSTYLE_END
  0
ENDSEC
  0
SECTION
  2
ACDSDATA
 70
     2
 71
     8
  0
ACDSSCHEMA
 90
        0
  1
AcDb_Thumbnail_Schema
  2
AcDbDs::ID
280
    10
 91
        8
  2
Thumbnail_Data
280
    15
 91
        0
101
ACDSRECORD
 95
        0
 90
        1
  2
AcDbDs::TreatedAsObjectData
280
     1
291
     1
101
ACDSRECORD
 95
        0
 90
        2
  2
AcDbDs::Legacy
280
     1
291
     1
101
ACDSRECORD
  1
AcDbDs::ID
 90
        3
  2
AcDs:Indexable
280
     1
291
     1
101
ACDSRECORD
  1
AcDbDs::ID
 90
        4
  2
AcDbDs::HandleAttribute
280
     7
282
     1
  0
ACDSSCHEMA
 90
        1
  1
AcDbDs::TreatedAsObjectDataSchema
  2
AcDbDs::TreatedAsObjectData
280
     1
 91
        0
  0
ACDSSCHEMA
 90
        2
  1
AcDbDs::LegacySchema
  2
AcDbDs::Legacy
280
     1
 91
        0
  0
ACDSSCHEMA
 90
        3
  1
AcDbDs::IndexedPropertySchema
  2
AcDs:Indexable
280
     1
 91
        0
  0
ACDSSCHEMA
 90
        4
  1
AcDbDs::HandleAttributeSchema
  2
AcDbDs::HandleAttribute
280
     7
 91
        1
284
     1
  0
ACDSRECORD
 90
        0
  2
AcDbDs::ID
280
    10
320
72
  2
Thumbnail_Data
280
    15
 94
     1541
310
89504E470D0A1A0A0000000D494844520000010000000096080300000006E4A6BE00000300504C5445212830FFFFFF2128300000000000000000000000000000000000000000000000000000330000660000990000CC0000FF0033000033330033660033990033CC0033FF0066000066330066660066990066CC0066FF0099
310
000099330099660099990099CC0099FF00CC0000CC3300CC6600CC9900CCCC00CCFF00FF0000FF3300FF6600FF9900FFCC00FFFF3300003300333300663300993300CC3300FF3333003333333333663333993333CC3333FF3366003366333366663366993366CC3366FF3399003399333399663399993399CC3399FF33CC00
310
33CC3333CC6633CC9933CCCC33CCFF33FF0033FF3333FF6633FF9933FFCC33FFFF6600006600336600666600996600CC6600FF6633006633336633666633996633CC6633FF6666006666336666666666996666CC6666FF6699006699336699666699996699CC6699FF66CC0066CC3366CC6666CC9966CCCC66CCFF66FF0066
310
FF3366FF6666FF9966FFCC66FFFF9900009900339900669900999900CC9900FF9933009933339933669933999933CC9933FF9966009966339966669966999966CC9966FF9999009999339999669999999999CC9999FF99CC0099CC3399CC6699CC9999CCCC99CCFF99FF0099FF3399FF6699FF9999FFCC99FFFFCC0000CC00
310
33CC0066CC0099CC00CCCC00FFCC3300CC3333CC3366CC3399CC33CCCC33FFCC6600CC6633CC6666CC6699CC66CCCC66FFCC9900CC9933CC9966CC9999CC99CCCC99FFCCCC00CCCC33CCCC66CCCC99CCCCCCCCCCFFCCFF00CCFF33CCFF66CCFF99CCFFCCCCFFFFFF0000FF0033FF0066FF0099FF00CCFF00FFFF3300FF3333
310
FF3366FF3399FF33CCFF33FFFF6600FF6633FF6666FF6699FF66CCFF66FFFF9900FF9933FF9966FF9999FF99CCFF99FFFFCC00FFCC33FFCC66FFCC99FFCCCCFFCCFFFFFF00FFFF33FFFF66FFFF99FFFFCCFFFFFF0000000D0D0D1A1A1A2828283535354343435050505D5D5D6B6B6B787878868686939393A1A1A1AEAEAEBB
310
BBBBC9C9C9D6D6D6E4E4E4F1F1F1FFFFFF0000000000000000000000000000000000000000000000000000000000002E4550F1000002C04944415478DAED9AD19283300845F3FFFFCBFBCE4E5B8590D85A514973CEC376D9B523B9260821A50000000000000000000000000000000000000000C0C9C83FB38F7F10094E7155
310
CCC78C33602001A69D01323A87C7FF23CB2C6202182BB3113905D4F745AB99D9089DC208208F75B0DE249951BCF11AF4D3F708018ABE7D3A436A43AC11F2FACB31B20F8D1801665F02327B1044800113211FB90E24420356AA6EB422F2FD087EA6544780E302B8C2C2A607B90CE76F8400DD6921F90CE72F02C40860A693A8
310
046CFD6F0EC3F91B2540B177D0F97706434A2540395B00ADFF7AFBFB8DB304286F96401AC32E01993C0816049835118A1560C8F47789D2D30AA05F94CC80430234FB2CC9DB42A131405AC5E518FB6108102680ABAED3EE969BB7609800BADBA06283AE4B8E1A516D95F5335400F95E808B3B66E708F050C02F017B45D7187F
310
091004C713C04CC24912A1565F68A654B8D917A2318200D13140F26D80BC39CD19FB16A8AE48B105E65DD49900024415432ED75AB6E46F35D4422D663B5CFF1A520C2DDD11DD25916DE382B650BB640B3C25A6F697D672C3B6856E35EC1658D102489C00CBC133BDB0D274824C0156FF240822404422D43C7E962B116ABB18
310
744CAE53660C5009510B44D70275E2ED12F10F9FD6BE7C7D8703DE0E0D827581ED0A6E310ED723E83E13BDCDA2BFD2DA7EDAE5D00D02B49EADDA9FE90BA02FAEC2FDAF0850B605F0662201745FA8674B4F80E7A16DF16778EAE36C2AE1ECB6A1D6B8F48143719D2115505EEEC83E0144FC29AEFA349754F96EAB0BB33A5409
310
52DA0E861543224D81BF15A03303A4F404D89C011B0E06C500B5C32AF6C969BB23402B0648BD6AEB736EAD6BF4D5F51F7B0E0EF41628AD5A73B8B74069A5384F01B6F3804AB44402ECCE049FCD64B1B9DCBE4CD028B6D636D76782E373710DF1332000022000022000000000000000000000000000000000C0A8FC01222981
310
B1E057E4EC0000000049454E44AE426082
  0
ENDSEC
  0
EOF
